{"glyphs":{"0":{"ha":833,"x_min":124,"x_max":710,"o":"m 418 -14 q 203 67 282 -14 q 124 285 124 147 l 124 729 q 203 947 124 867 q 418 1028 282 1028 q 631 947 551 1028 q 710 729 710 867 l 710 285 q 631 67 710 149 q 418 -14 551 -14 m 418 65 q 565 125 510 65 q 619 285 619 185 l 619 729 q 565 889 619 829 q 418 949 510 949 q 269 889 324 949 q 214 729 214 829 l 214 285 q 269 125 214 185 q 418 65 324 65 m 417 440 q 363 458 383 440 q 342 511 342 476 q 363 563 342 544 q 417 581 383 581 q 471 563 450 581 q 492 511 492 544 q 471 458 492 476 q 417 440 450 440 z "},"1":{"ha":833,"x_min":133,"x_max":742,"o":"m 133 0 l 133 83 l 415 83 l 415 933 l 140 729 l 140 833 l 385 1014 l 507 1014 l 507 83 l 742 83 l 742 0 l 133 0 z "},"2":{"ha":833,"x_min":113,"x_max":726,"o":"m 129 0 l 129 83 l 483 460 q 619 740 619 604 q 563 890 619 833 q 413 947 507 947 q 261 890 318 947 q 204 738 204 832 l 113 738 q 151 890 114 825 q 256 992 189 956 q 413 1028 324 1028 q 570 992 503 1028 q 675 892 638 957 q 713 740 713 826 q 672 577 713 663 q 546 404 631 492 l 240 83 l 726 83 l 726 0 l 129 0 z "},"3":{"ha":833,"x_min":110,"x_max":696,"o":"m 403 -14 q 190 64 269 -14 q 110 274 110 142 l 201 274 q 257 124 201 179 q 403 68 313 68 q 549 124 493 68 q 604 274 604 179 l 604 357 q 550 501 604 449 q 403 554 496 554 l 308 554 l 308 633 l 575 931 l 142 931 l 142 1014 l 676 1014 l 676 928 l 417 635 q 620 556 544 631 q 696 357 696 482 l 696 274 q 616 64 696 142 q 403 -14 536 -14 z "},"4":{"ha":833,"x_min":110,"x_max":664,"o":"m 572 0 l 572 231 l 110 231 l 110 392 l 496 1013 l 599 1013 l 201 369 l 201 314 l 572 314 l 572 583 l 664 583 l 664 0 l 572 0 z "},"5":{"ha":833,"x_min":117,"x_max":703,"o":"m 410 -14 q 197 64 276 -14 q 117 274 117 142 l 208 274 q 264 124 208 179 q 410 68 319 68 q 556 124 500 68 q 611 274 611 179 l 611 339 q 558 493 611 438 q 413 549 506 549 l 151 549 l 151 1014 l 672 1014 l 672 931 l 238 931 l 239 632 l 415 632 q 627 555 551 632 q 703 339 703 478 l 703 274 q 623 64 703 142 q 410 -14 543 -14 z "},"6":{"ha":833,"x_min":100,"x_max":733,"o":"m 417 -14 q 252 27 324 -14 q 140 140 181 68 q 100 307 100 213 q 125 440 100 372 q 189 575 150 507 l 439 1014 l 542 1014 l 271 554 l 275 550 q 340 594 296 575 q 444 614 385 614 q 594 575 529 614 q 697 467 660 536 q 733 306 733 397 q 693 140 733 211 q 582 27 653 68 q 417 -14 511 -14 m 417 68 q 579 133 517 68 q 642 304 642 199 q 579 475 642 410 q 417 540 517 540 q 255 475 317 540 q 192 304 193 410 q 253 133 190 199 q 417 68 315 68 z "},"7":{"ha":833,"x_min":121,"x_max":749,"o":"m 278 0 l 653 931 l 213 931 l 213 736 l 121 736 l 121 1014 l 749 1014 l 749 926 l 378 0 l 278 0 z "},"8":{"ha":833,"x_min":106,"x_max":728,"o":"m 417 -14 q 254 23 325 -14 q 144 125 183 60 q 106 276 106 190 q 160 441 106 371 q 303 531 214 511 l 303 535 q 180 614 226 551 q 133 760 133 676 q 169 899 133 839 q 269 994 204 960 q 417 1028 333 1028 q 565 994 501 1028 q 665 899 629 960 q 700 760 700 839 q 653 614 700 676 q 531 535 607 551 l 531 531 q 674 441 619 511 q 728 276 728 371 q 689 125 728 190 q 580 23 650 60 q 417 -14 510 -14 m 417 568 q 556 620 503 568 q 608 757 608 672 q 556 894 608 842 q 417 947 503 947 q 278 894 331 947 q 225 757 225 842 q 278 620 225 672 q 417 568 331 568 m 417 68 q 576 126 515 68 q 636 275 636 183 q 576 428 636 369 q 417 486 515 486 q 258 428 319 486 q 197 275 197 369 q 258 126 197 183 q 417 68 319 68 z "},"9":{"ha":833,"x_min":103,"x_max":731,"o":"m 285 0 l 563 460 l 558 464 q 493 419 540 440 q 386 397 446 397 q 239 436 303 397 q 139 544 175 475 q 103 704 103 613 q 142 874 103 801 q 253 987 182 946 q 417 1028 324 1028 q 581 988 510 1028 q 691 875 651 947 q 731 707 731 803 q 710 574 731 642 q 649 439 689 507 l 392 0 l 285 0 m 417 472 q 578 537 517 472 q 640 707 639 601 q 579 880 642 814 q 417 946 517 946 q 256 880 318 946 q 194 706 194 814 q 256 537 194 601 q 417 472 318 472 z "},"A":{"ha":833,"x_min":85,"x_max":749,"o":"m 85 0 l 357 1014 l 476 1014 l 749 0 l 656 0 l 582 283 l 250 283 l 178 0 l 85 0 m 271 363 l 561 363 l 464 733 q 431 868 443 814 q 417 939 419 922 q 401 868 414 922 q 368 733 389 814 l 271 363 z "},"Á":{"ha":833,"x_min":85,"x_max":749,"o":"m 85 0 l 357 1014 l 476 1014 l 749 0 l 656 0 l 582 283 l 250 283 l 178 0 l 85 0 m 271 363 l 561 363 l 464 733 q 431 868 443 814 q 417 939 419 922 q 401 868 414 922 q 368 733 389 814 l 271 363 m 354 1125 l 501 1319 l 604 1319 l 450 1125 l 354 1125 z "},"Ă":{"ha":833,"x_min":85,"x_max":749,"o":"m 85 0 l 357 1014 l 476 1014 l 749 0 l 656 0 l 582 283 l 250 283 l 178 0 l 85 0 m 271 363 l 561 363 l 464 733 q 431 868 443 814 q 417 939 419 922 q 401 868 414 922 q 368 733 389 814 l 271 363 m 417 1121 q 264 1175 321 1121 q 207 1319 207 1229 l 283 1319 q 319 1222 283 1258 q 415 1186 356 1186 q 513 1222 476 1186 q 550 1319 550 1258 l 626 1319 q 569 1175 626 1229 q 417 1121 513 1121 z "},"Ắ":{"ha":833,"x_min":85,"x_max":749,"o":"m 347 1246 l 489 1417 l 592 1417 l 439 1246 l 347 1246 m 386 1083 q 251 1131 301 1083 q 200 1260 200 1179 l 276 1260 q 306 1180 276 1210 q 386 1150 336 1150 l 447 1150 q 527 1180 497 1150 q 557 1260 557 1210 l 633 1260 q 583 1131 633 1179 q 447 1083 532 1083 l 386 1083 m 85 0 l 357 1014 l 476 1014 l 749 0 l 656 0 l 582 283 l 250 283 l 178 0 l 85 0 m 271 363 l 561 363 l 464 733 q 431 868 443 814 q 417 939 419 922 q 401 868 414 922 q 368 733 389 814 l 271 363 z "},"Ặ":{"ha":833,"x_min":85,"x_max":749,"o":"m 417 1121 q 264 1175 321 1121 q 207 1319 207 1229 l 283 1319 q 319 1222 283 1258 q 415 1186 356 1186 q 513 1222 476 1186 q 550 1319 550 1258 l 626 1319 q 569 1175 626 1229 q 417 1121 513 1121 m 85 0 l 357 1014 l 476 1014 l 749 0 l 656 0 l 582 283 l 250 283 l 178 0 l 85 0 m 271 363 l 561 363 l 464 733 q 431 868 443 814 q 417 939 419 922 q 401 868 414 922 q 368 733 389 814 l 271 363 m 417 -289 q 353 -267 376 -289 q 329 -208 329 -246 q 353 -149 329 -171 q 417 -126 376 -126 q 481 -149 457 -126 q 504 -208 504 -171 q 481 -267 504 -246 q 417 -289 457 -289 z "},"Ằ":{"ha":833,"x_min":85,"x_max":749,"o":"m 85 0 l 357 1014 l 476 1014 l 749 0 l 656 0 l 582 283 l 250 283 l 178 0 l 85 0 m 271 363 l 561 363 l 464 733 q 431 868 443 814 q 417 939 419 922 q 401 868 414 922 q 368 733 389 814 l 271 363 m 399 1246 l 257 1417 l 358 1417 l 489 1246 l 399 1246 m 386 1083 q 251 1131 301 1083 q 200 1260 200 1179 l 276 1260 q 306 1180 276 1210 q 386 1150 336 1150 l 447 1150 q 527 1180 497 1150 q 557 1260 557 1210 l 633 1260 q 583 1131 633 1179 q 447 1083 532 1083 l 386 1083 z "},"Ẳ":{"ha":833,"x_min":85,"x_max":749,"o":"m 85 0 l 357 1014 l 476 1014 l 749 0 l 656 0 l 582 283 l 250 283 l 178 0 l 85 0 m 271 363 l 561 363 l 464 733 q 431 868 443 814 q 417 939 419 922 q 401 868 414 922 q 368 733 389 814 l 271 363 m 365 1222 l 429 1297 q 449 1333 449 1319 q 421 1354 449 1354 l 319 1354 l 319 1417 l 432 1417 q 497 1399 474 1417 q 519 1349 519 1381 q 489 1274 519 1310 l 446 1222 l 365 1222 m 386 1083 q 251 1131 301 1083 q 200 1260 200 1179 l 276 1260 q 306 1180 276 1210 q 386 1150 336 1150 l 447 1150 q 527 1180 497 1150 q 557 1260 557 1210 l 633 1260 q 583 1131 633 1179 q 447 1083 532 1083 l 386 1083 z "},"Ẵ":{"ha":833,"x_min":85,"x_max":749,"o":"m 85 0 l 357 1014 l 476 1014 l 749 0 l 656 0 l 582 283 l 250 283 l 178 0 l 85 0 m 271 363 l 561 363 l 464 733 q 431 868 443 814 q 417 939 419 922 q 401 868 414 922 q 368 733 389 814 l 271 363 m 522 1278 q 453 1290 481 1278 q 404 1317 425 1301 q 364 1344 383 1332 q 319 1356 344 1356 q 269 1308 269 1356 l 269 1292 l 200 1292 l 200 1308 q 231 1388 200 1358 q 317 1417 263 1417 q 385 1405 358 1417 q 433 1378 413 1393 q 474 1351 454 1363 q 518 1339 493 1339 q 551 1351 539 1339 q 564 1386 564 1364 l 564 1403 l 633 1403 l 633 1386 q 603 1307 633 1336 q 522 1278 574 1278 m 386 1083 q 251 1128 301 1083 q 200 1250 200 1172 l 276 1250 q 306 1176 276 1203 q 386 1150 336 1150 l 447 1150 q 527 1176 497 1150 q 557 1250 557 1203 l 633 1250 q 583 1128 633 1172 q 447 1083 532 1083 l 386 1083 z "},"Ǎ":{"ha":833,"x_min":85,"x_max":749,"o":"m 85 0 l 357 1014 l 476 1014 l 749 0 l 656 0 l 582 283 l 250 283 l 178 0 l 85 0 m 271 363 l 561 363 l 464 733 q 431 868 443 814 q 417 939 419 922 q 401 868 414 922 q 368 733 389 814 l 271 363 m 369 1125 l 192 1319 l 289 1319 l 418 1185 l 546 1319 l 642 1319 l 465 1125 l 369 1125 z "},"Â":{"ha":833,"x_min":85,"x_max":749,"o":"m 85 0 l 357 1014 l 476 1014 l 749 0 l 656 0 l 582 283 l 250 283 l 178 0 l 85 0 m 271 363 l 561 363 l 464 733 q 431 868 443 814 q 417 939 419 922 q 401 868 414 922 q 368 733 389 814 l 271 363 m 192 1125 l 368 1319 l 464 1319 l 642 1125 l 546 1125 l 417 1260 l 290 1125 l 192 1125 z "},"Ấ":{"ha":833,"x_min":85,"x_max":817,"o":"m 85 0 l 357 1014 l 476 1014 l 749 0 l 656 0 l 582 283 l 250 283 l 178 0 l 85 0 m 271 363 l 561 363 l 464 733 q 431 868 443 814 q 417 939 419 922 q 401 868 414 922 q 368 733 389 814 l 271 363 m 564 1246 l 710 1417 l 817 1417 l 660 1246 l 564 1246 m 192 1083 l 368 1278 l 465 1278 l 642 1083 l 546 1083 l 417 1218 l 289 1083 l 192 1083 z "},"Ậ":{"ha":833,"x_min":85,"x_max":749,"o":"m 192 1125 l 368 1319 l 464 1319 l 642 1125 l 546 1125 l 417 1260 l 290 1125 l 192 1125 m 85 0 l 357 1014 l 476 1014 l 749 0 l 656 0 l 582 283 l 250 283 l 178 0 l 85 0 m 271 363 l 561 363 l 464 733 q 431 868 443 814 q 417 939 419 922 q 401 868 414 922 q 368 733 389 814 l 271 363 m 417 -289 q 353 -267 376 -289 q 329 -208 329 -246 q 353 -149 329 -171 q 417 -126 376 -126 q 481 -149 457 -126 q 504 -208 504 -171 q 481 -267 504 -246 q 417 -289 457 -289 z "},"Ầ":{"ha":833,"x_min":85,"x_max":749,"o":"m 85 0 l 357 1014 l 476 1014 l 749 0 l 656 0 l 582 283 l 250 283 l 178 0 l 85 0 m 271 363 l 561 363 l 464 733 q 431 868 443 814 q 417 939 419 922 q 401 868 414 922 q 368 733 389 814 l 271 363 m 618 1246 l 453 1417 l 558 1417 l 713 1246 l 618 1246 m 192 1083 l 368 1278 l 465 1278 l 642 1083 l 546 1083 l 417 1218 l 289 1083 l 192 1083 z "},"Ẩ":{"ha":833,"x_min":85,"x_max":754,"o":"m 85 0 l 357 1014 l 476 1014 l 749 0 l 656 0 l 582 283 l 250 283 l 178 0 l 85 0 m 271 363 l 561 363 l 464 733 q 431 868 443 814 q 417 939 419 922 q 401 868 414 922 q 368 733 389 814 l 271 363 m 596 1222 l 661 1293 q 681 1331 681 1314 q 650 1356 681 1356 l 551 1356 l 551 1417 l 658 1417 q 728 1396 703 1417 q 754 1342 754 1375 q 746 1303 754 1322 q 724 1271 738 1285 l 678 1222 l 596 1222 m 192 1083 l 368 1278 l 465 1278 l 642 1083 l 546 1083 l 417 1218 l 289 1083 l 192 1083 z "},"Ẫ":{"ha":833,"x_min":85,"x_max":749,"o":"m 85 0 l 357 1014 l 476 1014 l 749 0 l 656 0 l 582 283 l 250 283 l 178 0 l 85 0 m 271 363 l 561 363 l 464 733 q 431 868 443 814 q 417 939 419 922 q 401 868 414 922 q 368 733 389 814 l 271 363 m 522 1278 q 453 1290 481 1278 q 404 1317 425 1301 q 364 1344 383 1332 q 319 1356 344 1356 q 269 1308 269 1356 l 269 1292 l 200 1292 l 200 1308 q 231 1388 200 1358 q 317 1417 263 1417 q 385 1405 358 1417 q 433 1378 413 1393 q 474 1351 454 1363 q 518 1339 493 1339 q 551 1351 539 1339 q 564 1386 564 1364 l 564 1403 l 633 1403 l 633 1386 q 603 1307 633 1336 q 522 1278 574 1278 m 192 1083 l 356 1246 l 478 1246 l 642 1083 l 544 1083 l 417 1200 l 289 1083 l 192 1083 z "},"Ä":{"ha":833,"x_min":85,"x_max":749,"o":"m 85 0 l 357 1014 l 476 1014 l 749 0 l 656 0 l 582 283 l 250 283 l 178 0 l 85 0 m 271 363 l 561 363 l 464 733 q 431 868 443 814 q 417 939 419 922 q 401 868 414 922 q 368 733 389 814 l 271 363 m 569 1142 q 512 1163 533 1142 q 490 1222 490 1185 q 512 1282 490 1260 q 569 1304 533 1304 q 626 1282 606 1304 q 647 1222 647 1260 q 626 1163 647 1185 q 569 1142 606 1142 m 267 1142 q 210 1163 232 1142 q 189 1222 189 1185 q 210 1282 189 1260 q 267 1304 232 1304 q 324 1282 303 1304 q 346 1222 346 1260 q 324 1163 346 1185 q 267 1142 303 1142 z "},"Ạ":{"ha":833,"x_min":85,"x_max":749,"o":"m 85 0 l 357 1014 l 476 1014 l 749 0 l 656 0 l 582 283 l 250 283 l 178 0 l 85 0 m 271 363 l 561 363 l 464 733 q 431 868 443 814 q 417 939 419 922 q 401 868 414 922 q 368 733 389 814 l 271 363 m 417 -289 q 353 -267 376 -289 q 329 -208 329 -246 q 353 -149 329 -171 q 417 -126 376 -126 q 481 -149 457 -126 q 504 -208 504 -171 q 481 -267 504 -246 q 417 -289 457 -289 z "},"À":{"ha":833,"x_min":85,"x_max":749,"o":"m 85 0 l 357 1014 l 476 1014 l 749 0 l 656 0 l 582 283 l 250 283 l 178 0 l 85 0 m 271 363 l 561 363 l 464 733 q 431 868 443 814 q 417 939 419 922 q 401 868 414 922 q 368 733 389 814 l 271 363 m 385 1125 l 226 1319 l 333 1319 l 483 1125 l 385 1125 z "},"Ả":{"ha":833,"x_min":85,"x_max":749,"o":"m 85 0 l 357 1014 l 476 1014 l 749 0 l 656 0 l 582 283 l 250 283 l 178 0 l 85 0 m 271 363 l 561 363 l 464 733 q 431 868 443 814 q 417 939 419 922 q 401 868 414 922 q 368 733 389 814 l 271 363 m 372 1111 l 443 1210 q 465 1257 465 1240 q 417 1292 465 1292 l 301 1292 l 301 1357 l 419 1357 q 508 1332 475 1357 q 542 1267 542 1307 q 517 1193 542 1229 l 460 1111 l 372 1111 z "},"Ā":{"ha":833,"x_min":85,"x_max":749,"o":"m 85 0 l 357 1014 l 476 1014 l 749 0 l 656 0 l 582 283 l 250 283 l 178 0 l 85 0 m 271 363 l 561 363 l 464 733 q 431 868 443 814 q 417 939 419 922 q 401 868 414 922 q 368 733 389 814 l 271 363 m 211 1178 l 211 1256 l 622 1256 l 622 1178 l 211 1178 z "},"Ą":{"ha":833,"x_min":85,"x_max":801,"o":"m 85 0 l 357 1014 l 476 1014 l 749 0 l 728 0 q 642 -137 642 -76 q 661 -188 642 -169 q 715 -207 681 -207 l 801 -207 l 801 -275 l 697 -275 q 594 -243 632 -275 q 556 -157 556 -211 q 654 1 556 -76 l 582 283 l 250 283 l 178 0 l 85 0 m 271 363 l 561 363 l 464 733 q 431 868 443 814 q 417 939 419 922 q 401 868 414 922 q 368 733 389 814 l 271 363 z "},"Å":{"ha":833,"x_min":85,"x_max":749,"o":"m 85 0 l 357 1014 l 476 1014 l 749 0 l 656 0 l 582 283 l 250 283 l 178 0 l 85 0 m 271 363 l 561 363 l 464 733 q 431 868 443 814 q 417 939 419 922 q 401 868 414 922 q 368 733 389 814 l 271 363 m 418 1075 q 306 1116 349 1075 q 263 1222 263 1157 q 306 1328 263 1288 q 418 1369 349 1369 q 528 1328 486 1369 q 571 1222 571 1288 q 528 1116 571 1157 q 418 1075 486 1075 m 417 1135 q 480 1158 456 1135 q 504 1222 504 1182 q 480 1287 504 1263 q 417 1311 456 1311 q 353 1287 378 1311 q 329 1222 329 1263 q 353 1158 329 1182 q 417 1135 378 1135 z "},"Ã":{"ha":833,"x_min":85,"x_max":749,"o":"m 85 0 l 357 1014 l 476 1014 l 749 0 l 656 0 l 582 283 l 250 283 l 178 0 l 85 0 m 271 363 l 561 363 l 464 733 q 431 868 443 814 q 417 939 419 922 q 401 868 414 922 q 368 733 389 814 l 271 363 m 518 1132 q 451 1149 478 1132 q 405 1190 425 1167 q 366 1230 385 1213 q 322 1247 347 1247 q 280 1231 296 1247 q 264 1185 264 1214 l 264 1139 l 194 1139 l 194 1185 q 228 1278 194 1244 q 319 1313 263 1313 q 386 1295 360 1313 q 433 1255 413 1278 q 472 1215 453 1232 q 515 1197 490 1197 q 569 1260 569 1197 l 569 1306 l 639 1306 l 639 1260 q 606 1166 639 1200 q 518 1132 574 1132 z "},"Æ":{"ha":833,"x_min":44,"x_max":790,"o":"m 44 0 l 282 1014 l 790 1014 l 790 931 l 515 931 l 515 568 l 747 568 l 747 485 l 515 485 l 515 83 l 790 83 l 790 0 l 426 0 l 426 292 l 206 292 l 138 0 l 44 0 m 225 371 l 426 371 l 426 931 l 353 931 l 225 371 z "},"Ǽ":{"ha":833,"x_min":44,"x_max":790,"o":"m 44 0 l 282 1014 l 790 1014 l 790 931 l 515 931 l 515 568 l 747 568 l 747 485 l 515 485 l 515 83 l 790 83 l 790 0 l 426 0 l 426 292 l 206 292 l 138 0 l 44 0 m 225 371 l 426 371 l 426 931 l 353 931 l 225 371 m 354 1125 l 501 1319 l 604 1319 l 450 1125 l 354 1125 z "},"B":{"ha":833,"x_min":143,"x_max":724,"o":"m 143 0 l 143 1014 l 415 1014 q 623 943 546 1014 q 700 753 700 872 q 678 653 700 700 q 616 575 656 607 q 526 533 576 543 l 526 529 q 628 485 583 521 q 698 396 672 450 q 724 279 724 342 q 644 76 724 151 q 426 0 564 0 l 143 0 m 233 564 l 414 564 q 557 613 506 564 q 608 747 608 663 q 557 882 608 833 q 415 931 506 931 l 233 931 l 233 564 m 233 83 l 421 83 q 576 136 519 83 q 633 281 633 189 q 576 428 633 374 q 421 483 519 483 l 233 483 l 233 83 z "},"C":{"ha":833,"x_min":142,"x_max":718,"o":"m 429 -14 q 219 63 297 -14 q 142 269 142 139 l 142 744 q 219 951 142 875 q 429 1028 297 1028 q 640 949 561 1028 q 718 736 718 869 l 626 736 q 574 890 626 835 q 429 946 521 946 q 286 892 339 946 q 233 744 233 839 l 233 269 q 285 122 233 175 q 429 68 338 68 q 574 124 522 68 q 626 278 626 179 l 718 278 q 640 65 718 144 q 429 -14 561 -14 z "},"Ć":{"ha":833,"x_min":142,"x_max":718,"o":"m 429 -14 q 219 63 297 -14 q 142 269 142 139 l 142 744 q 219 951 142 875 q 429 1028 297 1028 q 640 949 561 1028 q 718 736 718 869 l 626 736 q 574 890 626 835 q 429 946 521 946 q 286 892 339 946 q 233 744 233 839 l 233 269 q 285 122 233 175 q 429 68 338 68 q 574 124 522 68 q 626 278 626 179 l 718 278 q 640 65 718 144 q 429 -14 561 -14 m 361 1125 l 508 1319 l 611 1319 l 457 1125 l 361 1125 z "},"Č":{"ha":833,"x_min":142,"x_max":718,"o":"m 429 -14 q 219 63 297 -14 q 142 269 142 139 l 142 744 q 219 951 142 875 q 429 1028 297 1028 q 640 949 561 1028 q 718 736 718 869 l 626 736 q 574 890 626 835 q 429 946 521 946 q 286 892 339 946 q 233 744 233 839 l 233 269 q 285 122 233 175 q 429 68 338 68 q 574 124 522 68 q 626 278 626 179 l 718 278 q 640 65 718 144 q 429 -14 561 -14 m 376 1125 l 199 1319 l 296 1319 l 425 1185 l 553 1319 l 649 1319 l 472 1125 l 376 1125 z "},"Ç":{"ha":833,"x_min":142,"x_max":718,"o":"m 317 -275 l 317 -215 l 422 -215 q 474 -199 454 -215 q 494 -161 494 -182 q 452 -111 494 -131 q 338 -92 410 -92 l 369 -10 q 203 81 264 8 q 142 269 142 154 l 142 744 q 219 951 142 875 q 429 1028 297 1028 q 640 949 561 1028 q 718 736 718 869 l 626 736 q 574 890 626 835 q 429 946 521 946 q 286 892 339 946 q 233 744 233 839 l 233 269 q 285 122 233 175 q 429 68 338 68 q 574 124 522 68 q 626 278 626 179 l 718 278 q 640 65 718 144 q 435 -14 563 -14 l 422 -47 q 493 -64 457 -51 q 555 -101 529 -76 q 581 -165 581 -126 q 540 -243 581 -211 q 431 -275 499 -275 l 317 -275 z "},"Ĉ":{"ha":833,"x_min":142,"x_max":718,"o":"m 429 -14 q 219 63 297 -14 q 142 269 142 139 l 142 744 q 219 951 142 875 q 429 1028 297 1028 q 640 949 561 1028 q 718 736 718 869 l 626 736 q 574 890 626 835 q 429 946 521 946 q 286 892 339 946 q 233 744 233 839 l 233 269 q 285 122 233 175 q 429 68 338 68 q 574 124 522 68 q 626 278 626 179 l 718 278 q 640 65 718 144 q 429 -14 561 -14 m 199 1125 l 375 1319 l 471 1319 l 649 1125 l 553 1125 l 424 1260 l 297 1125 l 199 1125 z "},"Ċ":{"ha":833,"x_min":142,"x_max":718,"o":"m 429 -14 q 219 63 297 -14 q 142 269 142 139 l 142 744 q 219 951 142 875 q 429 1028 297 1028 q 640 949 561 1028 q 718 736 718 869 l 626 736 q 574 890 626 835 q 429 946 521 946 q 286 892 339 946 q 233 744 233 839 l 233 269 q 285 122 233 175 q 429 68 338 68 q 574 124 522 68 q 626 278 626 179 l 718 278 q 640 65 718 144 q 429 -14 561 -14 m 424 1140 q 360 1163 383 1140 q 336 1222 336 1185 q 360 1282 336 1260 q 424 1304 383 1304 q 488 1282 464 1304 q 511 1222 511 1260 q 488 1163 511 1185 q 424 1140 464 1140 z "},"D":{"ha":833,"x_min":143,"x_max":697,"o":"m 143 0 l 143 1014 l 381 1014 q 547 976 476 1014 q 658 869 618 938 q 697 708 697 801 l 697 306 q 658 145 697 214 q 547 38 618 76 q 381 0 476 0 l 143 0 m 235 83 l 381 83 q 544 143 483 83 q 606 306 606 203 l 606 708 q 544 870 606 810 q 381 931 483 931 l 235 931 l 235 83 z "},"Ð":{"ha":833,"x_min":14,"x_max":697,"o":"m 143 0 l 143 479 l 14 479 l 14 557 l 143 557 l 143 1014 l 381 1014 q 547 976 476 1014 q 658 869 618 938 q 697 708 697 801 l 697 306 q 658 145 697 214 q 547 38 618 76 q 381 0 476 0 l 143 0 m 235 83 l 381 83 q 544 143 483 83 q 606 306 606 203 l 606 708 q 544 870 606 810 q 381 931 483 931 l 235 931 l 235 557 l 403 557 l 403 479 l 235 479 l 235 83 z "},"Ď":{"ha":833,"x_min":143,"x_max":697,"o":"m 143 0 l 143 1014 l 381 1014 q 547 976 476 1014 q 658 869 618 938 q 697 708 697 801 l 697 306 q 658 145 697 214 q 547 38 618 76 q 381 0 476 0 l 143 0 m 235 83 l 381 83 q 544 143 483 83 q 606 306 606 203 l 606 708 q 544 870 606 810 q 381 931 483 931 l 235 931 l 235 83 m 369 1125 l 192 1319 l 289 1319 l 418 1185 l 546 1319 l 642 1319 l 465 1125 l 369 1125 z "},"Đ":{"ha":833,"x_min":14,"x_max":697,"o":"m 143 0 l 143 479 l 14 479 l 14 557 l 143 557 l 143 1014 l 381 1014 q 547 976 476 1014 q 658 869 618 938 q 697 708 697 801 l 697 306 q 658 145 697 214 q 547 38 618 76 q 381 0 476 0 l 143 0 m 235 83 l 381 83 q 544 143 483 83 q 606 306 606 203 l 606 708 q 544 870 606 810 q 381 931 483 931 l 235 931 l 235 557 l 403 557 l 403 479 l 235 479 l 235 83 z "},"E":{"ha":833,"x_min":156,"x_max":714,"o":"m 156 0 l 156 1014 l 714 1014 l 714 931 l 247 931 l 247 571 l 665 571 l 665 489 l 247 489 l 247 83 l 714 83 l 714 0 l 156 0 z "},"É":{"ha":833,"x_min":156,"x_max":714,"o":"m 156 0 l 156 1014 l 714 1014 l 714 931 l 247 931 l 247 571 l 665 571 l 665 489 l 247 489 l 247 83 l 714 83 l 714 0 l 156 0 m 372 1125 l 519 1319 l 622 1319 l 468 1125 l 372 1125 z "},"Ĕ":{"ha":833,"x_min":156,"x_max":714,"o":"m 156 0 l 156 1014 l 714 1014 l 714 931 l 247 931 l 247 571 l 665 571 l 665 489 l 247 489 l 247 83 l 714 83 l 714 0 l 156 0 m 435 1121 q 282 1175 339 1121 q 225 1319 225 1229 l 301 1319 q 338 1222 301 1258 q 433 1186 374 1186 q 531 1222 494 1186 q 568 1319 568 1258 l 644 1319 q 588 1175 644 1229 q 435 1121 531 1121 z "},"Ě":{"ha":833,"x_min":156,"x_max":714,"o":"m 156 0 l 156 1014 l 714 1014 l 714 931 l 247 931 l 247 571 l 665 571 l 665 489 l 247 489 l 247 83 l 714 83 l 714 0 l 156 0 m 388 1125 l 210 1319 l 307 1319 l 436 1185 l 564 1319 l 660 1319 l 483 1125 l 388 1125 z "},"Ê":{"ha":833,"x_min":156,"x_max":714,"o":"m 156 0 l 156 1014 l 714 1014 l 714 931 l 247 931 l 247 571 l 665 571 l 665 489 l 247 489 l 247 83 l 714 83 l 714 0 l 156 0 m 210 1125 l 386 1319 l 482 1319 l 660 1125 l 564 1125 l 435 1260 l 308 1125 l 210 1125 z "},"Ế":{"ha":833,"x_min":156,"x_max":835,"o":"m 156 0 l 156 1014 l 714 1014 l 714 931 l 247 931 l 247 571 l 665 571 l 665 489 l 247 489 l 247 83 l 714 83 l 714 0 l 156 0 m 582 1246 l 728 1417 l 835 1417 l 678 1246 l 582 1246 m 210 1083 l 386 1278 l 483 1278 l 660 1083 l 564 1083 l 435 1218 l 307 1083 l 210 1083 z "},"Ệ":{"ha":833,"x_min":156,"x_max":714,"o":"m 156 0 l 156 1014 l 714 1014 l 714 931 l 247 931 l 247 571 l 665 571 l 665 489 l 247 489 l 247 83 l 714 83 l 714 0 l 156 0 m 435 -289 q 371 -267 394 -289 q 347 -208 347 -246 q 371 -149 347 -171 q 435 -126 394 -126 q 499 -149 475 -126 q 522 -208 522 -171 q 499 -267 522 -246 q 435 -289 475 -289 m 210 1125 l 386 1319 l 482 1319 l 660 1125 l 564 1125 l 435 1260 l 308 1125 l 210 1125 z "},"Ề":{"ha":833,"x_min":156,"x_max":731,"o":"m 156 0 l 156 1014 l 714 1014 l 714 931 l 247 931 l 247 571 l 665 571 l 665 489 l 247 489 l 247 83 l 714 83 l 714 0 l 156 0 m 636 1246 l 471 1417 l 576 1417 l 731 1246 l 636 1246 m 210 1083 l 386 1278 l 483 1278 l 660 1083 l 564 1083 l 435 1218 l 307 1083 l 210 1083 z "},"Ể":{"ha":833,"x_min":156,"x_max":772,"o":"m 156 0 l 156 1014 l 714 1014 l 714 931 l 247 931 l 247 571 l 665 571 l 665 489 l 247 489 l 247 83 l 714 83 l 714 0 l 156 0 m 614 1222 l 679 1293 q 699 1331 699 1314 q 668 1356 699 1356 l 569 1356 l 569 1417 l 676 1417 q 747 1396 721 1417 q 772 1342 772 1375 q 764 1303 772 1322 q 742 1271 756 1285 l 696 1222 l 614 1222 m 210 1083 l 386 1278 l 483 1278 l 660 1083 l 564 1083 l 435 1218 l 307 1083 l 210 1083 z "},"Ễ":{"ha":833,"x_min":156,"x_max":714,"o":"m 156 0 l 156 1014 l 714 1014 l 714 931 l 247 931 l 247 571 l 665 571 l 665 489 l 247 489 l 247 83 l 714 83 l 714 0 l 156 0 m 540 1278 q 471 1290 499 1278 q 422 1317 443 1301 q 382 1344 401 1332 q 338 1356 363 1356 q 288 1308 288 1356 l 288 1292 l 218 1292 l 218 1308 q 249 1388 218 1358 q 335 1417 281 1417 q 403 1405 376 1417 q 451 1378 431 1393 q 492 1351 472 1363 q 536 1339 511 1339 q 569 1351 557 1339 q 582 1386 582 1364 l 582 1403 l 651 1403 l 651 1386 q 622 1307 651 1336 q 540 1278 592 1278 m 210 1083 l 374 1246 l 496 1246 l 660 1083 l 563 1083 l 435 1200 l 307 1083 l 210 1083 z "},"Ë":{"ha":833,"x_min":156,"x_max":714,"o":"m 156 0 l 156 1014 l 714 1014 l 714 931 l 247 931 l 247 571 l 665 571 l 665 489 l 247 489 l 247 83 l 714 83 l 714 0 l 156 0 m 588 1142 q 530 1163 551 1142 q 508 1222 508 1185 q 530 1282 508 1260 q 588 1304 551 1304 q 644 1282 624 1304 q 665 1222 665 1260 q 644 1163 665 1185 q 588 1142 624 1142 m 285 1142 q 228 1163 250 1142 q 207 1222 207 1185 q 228 1282 207 1260 q 285 1304 250 1304 q 342 1282 321 1304 q 364 1222 364 1260 q 342 1163 364 1185 q 285 1142 321 1142 z "},"Ė":{"ha":833,"x_min":156,"x_max":714,"o":"m 156 0 l 156 1014 l 714 1014 l 714 931 l 247 931 l 247 571 l 665 571 l 665 489 l 247 489 l 247 83 l 714 83 l 714 0 l 156 0 m 435 1140 q 371 1163 394 1140 q 347 1222 347 1185 q 371 1282 347 1260 q 435 1304 394 1304 q 499 1282 475 1304 q 522 1222 522 1260 q 499 1163 522 1185 q 435 1140 475 1140 z "},"Ẹ":{"ha":833,"x_min":156,"x_max":714,"o":"m 156 0 l 156 1014 l 714 1014 l 714 931 l 247 931 l 247 571 l 665 571 l 665 489 l 247 489 l 247 83 l 714 83 l 714 0 l 156 0 m 435 -289 q 371 -267 394 -289 q 347 -208 347 -246 q 371 -149 347 -171 q 435 -126 394 -126 q 499 -149 475 -126 q 522 -208 522 -171 q 499 -267 522 -246 q 435 -289 475 -289 z "},"È":{"ha":833,"x_min":156,"x_max":714,"o":"m 156 0 l 156 1014 l 714 1014 l 714 931 l 247 931 l 247 571 l 665 571 l 665 489 l 247 489 l 247 83 l 714 83 l 714 0 l 156 0 m 403 1125 l 244 1319 l 351 1319 l 501 1125 l 403 1125 z "},"Ẻ":{"ha":833,"x_min":156,"x_max":714,"o":"m 156 0 l 156 1014 l 714 1014 l 714 931 l 247 931 l 247 571 l 665 571 l 665 489 l 247 489 l 247 83 l 714 83 l 714 0 l 156 0 m 390 1111 l 461 1210 q 483 1257 483 1240 q 435 1292 483 1292 l 319 1292 l 319 1357 l 438 1357 q 526 1332 493 1357 q 560 1267 560 1307 q 535 1193 560 1229 l 478 1111 l 390 1111 z "},"Ē":{"ha":833,"x_min":156,"x_max":714,"o":"m 156 0 l 156 1014 l 714 1014 l 714 931 l 247 931 l 247 571 l 665 571 l 665 489 l 247 489 l 247 83 l 714 83 l 714 0 l 156 0 m 229 1178 l 229 1256 l 640 1256 l 640 1178 l 229 1178 z "},"Ę":{"ha":833,"x_min":156,"x_max":721,"o":"m 156 0 l 156 1014 l 714 1014 l 714 931 l 247 931 l 247 571 l 665 571 l 665 489 l 247 489 l 247 83 l 714 83 l 714 0 l 647 0 q 561 -137 561 -76 q 581 -188 561 -169 q 635 -207 600 -207 l 721 -207 l 721 -275 l 617 -275 q 513 -243 551 -275 q 475 -157 475 -211 q 572 0 475 -76 l 156 0 z "},"Ɛ":{"ha":833,"x_min":106,"x_max":751,"o":"m 431 -14 q 260 22 333 -14 q 147 123 188 58 q 106 272 106 188 q 160 440 106 368 q 301 531 214 513 l 301 535 q 181 615 228 551 q 135 763 135 678 q 172 900 135 840 q 274 994 208 960 q 425 1028 339 1028 q 581 991 514 1028 q 687 889 649 954 q 725 736 725 824 l 633 736 q 576 888 633 829 q 425 947 518 947 q 281 894 336 947 q 226 758 226 842 q 282 621 226 674 q 425 568 338 568 l 532 568 l 532 486 l 429 486 q 263 428 326 486 q 199 278 199 369 q 263 126 199 185 q 429 68 326 68 q 596 126 532 68 q 660 275 660 183 l 751 275 q 710 124 751 189 q 597 22 669 58 q 431 -14 525 -14 z "},"Ẽ":{"ha":833,"x_min":156,"x_max":714,"o":"m 156 0 l 156 1014 l 714 1014 l 714 931 l 247 931 l 247 571 l 665 571 l 665 489 l 247 489 l 247 83 l 714 83 l 714 0 l 156 0 m 536 1132 q 469 1149 496 1132 q 423 1190 443 1167 q 384 1230 403 1213 q 340 1247 365 1247 q 298 1231 314 1247 q 282 1185 282 1214 l 282 1139 l 213 1139 l 213 1185 q 247 1278 213 1244 q 338 1313 281 1313 q 404 1295 378 1313 q 451 1255 431 1278 q 490 1215 471 1232 q 533 1197 508 1197 q 588 1260 588 1197 l 588 1306 l 657 1306 l 657 1260 q 624 1166 657 1200 q 536 1132 592 1132 z "},"F":{"ha":833,"x_min":149,"x_max":729,"o":"m 149 0 l 149 1014 l 729 1014 l 729 931 l 239 931 l 239 553 l 686 553 l 686 468 l 240 468 l 240 0 l 149 0 z "},"G":{"ha":833,"x_min":136,"x_max":713,"o":"m 424 -14 q 214 63 292 -14 q 136 269 136 139 l 136 744 q 214 951 136 875 q 424 1028 292 1028 q 634 949 556 1028 q 713 736 713 869 l 621 736 q 568 890 621 835 q 424 946 515 946 q 281 892 333 946 q 228 744 228 839 l 228 269 q 280 122 228 175 q 424 68 332 68 q 569 124 517 68 q 621 278 621 179 l 621 432 l 394 432 l 394 515 l 713 515 l 713 278 q 634 65 713 144 q 424 -14 556 -14 z "},"Ǵ":{"ha":833,"x_min":136,"x_max":713,"o":"m 424 -14 q 214 63 292 -14 q 136 269 136 139 l 136 744 q 214 951 136 875 q 424 1028 292 1028 q 634 949 556 1028 q 713 736 713 869 l 621 736 q 568 890 621 835 q 424 946 515 946 q 281 892 333 946 q 228 744 228 839 l 228 269 q 280 122 228 175 q 424 68 332 68 q 569 124 517 68 q 621 278 621 179 l 621 432 l 394 432 l 394 515 l 713 515 l 713 278 q 634 65 713 144 q 424 -14 556 -14 m 360 1125 l 507 1319 l 610 1319 l 456 1125 l 360 1125 z "},"Ğ":{"ha":833,"x_min":136,"x_max":713,"o":"m 424 -14 q 214 63 292 -14 q 136 269 136 139 l 136 744 q 214 951 136 875 q 424 1028 292 1028 q 634 949 556 1028 q 713 736 713 869 l 621 736 q 568 890 621 835 q 424 946 515 946 q 281 892 333 946 q 228 744 228 839 l 228 269 q 280 122 228 175 q 424 68 332 68 q 569 124 517 68 q 621 278 621 179 l 621 432 l 394 432 l 394 515 l 713 515 l 713 278 q 634 65 713 144 q 424 -14 556 -14 m 422 1121 q 269 1175 326 1121 q 213 1319 213 1229 l 289 1319 q 325 1222 289 1258 q 421 1186 361 1186 q 519 1222 482 1186 q 556 1319 556 1258 l 632 1319 q 575 1175 632 1229 q 422 1121 518 1121 z "},"Ǧ":{"ha":833,"x_min":136,"x_max":713,"o":"m 424 -14 q 214 63 292 -14 q 136 269 136 139 l 136 744 q 214 951 136 875 q 424 1028 292 1028 q 634 949 556 1028 q 713 736 713 869 l 621 736 q 568 890 621 835 q 424 946 515 946 q 281 892 333 946 q 228 744 228 839 l 228 269 q 280 122 228 175 q 424 68 332 68 q 569 124 517 68 q 621 278 621 179 l 621 432 l 394 432 l 394 515 l 713 515 l 713 278 q 634 65 713 144 q 424 -14 556 -14 m 375 1125 l 197 1319 l 294 1319 l 424 1185 l 551 1319 l 647 1319 l 471 1125 l 375 1125 z "},"Ĝ":{"ha":833,"x_min":136,"x_max":713,"o":"m 424 -14 q 214 63 292 -14 q 136 269 136 139 l 136 744 q 214 951 136 875 q 424 1028 292 1028 q 634 949 556 1028 q 713 736 713 869 l 621 736 q 568 890 621 835 q 424 946 515 946 q 281 892 333 946 q 228 744 228 839 l 228 269 q 280 122 228 175 q 424 68 332 68 q 569 124 517 68 q 621 278 621 179 l 621 432 l 394 432 l 394 515 l 713 515 l 713 278 q 634 65 713 144 q 424 -14 556 -14 m 197 1125 l 374 1319 l 469 1319 l 647 1125 l 551 1125 l 422 1260 l 296 1125 l 197 1125 z "},"Ģ":{"ha":833,"x_min":136,"x_max":713,"o":"m 424 -14 q 214 63 292 -14 q 136 269 136 139 l 136 744 q 214 951 136 875 q 424 1028 292 1028 q 634 949 556 1028 q 713 736 713 869 l 621 736 q 568 890 621 835 q 424 946 515 946 q 281 892 333 946 q 228 744 228 839 l 228 269 q 280 122 228 175 q 424 68 332 68 q 569 124 517 68 q 621 278 621 179 l 621 432 l 394 432 l 394 515 l 713 515 l 713 278 q 634 65 713 144 q 424 -14 556 -14 m 292 -333 l 419 -132 l 532 -132 l 386 -333 l 292 -333 z "},"Ġ":{"ha":833,"x_min":136,"x_max":713,"o":"m 424 -14 q 214 63 292 -14 q 136 269 136 139 l 136 744 q 214 951 136 875 q 424 1028 292 1028 q 634 949 556 1028 q 713 736 713 869 l 621 736 q 568 890 621 835 q 424 946 515 946 q 281 892 333 946 q 228 744 228 839 l 228 269 q 280 122 228 175 q 424 68 332 68 q 569 124 517 68 q 621 278 621 179 l 621 432 l 394 432 l 394 515 l 713 515 l 713 278 q 634 65 713 144 q 424 -14 556 -14 m 422 1140 q 358 1163 382 1140 q 335 1222 335 1185 q 358 1282 335 1260 q 422 1304 382 1304 q 486 1282 463 1304 q 510 1222 510 1260 q 486 1163 510 1185 q 422 1140 463 1140 z "},"H":{"ha":833,"x_min":143,"x_max":690,"o":"m 143 0 l 143 1014 l 235 1014 l 235 567 l 599 567 l 599 1014 l 690 1014 l 690 0 l 599 0 l 599 485 l 235 485 l 235 0 l 143 0 z "},"Ħ":{"ha":833,"x_min":14,"x_max":819,"o":"m 143 0 l 143 742 l 14 742 l 14 819 l 143 819 l 143 1014 l 235 1014 l 235 819 l 599 819 l 599 1014 l 690 1014 l 690 819 l 819 819 l 819 742 l 690 742 l 690 0 l 599 0 l 599 485 l 235 485 l 235 0 l 143 0 m 235 567 l 599 567 l 599 742 l 235 742 l 235 567 z "},"Ĥ":{"ha":833,"x_min":143,"x_max":690,"o":"m 143 0 l 143 1014 l 235 1014 l 235 567 l 599 567 l 599 1014 l 690 1014 l 690 0 l 599 0 l 599 485 l 235 485 l 235 0 l 143 0 m 192 1125 l 368 1319 l 464 1319 l 642 1125 l 546 1125 l 417 1260 l 290 1125 l 192 1125 z "},"I":{"ha":833,"x_min":158,"x_max":675,"o":"m 158 0 l 158 83 l 371 83 l 371 931 l 158 931 l 158 1014 l 675 1014 l 675 931 l 464 931 l 464 83 l 675 83 l 675 0 l 158 0 z "},"Í":{"ha":833,"x_min":158,"x_max":675,"o":"m 158 0 l 158 83 l 371 83 l 371 931 l 158 931 l 158 1014 l 675 1014 l 675 931 l 464 931 l 464 83 l 675 83 l 675 0 l 158 0 m 354 1125 l 501 1319 l 604 1319 l 450 1125 l 354 1125 z "},"Ĭ":{"ha":833,"x_min":158,"x_max":675,"o":"m 158 0 l 158 83 l 371 83 l 371 931 l 158 931 l 158 1014 l 675 1014 l 675 931 l 464 931 l 464 83 l 675 83 l 675 0 l 158 0 m 417 1121 q 264 1175 321 1121 q 207 1319 207 1229 l 283 1319 q 319 1222 283 1258 q 415 1186 356 1186 q 513 1222 476 1186 q 550 1319 550 1258 l 626 1319 q 569 1175 626 1229 q 417 1121 513 1121 z "},"Î":{"ha":833,"x_min":158,"x_max":675,"o":"m 158 0 l 158 83 l 371 83 l 371 931 l 158 931 l 158 1014 l 675 1014 l 675 931 l 464 931 l 464 83 l 675 83 l 675 0 l 158 0 m 192 1125 l 368 1319 l 464 1319 l 642 1125 l 546 1125 l 417 1260 l 290 1125 l 192 1125 z "},"Ï":{"ha":833,"x_min":158,"x_max":675,"o":"m 158 0 l 158 83 l 371 83 l 371 931 l 158 931 l 158 1014 l 675 1014 l 675 931 l 464 931 l 464 83 l 675 83 l 675 0 l 158 0 m 569 1142 q 512 1163 533 1142 q 490 1222 490 1185 q 512 1282 490 1260 q 569 1304 533 1304 q 626 1282 606 1304 q 647 1222 647 1260 q 626 1163 647 1185 q 569 1142 606 1142 m 267 1142 q 210 1163 232 1142 q 189 1222 189 1185 q 210 1282 189 1260 q 267 1304 232 1304 q 324 1282 303 1304 q 346 1222 346 1260 q 324 1163 346 1185 q 267 1142 303 1142 z "},"İ":{"ha":833,"x_min":158,"x_max":675,"o":"m 158 0 l 158 83 l 371 83 l 371 931 l 158 931 l 158 1014 l 675 1014 l 675 931 l 464 931 l 464 83 l 675 83 l 675 0 l 158 0 m 417 1140 q 353 1163 376 1140 q 329 1222 329 1185 q 353 1282 329 1260 q 417 1304 376 1304 q 481 1282 457 1304 q 504 1222 504 1260 q 481 1163 504 1185 q 417 1140 457 1140 z "},"Ị":{"ha":833,"x_min":158,"x_max":675,"o":"m 158 0 l 158 83 l 371 83 l 371 931 l 158 931 l 158 1014 l 675 1014 l 675 931 l 464 931 l 464 83 l 675 83 l 675 0 l 158 0 m 417 -289 q 353 -267 376 -289 q 329 -208 329 -246 q 353 -149 329 -171 q 417 -126 376 -126 q 481 -149 457 -126 q 504 -208 504 -171 q 481 -267 504 -246 q 417 -289 457 -289 z "},"Ì":{"ha":833,"x_min":158,"x_max":675,"o":"m 158 0 l 158 83 l 371 83 l 371 931 l 158 931 l 158 1014 l 675 1014 l 675 931 l 464 931 l 464 83 l 675 83 l 675 0 l 158 0 m 385 1125 l 226 1319 l 333 1319 l 483 1125 l 385 1125 z "},"Ỉ":{"ha":833,"x_min":158,"x_max":675,"o":"m 158 0 l 158 83 l 371 83 l 371 931 l 158 931 l 158 1014 l 675 1014 l 675 931 l 464 931 l 464 83 l 675 83 l 675 0 l 158 0 m 372 1111 l 443 1210 q 465 1257 465 1240 q 417 1292 465 1292 l 301 1292 l 301 1357 l 419 1357 q 508 1332 475 1357 q 542 1267 542 1307 q 517 1193 542 1229 l 460 1111 l 372 1111 z "},"Ī":{"ha":833,"x_min":158,"x_max":675,"o":"m 158 0 l 158 83 l 371 83 l 371 931 l 158 931 l 158 1014 l 675 1014 l 675 931 l 464 931 l 464 83 l 675 83 l 675 0 l 158 0 m 211 1178 l 211 1256 l 622 1256 l 622 1178 l 211 1178 z "},"Į":{"ha":833,"x_min":158,"x_max":675,"o":"m 158 0 l 158 83 l 371 83 l 371 931 l 158 931 l 158 1014 l 675 1014 l 675 931 l 464 931 l 464 83 l 675 83 l 675 0 l 453 0 q 367 -137 367 -76 q 386 -188 367 -169 q 440 -207 406 -207 l 526 -207 l 526 -275 l 422 -275 q 319 -243 357 -275 q 281 -157 281 -211 q 378 0 281 -76 l 158 0 z "},"Ĩ":{"ha":833,"x_min":158,"x_max":675,"o":"m 158 0 l 158 83 l 371 83 l 371 931 l 158 931 l 158 1014 l 675 1014 l 675 931 l 464 931 l 464 83 l 675 83 l 675 0 l 158 0 m 518 1132 q 451 1149 478 1132 q 405 1190 425 1167 q 366 1230 385 1213 q 322 1247 347 1247 q 280 1231 296 1247 q 264 1185 264 1214 l 264 1139 l 194 1139 l 194 1185 q 228 1278 194 1244 q 319 1313 263 1313 q 386 1295 360 1313 q 433 1255 413 1278 q 472 1215 453 1232 q 515 1197 490 1197 q 569 1260 569 1197 l 569 1306 l 639 1306 l 639 1260 q 606 1166 639 1200 q 518 1132 574 1132 z "},"J":{"ha":833,"x_min":83,"x_max":675,"o":"m 379 -14 q 162 65 240 -14 q 83 283 83 144 l 175 283 q 229 125 175 182 q 379 68 283 68 q 529 125 475 68 q 583 282 583 182 l 583 1014 l 675 1014 l 675 282 q 596 65 675 144 q 379 -14 517 -14 z "},"Ĵ":{"ha":833,"x_min":83,"x_max":853,"o":"m 379 -14 q 162 65 240 -14 q 83 283 83 144 l 175 283 q 229 125 175 182 q 379 68 283 68 q 529 125 475 68 q 583 282 583 182 l 583 1014 l 675 1014 l 675 282 q 596 65 675 144 q 379 -14 517 -14 m 403 1125 l 579 1319 l 675 1319 l 853 1125 l 757 1125 l 628 1260 l 501 1125 l 403 1125 z "},"K":{"ha":833,"x_min":143,"x_max":761,"o":"m 143 0 l 143 1014 l 235 1014 l 235 565 l 422 565 l 647 1014 l 747 1014 l 503 528 l 761 0 l 654 0 l 419 483 l 235 483 l 235 0 l 143 0 z "},"Ķ":{"ha":833,"x_min":143,"x_max":761,"o":"m 143 0 l 143 1014 l 235 1014 l 235 565 l 422 565 l 647 1014 l 747 1014 l 503 528 l 761 0 l 654 0 l 419 483 l 235 483 l 235 0 l 143 0 m 285 -333 l 413 -132 l 525 -132 l 379 -333 l 285 -333 z "},"L":{"ha":833,"x_min":189,"x_max":760,"o":"m 189 0 l 189 1014 l 281 1014 l 281 83 l 760 83 l 760 0 l 189 0 z "},"Ĺ":{"ha":833,"x_min":174,"x_max":760,"o":"m 189 0 l 189 1014 l 281 1014 l 281 83 l 760 83 l 760 0 l 189 0 m 174 1125 l 321 1319 l 424 1319 l 269 1125 l 174 1125 z "},"Ľ":{"ha":833,"x_min":189,"x_max":760,"o":"m 189 0 l 189 1014 l 281 1014 l 281 83 l 760 83 l 760 0 l 189 0 m 481 764 l 510 1014 l 600 1014 l 557 764 l 481 764 z "},"Ļ":{"ha":833,"x_min":189,"x_max":760,"o":"m 189 0 l 189 1014 l 281 1014 l 281 83 l 760 83 l 760 0 l 189 0 m 340 -333 l 468 -132 l 581 -132 l 435 -333 l 340 -333 z "},"Ŀ":{"ha":833,"x_min":189,"x_max":760,"o":"m 189 0 l 189 1014 l 281 1014 l 281 83 l 760 83 l 760 0 l 189 0 m 642 368 q 565 398 594 368 q 535 475 535 428 q 565 552 535 522 q 642 582 594 582 q 719 552 689 582 q 749 475 749 522 q 719 398 749 428 q 642 368 689 368 z "},"Ł":{"ha":833,"x_min":28,"x_max":768,"o":"m 197 0 l 197 443 l 28 328 l 28 418 l 197 533 l 197 1014 l 289 1014 l 289 597 l 542 769 l 542 679 l 289 507 l 289 83 l 768 83 l 768 0 l 197 0 z "},"M":{"ha":833,"x_min":117,"x_max":717,"o":"m 117 0 l 117 1014 l 250 1014 l 417 531 l 583 1014 l 717 1014 l 717 0 l 628 0 l 628 558 q 629 706 628 628 q 634 856 631 785 q 642 979 638 928 l 460 451 l 371 451 l 190 974 q 201 788 197 899 q 206 558 206 678 l 206 0 l 117 0 z "},"N":{"ha":833,"x_min":142,"x_max":692,"o":"m 142 0 l 142 1014 l 265 1014 l 613 104 q 608 175 610 135 q 604 254 606 215 q 603 319 603 293 l 603 1014 l 692 1014 l 692 0 l 568 0 l 224 910 q 228 817 225 878 q 231 694 231 757 l 231 0 l 142 0 z "},"Ń":{"ha":833,"x_min":142,"x_max":692,"o":"m 142 0 l 142 1014 l 265 1014 l 613 104 q 608 175 610 135 q 604 254 606 215 q 603 319 603 293 l 603 1014 l 692 1014 l 692 0 l 568 0 l 224 910 q 228 817 225 878 q 231 694 231 757 l 231 0 l 142 0 m 354 1125 l 501 1319 l 604 1319 l 450 1125 l 354 1125 z "},"Ň":{"ha":833,"x_min":142,"x_max":692,"o":"m 142 0 l 142 1014 l 265 1014 l 613 104 q 608 175 610 135 q 604 254 606 215 q 603 319 603 293 l 603 1014 l 692 1014 l 692 0 l 568 0 l 224 910 q 228 817 225 878 q 231 694 231 757 l 231 0 l 142 0 m 369 1125 l 192 1319 l 289 1319 l 418 1185 l 546 1319 l 642 1319 l 465 1125 l 369 1125 z "},"Ņ":{"ha":833,"x_min":142,"x_max":692,"o":"m 142 0 l 142 1014 l 265 1014 l 613 104 q 608 175 610 135 q 604 254 606 215 q 603 319 603 293 l 603 1014 l 692 1014 l 692 0 l 568 0 l 224 910 q 228 817 225 878 q 231 694 231 757 l 231 0 l 142 0 m 285 -333 l 413 -132 l 525 -132 l 379 -333 l 285 -333 z "},"Ŋ":{"ha":833,"x_min":140,"x_max":693,"o":"m 322 -250 l 322 -167 l 425 -167 q 556 -122 510 -167 q 601 8 601 -76 l 222 910 q 227 817 225 878 q 229 694 229 757 l 229 0 l 140 0 l 140 1014 l 265 1014 l 613 179 q 607 278 610 215 q 604 403 604 340 l 604 1014 l 693 1014 l 693 8 q 622 -181 693 -112 q 425 -250 551 -250 l 322 -250 z "},"Ñ":{"ha":833,"x_min":142,"x_max":692,"o":"m 142 0 l 142 1014 l 265 1014 l 613 104 q 608 175 610 135 q 604 254 606 215 q 603 319 603 293 l 603 1014 l 692 1014 l 692 0 l 568 0 l 224 910 q 228 817 225 878 q 231 694 231 757 l 231 0 l 142 0 m 518 1132 q 451 1149 478 1132 q 405 1190 425 1167 q 366 1230 385 1213 q 322 1247 347 1247 q 280 1231 296 1247 q 264 1185 264 1214 l 264 1139 l 194 1139 l 194 1185 q 228 1278 194 1244 q 319 1313 263 1313 q 386 1295 360 1313 q 433 1255 413 1278 q 472 1215 453 1232 q 515 1197 490 1197 q 569 1260 569 1197 l 569 1306 l 639 1306 l 639 1260 q 606 1166 639 1200 q 518 1132 574 1132 z "},"O":{"ha":833,"x_min":136,"x_max":697,"o":"m 417 -14 q 213 63 289 -14 q 136 275 136 140 l 136 739 q 213 951 136 874 q 417 1028 289 1028 q 621 951 544 1028 q 697 739 697 874 l 697 275 q 622 63 697 140 q 417 -14 546 -14 m 417 68 q 556 121 507 68 q 606 269 606 174 l 606 744 q 556 893 606 840 q 417 946 506 946 q 278 893 328 946 q 228 744 228 840 l 228 269 q 277 121 228 174 q 417 68 326 68 z "},"Ó":{"ha":833,"x_min":136,"x_max":697,"o":"m 417 -14 q 213 63 289 -14 q 136 275 136 140 l 136 739 q 213 951 136 874 q 417 1028 289 1028 q 621 951 544 1028 q 697 739 697 874 l 697 275 q 622 63 697 140 q 417 -14 546 -14 m 417 68 q 556 121 507 68 q 606 269 606 174 l 606 744 q 556 893 606 840 q 417 946 506 946 q 278 893 328 946 q 228 744 228 840 l 228 269 q 277 121 228 174 q 417 68 326 68 m 354 1125 l 501 1319 l 604 1319 l 450 1125 l 354 1125 z "},"Ŏ":{"ha":833,"x_min":136,"x_max":697,"o":"m 417 -14 q 213 63 289 -14 q 136 275 136 140 l 136 739 q 213 951 136 874 q 417 1028 289 1028 q 621 951 544 1028 q 697 739 697 874 l 697 275 q 622 63 697 140 q 417 -14 546 -14 m 417 68 q 556 121 507 68 q 606 269 606 174 l 606 744 q 556 893 606 840 q 417 946 506 946 q 278 893 328 946 q 228 744 228 840 l 228 269 q 277 121 228 174 q 417 68 326 68 m 417 1121 q 264 1175 321 1121 q 207 1319 207 1229 l 283 1319 q 319 1222 283 1258 q 415 1186 356 1186 q 513 1222 476 1186 q 550 1319 550 1258 l 626 1319 q 569 1175 626 1229 q 417 1121 513 1121 z "},"Ô":{"ha":833,"x_min":136,"x_max":697,"o":"m 417 -14 q 213 63 289 -14 q 136 275 136 140 l 136 739 q 213 951 136 874 q 417 1028 289 1028 q 621 951 544 1028 q 697 739 697 874 l 697 275 q 622 63 697 140 q 417 -14 546 -14 m 417 68 q 556 121 507 68 q 606 269 606 174 l 606 744 q 556 893 606 840 q 417 946 506 946 q 278 893 328 946 q 228 744 228 840 l 228 269 q 277 121 228 174 q 417 68 326 68 m 192 1125 l 368 1319 l 464 1319 l 642 1125 l 546 1125 l 417 1260 l 290 1125 l 192 1125 z "},"Ố":{"ha":833,"x_min":136,"x_max":817,"o":"m 417 -14 q 213 63 289 -14 q 136 275 136 140 l 136 739 q 213 951 136 874 q 417 1028 289 1028 q 621 951 544 1028 q 697 739 697 874 l 697 275 q 622 63 697 140 q 417 -14 546 -14 m 417 68 q 556 121 507 68 q 606 269 606 174 l 606 744 q 556 893 606 840 q 417 946 506 946 q 278 893 328 946 q 228 744 228 840 l 228 269 q 277 121 228 174 q 417 68 326 68 m 564 1246 l 710 1417 l 817 1417 l 660 1246 l 564 1246 m 192 1083 l 368 1278 l 465 1278 l 642 1083 l 546 1083 l 417 1218 l 289 1083 l 192 1083 z "},"Ộ":{"ha":833,"x_min":136,"x_max":697,"o":"m 417 -14 q 213 63 289 -14 q 136 275 136 140 l 136 739 q 213 951 136 874 q 417 1028 289 1028 q 621 951 544 1028 q 697 739 697 874 l 697 275 q 622 63 697 140 q 417 -14 546 -14 m 417 68 q 556 121 507 68 q 606 269 606 174 l 606 744 q 556 893 606 840 q 417 946 506 946 q 278 893 328 946 q 228 744 228 840 l 228 269 q 277 121 228 174 q 417 68 326 68 m 417 -289 q 353 -267 376 -289 q 329 -208 329 -246 q 353 -149 329 -171 q 417 -126 376 -126 q 481 -149 457 -126 q 504 -208 504 -171 q 481 -267 504 -246 q 417 -289 457 -289 m 192 1125 l 368 1319 l 464 1319 l 642 1125 l 546 1125 l 417 1260 l 290 1125 l 192 1125 z "},"Ồ":{"ha":833,"x_min":136,"x_max":713,"o":"m 417 -14 q 213 63 289 -14 q 136 275 136 140 l 136 739 q 213 951 136 874 q 417 1028 289 1028 q 621 951 544 1028 q 697 739 697 874 l 697 275 q 622 63 697 140 q 417 -14 546 -14 m 417 68 q 556 121 507 68 q 606 269 606 174 l 606 744 q 556 893 606 840 q 417 946 506 946 q 278 893 328 946 q 228 744 228 840 l 228 269 q 277 121 228 174 q 417 68 326 68 m 618 1246 l 453 1417 l 558 1417 l 713 1246 l 618 1246 m 192 1083 l 368 1278 l 465 1278 l 642 1083 l 546 1083 l 417 1218 l 289 1083 l 192 1083 z "},"Ổ":{"ha":833,"x_min":136,"x_max":754,"o":"m 417 -14 q 213 63 289 -14 q 136 275 136 140 l 136 739 q 213 951 136 874 q 417 1028 289 1028 q 621 951 544 1028 q 697 739 697 874 l 697 275 q 622 63 697 140 q 417 -14 546 -14 m 417 68 q 556 121 507 68 q 606 269 606 174 l 606 744 q 556 893 606 840 q 417 946 506 946 q 278 893 328 946 q 228 744 228 840 l 228 269 q 277 121 228 174 q 417 68 326 68 m 596 1222 l 661 1293 q 681 1331 681 1314 q 650 1356 681 1356 l 551 1356 l 551 1417 l 658 1417 q 728 1396 703 1417 q 754 1342 754 1375 q 746 1303 754 1322 q 724 1271 738 1285 l 678 1222 l 596 1222 m 192 1083 l 368 1278 l 465 1278 l 642 1083 l 546 1083 l 417 1218 l 289 1083 l 192 1083 z "},"Ỗ":{"ha":833,"x_min":136,"x_max":697,"o":"m 417 -14 q 213 63 289 -14 q 136 275 136 140 l 136 739 q 213 951 136 874 q 417 1028 289 1028 q 621 951 544 1028 q 697 739 697 874 l 697 275 q 622 63 697 140 q 417 -14 546 -14 m 417 68 q 556 121 507 68 q 606 269 606 174 l 606 744 q 556 893 606 840 q 417 946 506 946 q 278 893 328 946 q 228 744 228 840 l 228 269 q 277 121 228 174 q 417 68 326 68 m 522 1278 q 453 1290 481 1278 q 404 1317 425 1301 q 364 1344 383 1332 q 319 1356 344 1356 q 269 1308 269 1356 l 269 1292 l 200 1292 l 200 1308 q 231 1388 200 1358 q 317 1417 263 1417 q 385 1405 358 1417 q 433 1378 413 1393 q 474 1351 454 1363 q 518 1339 493 1339 q 551 1351 539 1339 q 564 1386 564 1364 l 564 1403 l 633 1403 l 633 1386 q 603 1307 633 1336 q 522 1278 574 1278 m 192 1083 l 356 1246 l 478 1246 l 642 1083 l 544 1083 l 417 1200 l 289 1083 l 192 1083 z "},"Ö":{"ha":833,"x_min":136,"x_max":697,"o":"m 417 -14 q 213 63 289 -14 q 136 275 136 140 l 136 739 q 213 951 136 874 q 417 1028 289 1028 q 621 951 544 1028 q 697 739 697 874 l 697 275 q 622 63 697 140 q 417 -14 546 -14 m 417 68 q 556 121 507 68 q 606 269 606 174 l 606 744 q 556 893 606 840 q 417 946 506 946 q 278 893 328 946 q 228 744 228 840 l 228 269 q 277 121 228 174 q 417 68 326 68 m 569 1142 q 512 1163 533 1142 q 490 1222 490 1185 q 512 1282 490 1260 q 569 1304 533 1304 q 626 1282 606 1304 q 647 1222 647 1260 q 626 1163 647 1185 q 569 1142 606 1142 m 267 1142 q 210 1163 232 1142 q 189 1222 189 1185 q 210 1282 189 1260 q 267 1304 232 1304 q 324 1282 303 1304 q 346 1222 346 1260 q 324 1163 346 1185 q 267 1142 303 1142 z "},"Ọ":{"ha":833,"x_min":136,"x_max":697,"o":"m 417 -14 q 213 63 289 -14 q 136 275 136 140 l 136 739 q 213 951 136 874 q 417 1028 289 1028 q 621 951 544 1028 q 697 739 697 874 l 697 275 q 622 63 697 140 q 417 -14 546 -14 m 417 68 q 556 121 507 68 q 606 269 606 174 l 606 744 q 556 893 606 840 q 417 946 506 946 q 278 893 328 946 q 228 744 228 840 l 228 269 q 277 121 228 174 q 417 68 326 68 m 417 -289 q 353 -267 376 -289 q 329 -208 329 -246 q 353 -149 329 -171 q 417 -126 376 -126 q 481 -149 457 -126 q 504 -208 504 -171 q 481 -267 504 -246 q 417 -289 457 -289 z "},"Ò":{"ha":833,"x_min":136,"x_max":697,"o":"m 417 -14 q 213 63 289 -14 q 136 275 136 140 l 136 739 q 213 951 136 874 q 417 1028 289 1028 q 621 951 544 1028 q 697 739 697 874 l 697 275 q 622 63 697 140 q 417 -14 546 -14 m 417 68 q 556 121 507 68 q 606 269 606 174 l 606 744 q 556 893 606 840 q 417 946 506 946 q 278 893 328 946 q 228 744 228 840 l 228 269 q 277 121 228 174 q 417 68 326 68 m 385 1125 l 226 1319 l 333 1319 l 483 1125 l 385 1125 z "},"Ỏ":{"ha":833,"x_min":136,"x_max":697,"o":"m 417 -14 q 213 63 289 -14 q 136 275 136 140 l 136 739 q 213 951 136 874 q 417 1028 289 1028 q 621 951 544 1028 q 697 739 697 874 l 697 275 q 622 63 697 140 q 417 -14 546 -14 m 417 68 q 556 121 507 68 q 606 269 606 174 l 606 744 q 556 893 606 840 q 417 946 506 946 q 278 893 328 946 q 228 744 228 840 l 228 269 q 277 121 228 174 q 417 68 326 68 m 372 1111 l 443 1210 q 465 1257 465 1240 q 417 1292 465 1292 l 301 1292 l 301 1357 l 419 1357 q 508 1332 475 1357 q 542 1267 542 1307 q 517 1193 542 1229 l 460 1111 l 372 1111 z "},"Ơ":{"ha":833,"x_min":136,"x_max":728,"o":"m 417 -14 q 213 63 289 -14 q 136 275 136 140 l 136 739 q 213 951 136 874 q 417 1028 289 1028 q 597 972 525 1028 q 638 989 622 972 q 653 1033 653 1006 l 653 1125 l 728 1125 l 728 1031 q 707 958 728 988 q 650 915 686 928 q 697 739 697 843 l 697 275 q 622 63 697 140 q 417 -14 546 -14 m 417 68 q 556 121 507 68 q 606 269 606 174 l 606 744 q 556 893 606 840 q 417 946 506 946 q 278 893 328 946 q 228 744 228 840 l 228 269 q 277 121 228 174 q 417 68 326 68 z "},"Ớ":{"ha":833,"x_min":136,"x_max":728,"o":"m 417 -14 q 213 63 289 -14 q 136 275 136 140 l 136 739 q 213 951 136 874 q 417 1028 289 1028 q 597 972 525 1028 q 638 989 622 972 q 653 1033 653 1006 l 653 1125 l 728 1125 l 728 1031 q 707 958 728 988 q 650 915 686 928 q 697 739 697 843 l 697 275 q 622 63 697 140 q 417 -14 546 -14 m 417 68 q 556 121 507 68 q 606 269 606 174 l 606 744 q 556 893 606 840 q 417 946 506 946 q 278 893 328 946 q 228 744 228 840 l 228 269 q 277 121 228 174 q 417 68 326 68 m 340 1125 l 488 1319 l 590 1319 l 436 1125 l 340 1125 z "},"Ợ":{"ha":833,"x_min":136,"x_max":728,"o":"m 417 -14 q 213 63 289 -14 q 136 275 136 140 l 136 739 q 213 951 136 874 q 417 1028 289 1028 q 597 972 525 1028 q 638 989 622 972 q 653 1033 653 1006 l 653 1125 l 728 1125 l 728 1031 q 707 958 728 988 q 650 915 686 928 q 697 739 697 843 l 697 275 q 622 63 697 140 q 417 -14 546 -14 m 417 68 q 556 121 507 68 q 606 269 606 174 l 606 744 q 556 893 606 840 q 417 946 506 946 q 278 893 328 946 q 228 744 228 840 l 228 269 q 277 121 228 174 q 417 68 326 68 m 417 -289 q 353 -267 376 -289 q 329 -208 329 -246 q 353 -149 329 -171 q 417 -126 376 -126 q 481 -149 457 -126 q 504 -208 504 -171 q 481 -267 504 -246 q 417 -289 457 -289 z "},"Ờ":{"ha":833,"x_min":136,"x_max":728,"o":"m 417 -14 q 213 63 289 -14 q 136 275 136 140 l 136 739 q 213 951 136 874 q 417 1028 289 1028 q 597 972 525 1028 q 638 989 622 972 q 653 1033 653 1006 l 653 1125 l 728 1125 l 728 1031 q 707 958 728 988 q 650 915 686 928 q 697 739 697 843 l 697 275 q 622 63 697 140 q 417 -14 546 -14 m 417 68 q 556 121 507 68 q 606 269 606 174 l 606 744 q 556 893 606 840 q 417 946 506 946 q 278 893 328 946 q 228 744 228 840 l 228 269 q 277 121 228 174 q 417 68 326 68 m 371 1125 l 213 1319 l 319 1319 l 469 1125 l 371 1125 z "},"Ở":{"ha":833,"x_min":136,"x_max":728,"o":"m 417 -14 q 213 63 289 -14 q 136 275 136 140 l 136 739 q 213 951 136 874 q 417 1028 289 1028 q 597 972 525 1028 q 638 989 622 972 q 653 1033 653 1006 l 653 1125 l 728 1125 l 728 1031 q 707 958 728 988 q 650 915 686 928 q 697 739 697 843 l 697 275 q 622 63 697 140 q 417 -14 546 -14 m 417 68 q 556 121 507 68 q 606 269 606 174 l 606 744 q 556 893 606 840 q 417 946 506 946 q 278 893 328 946 q 228 744 228 840 l 228 269 q 277 121 228 174 q 417 68 326 68 m 358 1111 l 429 1210 q 451 1257 451 1240 q 403 1292 451 1292 l 288 1292 l 288 1357 l 406 1357 q 494 1332 461 1357 q 528 1267 528 1307 q 503 1193 528 1229 l 446 1111 l 358 1111 z "},"Ỡ":{"ha":833,"x_min":136,"x_max":728,"o":"m 417 -14 q 213 63 289 -14 q 136 275 136 140 l 136 739 q 213 951 136 874 q 417 1028 289 1028 q 597 972 525 1028 q 638 989 622 972 q 653 1033 653 1006 l 653 1125 l 728 1125 l 728 1031 q 707 958 728 988 q 650 915 686 928 q 697 739 697 843 l 697 275 q 622 63 697 140 q 417 -14 546 -14 m 417 68 q 556 121 507 68 q 606 269 606 174 l 606 744 q 556 893 606 840 q 417 946 506 946 q 278 893 328 946 q 228 744 228 840 l 228 269 q 277 121 228 174 q 417 68 326 68 m 504 1132 q 438 1149 464 1132 q 391 1190 411 1167 q 352 1230 371 1213 q 308 1247 333 1247 q 266 1231 282 1247 q 250 1185 250 1214 l 250 1139 l 181 1139 l 181 1185 q 215 1278 181 1244 q 306 1313 249 1313 q 372 1295 346 1313 q 419 1255 399 1278 q 458 1215 439 1232 q 501 1197 476 1197 q 556 1260 556 1197 l 556 1306 l 625 1306 l 625 1260 q 592 1166 625 1200 q 504 1132 560 1132 z "},"Ő":{"ha":833,"x_min":136,"x_max":710,"o":"m 417 -14 q 213 63 289 -14 q 136 275 136 140 l 136 739 q 213 951 136 874 q 417 1028 289 1028 q 621 951 544 1028 q 697 739 697 874 l 697 275 q 622 63 697 140 q 417 -14 546 -14 m 417 68 q 556 121 507 68 q 606 269 606 174 l 606 744 q 556 893 606 840 q 417 946 506 946 q 278 893 328 946 q 228 744 228 840 l 228 269 q 277 121 228 174 q 417 68 326 68 m 460 1125 l 610 1319 l 710 1319 l 551 1125 l 460 1125 m 228 1125 l 378 1319 l 478 1319 l 319 1125 l 228 1125 z "},"Ō":{"ha":833,"x_min":136,"x_max":697,"o":"m 417 -14 q 213 63 289 -14 q 136 275 136 140 l 136 739 q 213 951 136 874 q 417 1028 289 1028 q 621 951 544 1028 q 697 739 697 874 l 697 275 q 622 63 697 140 q 417 -14 546 -14 m 417 68 q 556 121 507 68 q 606 269 606 174 l 606 744 q 556 893 606 840 q 417 946 506 946 q 278 893 328 946 q 228 744 228 840 l 228 269 q 277 121 228 174 q 417 68 326 68 m 211 1178 l 211 1256 l 622 1256 l 622 1178 l 211 1178 z "},"Ǫ":{"ha":833,"x_min":136,"x_max":697,"o":"m 518 -275 q 415 -243 453 -275 q 376 -157 376 -211 q 457 -11 376 -85 q 437 -13 449 -12 q 417 -14 425 -14 q 213 63 289 -14 q 136 269 136 139 l 136 744 q 213 951 136 875 q 417 1028 289 1028 q 621 951 544 1028 q 697 744 697 875 l 697 269 q 664 121 697 183 q 569 22 631 58 l 546 3 q 483 -72 503 -35 q 463 -137 463 -108 q 482 -188 463 -169 q 536 -207 501 -207 l 622 -207 l 622 -275 l 518 -275 m 417 68 q 556 121 507 68 q 606 269 606 174 l 606 744 q 556 893 606 840 q 417 946 506 946 q 278 893 328 946 q 228 744 228 840 l 228 269 q 277 121 228 174 q 417 68 326 68 z "},"Ø":{"ha":833,"x_min":61,"x_max":772,"o":"m 61 -56 l 165 129 q 136 269 136 190 l 136 744 q 213 951 136 875 q 417 1028 289 1028 q 629 943 553 1028 l 686 1042 l 772 1042 l 674 869 q 697 744 697 814 l 697 269 q 622 63 697 139 q 417 -14 546 -14 q 214 61 289 -14 l 147 -56 l 61 -56 m 228 269 q 229 240 228 254 l 581 857 q 417 946 535 946 q 278 893 328 946 q 228 744 228 840 l 228 269 m 417 68 q 556 121 507 68 q 606 269 606 174 l 606 744 l 606 749 l 260 142 q 417 68 308 68 z "},"Ǿ":{"ha":833,"x_min":61,"x_max":772,"o":"m 61 -56 l 165 129 q 136 269 136 190 l 136 744 q 213 951 136 875 q 417 1028 289 1028 q 629 943 553 1028 l 686 1042 l 772 1042 l 674 869 q 697 744 697 814 l 697 269 q 622 63 697 139 q 417 -14 546 -14 q 214 61 289 -14 l 147 -56 l 61 -56 m 228 269 q 229 240 228 254 l 581 857 q 417 946 535 946 q 278 893 328 946 q 228 744 228 840 l 228 269 m 417 68 q 556 121 507 68 q 606 269 606 174 l 606 744 l 606 749 l 260 142 q 417 68 308 68 m 354 1125 l 501 1319 l 604 1319 l 450 1125 l 354 1125 z "},"Õ":{"ha":833,"x_min":136,"x_max":697,"o":"m 417 -14 q 213 63 289 -14 q 136 275 136 140 l 136 739 q 213 951 136 874 q 417 1028 289 1028 q 621 951 544 1028 q 697 739 697 874 l 697 275 q 622 63 697 140 q 417 -14 546 -14 m 417 68 q 556 121 507 68 q 606 269 606 174 l 606 744 q 556 893 606 840 q 417 946 506 946 q 278 893 328 946 q 228 744 228 840 l 228 269 q 277 121 228 174 q 417 68 326 68 m 518 1132 q 451 1149 478 1132 q 405 1190 425 1167 q 366 1230 385 1213 q 322 1247 347 1247 q 280 1231 296 1247 q 264 1185 264 1214 l 264 1139 l 194 1139 l 194 1185 q 228 1278 194 1244 q 319 1313 263 1313 q 386 1295 360 1313 q 433 1255 413 1278 q 472 1215 453 1232 q 515 1197 490 1197 q 569 1260 569 1197 l 569 1306 l 639 1306 l 639 1260 q 606 1166 639 1200 q 518 1132 574 1132 z "},"Œ":{"ha":833,"x_min":56,"x_max":793,"o":"m 272 -14 q 115 58 175 -14 q 56 244 56 129 l 56 769 q 115 956 56 885 q 272 1028 175 1028 q 353 1008 319 1028 q 407 959 388 988 q 432 903 426 931 l 439 903 l 439 1014 l 793 1014 l 793 926 l 533 926 l 533 567 l 750 567 l 750 481 l 533 481 l 533 88 l 793 88 l 793 0 l 439 0 l 439 111 l 432 111 q 407 56 426 85 q 353 6 388 26 q 272 -14 319 -14 m 294 72 q 399 119 360 72 q 439 244 439 165 l 439 769 q 399 895 439 849 q 294 942 360 942 q 190 894 229 942 q 151 769 151 847 l 151 244 q 190 119 151 167 q 294 72 229 72 z "},"P":{"ha":833,"x_min":143,"x_max":751,"o":"m 143 0 l 143 1014 l 453 1014 q 670 935 589 1014 q 751 725 751 857 q 670 515 751 594 q 453 436 589 436 l 235 436 l 235 0 l 143 0 m 235 519 l 453 519 q 602 575 546 519 q 658 725 658 631 q 603 875 658 819 q 453 931 547 931 l 235 931 l 235 519 z "},"Þ":{"ha":833,"x_min":138,"x_max":747,"o":"m 138 0 l 138 1014 l 229 1014 l 229 793 l 463 793 q 670 721 593 793 q 747 528 747 649 q 670 334 747 406 q 463 263 593 263 l 229 263 l 229 0 l 138 0 m 229 346 l 463 346 q 603 394 551 346 q 654 528 654 443 q 603 662 654 613 q 463 711 551 711 l 229 711 l 229 346 z "},"Q":{"ha":833,"x_min":132,"x_max":717,"o":"m 608 -250 l 463 -11 q 442 -13 454 -12 q 418 -14 429 -14 q 210 64 288 -14 q 132 272 132 142 l 132 742 q 209 950 132 872 q 418 1028 286 1028 q 568 992 504 1028 q 667 891 632 956 q 701 742 701 826 l 701 272 q 663 115 701 182 q 557 15 625 49 l 717 -250 l 608 -250 m 418 68 q 558 122 507 68 q 610 272 610 176 l 610 742 q 558 891 610 836 q 418 946 507 946 q 276 892 328 946 q 224 742 224 838 l 224 272 q 276 122 224 176 q 418 68 328 68 z "},"R":{"ha":833,"x_min":143,"x_max":744,"o":"m 143 0 l 143 1014 l 439 1014 q 654 936 574 1014 q 735 729 735 858 q 676 548 735 621 q 519 454 618 475 l 744 0 l 639 0 l 422 447 l 235 447 l 235 0 l 143 0 m 235 529 l 439 529 q 586 584 531 529 q 642 731 642 639 q 586 876 642 822 q 439 931 531 931 l 235 931 l 235 529 z "},"Ŕ":{"ha":833,"x_min":143,"x_max":744,"o":"m 143 0 l 143 1014 l 439 1014 q 654 936 574 1014 q 735 729 735 858 q 676 548 735 621 q 519 454 618 475 l 744 0 l 639 0 l 422 447 l 235 447 l 235 0 l 143 0 m 235 529 l 439 529 q 586 584 531 529 q 642 731 642 639 q 586 876 642 822 q 439 931 531 931 l 235 931 l 235 529 m 354 1125 l 501 1319 l 604 1319 l 450 1125 l 354 1125 z "},"Ř":{"ha":833,"x_min":143,"x_max":744,"o":"m 143 0 l 143 1014 l 439 1014 q 654 936 574 1014 q 735 729 735 858 q 676 548 735 621 q 519 454 618 475 l 744 0 l 639 0 l 422 447 l 235 447 l 235 0 l 143 0 m 235 529 l 439 529 q 586 584 531 529 q 642 731 642 639 q 586 876 642 822 q 439 931 531 931 l 235 931 l 235 529 m 369 1125 l 192 1319 l 289 1319 l 418 1185 l 546 1319 l 642 1319 l 465 1125 l 369 1125 z "},"Ŗ":{"ha":833,"x_min":143,"x_max":744,"o":"m 143 0 l 143 1014 l 439 1014 q 654 936 574 1014 q 735 729 735 858 q 676 548 735 621 q 519 454 618 475 l 744 0 l 639 0 l 422 447 l 235 447 l 235 0 l 143 0 m 235 529 l 439 529 q 586 584 531 529 q 642 731 642 639 q 586 876 642 822 q 439 931 531 931 l 235 931 l 235 529 m 285 -333 l 413 -132 l 525 -132 l 379 -333 l 285 -333 z "},"S":{"ha":833,"x_min":111,"x_max":722,"o":"m 424 -14 q 259 22 329 -14 q 150 124 189 58 q 111 278 111 189 l 201 278 q 263 126 201 183 q 424 68 324 68 q 575 122 517 68 q 633 261 633 175 q 594 388 633 333 q 486 463 556 442 l 340 506 q 192 604 246 533 q 138 768 138 675 q 173 904 138 846 q 272 995 208 963 q 418 1028 335 1028 q 565 994 501 1028 q 665 899 629 960 q 701 758 701 838 l 611 758 q 557 894 611 842 q 418 947 503 947 q 281 899 333 947 q 228 774 228 850 q 263 660 228 708 q 363 592 299 611 l 510 547 q 665 442 608 518 q 722 264 722 365 q 685 118 722 181 q 580 21 647 56 q 424 -14 513 -14 z "},"Ś":{"ha":833,"x_min":111,"x_max":722,"o":"m 424 -14 q 259 22 329 -14 q 150 124 189 58 q 111 278 111 189 l 201 278 q 263 126 201 183 q 424 68 324 68 q 575 122 517 68 q 633 261 633 175 q 594 388 633 333 q 486 463 556 442 l 340 506 q 192 604 246 533 q 138 768 138 675 q 173 904 138 846 q 272 995 208 963 q 418 1028 335 1028 q 565 994 501 1028 q 665 899 629 960 q 701 758 701 838 l 611 758 q 557 894 611 842 q 418 947 503 947 q 281 899 333 947 q 228 774 228 850 q 263 660 228 708 q 363 592 299 611 l 510 547 q 665 442 608 518 q 722 264 722 365 q 685 118 722 181 q 580 21 647 56 q 424 -14 513 -14 m 354 1125 l 501 1319 l 604 1319 l 450 1125 l 354 1125 z "},"Š":{"ha":833,"x_min":111,"x_max":722,"o":"m 424 -14 q 259 22 329 -14 q 150 124 189 58 q 111 278 111 189 l 201 278 q 263 126 201 183 q 424 68 324 68 q 575 122 517 68 q 633 261 633 175 q 594 388 633 333 q 486 463 556 442 l 340 506 q 192 604 246 533 q 138 768 138 675 q 173 904 138 846 q 272 995 208 963 q 418 1028 335 1028 q 565 994 501 1028 q 665 899 629 960 q 701 758 701 838 l 611 758 q 557 894 611 842 q 418 947 503 947 q 281 899 333 947 q 228 774 228 850 q 263 660 228 708 q 363 592 299 611 l 510 547 q 665 442 608 518 q 722 264 722 365 q 685 118 722 181 q 580 21 647 56 q 424 -14 513 -14 m 369 1125 l 192 1319 l 289 1319 l 418 1185 l 546 1319 l 642 1319 l 465 1125 l 369 1125 z "},"Ş":{"ha":833,"x_min":111,"x_max":722,"o":"m 310 -275 l 310 -215 l 415 -215 q 467 -199 447 -215 q 488 -161 488 -182 q 445 -111 488 -131 q 331 -92 403 -92 l 363 -10 q 179 83 247 7 q 111 278 111 160 l 201 278 q 263 126 201 183 q 424 68 324 68 q 575 122 517 68 q 633 261 633 175 q 594 388 633 333 q 486 463 556 442 l 340 506 q 192 604 246 533 q 138 768 138 675 q 173 904 138 846 q 272 995 208 963 q 418 1028 335 1028 q 565 994 501 1028 q 665 899 629 960 q 701 758 701 838 l 611 758 q 557 894 611 842 q 418 947 503 947 q 281 899 333 947 q 228 774 228 850 q 263 660 228 708 q 363 592 299 611 l 510 547 q 665 442 608 518 q 722 264 722 365 q 685 118 722 181 q 582 21 649 56 q 428 -14 515 -14 l 415 -47 q 486 -64 450 -51 q 548 -101 522 -76 q 574 -165 574 -126 q 533 -243 574 -211 q 424 -275 492 -275 l 310 -275 z "},"Ŝ":{"ha":833,"x_min":111,"x_max":722,"o":"m 424 -14 q 259 22 329 -14 q 150 124 189 58 q 111 278 111 189 l 201 278 q 263 126 201 183 q 424 68 324 68 q 575 122 517 68 q 633 261 633 175 q 594 388 633 333 q 486 463 556 442 l 340 506 q 192 604 246 533 q 138 768 138 675 q 173 904 138 846 q 272 995 208 963 q 418 1028 335 1028 q 565 994 501 1028 q 665 899 629 960 q 701 758 701 838 l 611 758 q 557 894 611 842 q 418 947 503 947 q 281 899 333 947 q 228 774 228 850 q 263 660 228 708 q 363 592 299 611 l 510 547 q 665 442 608 518 q 722 264 722 365 q 685 118 722 181 q 580 21 647 56 q 424 -14 513 -14 m 192 1125 l 368 1319 l 464 1319 l 642 1125 l 546 1125 l 417 1260 l 290 1125 l 192 1125 z "},"Ș":{"ha":833,"x_min":111,"x_max":722,"o":"m 424 -14 q 259 22 329 -14 q 150 124 189 58 q 111 278 111 189 l 201 278 q 263 126 201 183 q 424 68 324 68 q 575 122 517 68 q 633 261 633 175 q 594 388 633 333 q 486 463 556 442 l 340 506 q 192 604 246 533 q 138 768 138 675 q 173 904 138 846 q 272 995 208 963 q 418 1028 335 1028 q 565 994 501 1028 q 665 899 629 960 q 701 758 701 838 l 611 758 q 557 894 611 842 q 418 947 503 947 q 281 899 333 947 q 228 774 228 850 q 263 660 228 708 q 363 592 299 611 l 510 547 q 665 442 608 518 q 722 264 722 365 q 685 118 722 181 q 580 21 647 56 q 424 -14 513 -14 m 285 -333 l 413 -132 l 525 -132 l 379 -333 l 285 -333 z "},"ẞ":{"ha":833,"x_min":143,"x_max":733,"o":"m 143 0 l 143 743 q 219 940 143 867 q 422 1014 296 1014 l 725 1014 l 725 926 l 468 574 q 661 494 589 569 q 733 294 733 418 q 697 139 733 206 q 594 36 660 72 q 439 0 528 0 l 350 0 l 350 83 l 433 83 q 583 140 528 83 q 639 293 639 197 q 583 442 639 386 q 433 499 528 499 l 375 499 l 375 578 l 629 931 l 422 931 q 285 880 336 931 q 235 743 235 829 l 235 0 l 143 0 z "},"Ə":{"ha":833,"x_min":138,"x_max":696,"o":"m 415 -14 q 212 63 286 -14 q 138 269 138 140 l 138 538 l 604 538 l 604 744 q 556 892 604 839 q 415 946 507 946 q 276 890 324 946 q 229 736 229 835 l 138 736 q 210 949 138 869 q 415 1028 283 1028 q 622 951 547 1028 q 696 744 696 875 l 696 269 q 621 63 696 140 q 415 -14 546 -14 m 415 64 q 556 118 508 64 q 604 269 604 172 l 604 463 l 229 463 l 229 269 q 276 119 229 174 q 415 64 324 64 z "},"T":{"ha":833,"x_min":81,"x_max":753,"o":"m 372 0 l 372 931 l 81 931 l 81 1014 l 753 1014 l 753 931 l 464 931 l 464 0 l 372 0 z "},"Ŧ":{"ha":833,"x_min":81,"x_max":753,"o":"m 372 0 l 372 422 l 161 422 l 161 501 l 372 501 l 372 931 l 81 931 l 81 1014 l 753 1014 l 753 931 l 464 931 l 464 501 l 672 501 l 672 422 l 464 422 l 464 0 l 372 0 z "},"Ť":{"ha":833,"x_min":81,"x_max":753,"o":"m 372 0 l 372 931 l 81 931 l 81 1014 l 753 1014 l 753 931 l 464 931 l 464 0 l 372 0 m 369 1125 l 192 1319 l 289 1319 l 418 1185 l 546 1319 l 642 1319 l 465 1125 l 369 1125 z "},"Ţ":{"ha":833,"x_min":81,"x_max":753,"o":"m 372 0 l 372 931 l 81 931 l 81 1014 l 753 1014 l 753 931 l 464 931 l 464 0 l 446 -47 q 517 -64 481 -51 q 578 -101 553 -76 q 604 -165 604 -126 q 563 -243 604 -211 q 454 -275 522 -275 l 340 -275 l 340 -215 l 446 -215 q 498 -199 478 -215 q 518 -161 518 -182 q 476 -111 518 -131 q 361 -92 433 -92 l 396 0 l 372 0 z "},"Ț":{"ha":833,"x_min":81,"x_max":753,"o":"m 372 0 l 372 931 l 81 931 l 81 1014 l 753 1014 l 753 931 l 464 931 l 464 0 l 372 0 m 285 -333 l 413 -132 l 525 -132 l 379 -333 l 285 -333 z "},"U":{"ha":833,"x_min":140,"x_max":693,"o":"m 418 -14 q 214 63 288 -14 q 140 269 140 140 l 140 1014 l 232 1014 l 232 269 q 280 122 232 175 q 418 68 328 68 q 554 122 507 68 q 601 269 601 175 l 601 1014 l 693 1014 l 693 269 q 620 63 693 139 q 418 -14 547 -14 z "},"Ú":{"ha":833,"x_min":140,"x_max":693,"o":"m 418 -14 q 214 63 288 -14 q 140 269 140 140 l 140 1014 l 232 1014 l 232 269 q 280 122 232 175 q 418 68 328 68 q 554 122 507 68 q 601 269 601 175 l 601 1014 l 693 1014 l 693 269 q 620 63 693 139 q 418 -14 547 -14 m 354 1125 l 501 1319 l 604 1319 l 450 1125 l 354 1125 z "},"Ŭ":{"ha":833,"x_min":140,"x_max":693,"o":"m 418 -14 q 214 63 288 -14 q 140 269 140 140 l 140 1014 l 232 1014 l 232 269 q 280 122 232 175 q 418 68 328 68 q 554 122 507 68 q 601 269 601 175 l 601 1014 l 693 1014 l 693 269 q 620 63 693 139 q 418 -14 547 -14 m 417 1121 q 264 1175 321 1121 q 207 1319 207 1229 l 283 1319 q 319 1222 283 1258 q 415 1186 356 1186 q 513 1222 476 1186 q 550 1319 550 1258 l 626 1319 q 569 1175 626 1229 q 417 1121 513 1121 z "},"Û":{"ha":833,"x_min":140,"x_max":693,"o":"m 418 -14 q 214 63 288 -14 q 140 269 140 140 l 140 1014 l 232 1014 l 232 269 q 280 122 232 175 q 418 68 328 68 q 554 122 507 68 q 601 269 601 175 l 601 1014 l 693 1014 l 693 269 q 620 63 693 139 q 418 -14 547 -14 m 192 1125 l 368 1319 l 464 1319 l 642 1125 l 546 1125 l 417 1260 l 290 1125 l 192 1125 z "},"Ü":{"ha":833,"x_min":140,"x_max":693,"o":"m 418 -14 q 214 63 288 -14 q 140 269 140 140 l 140 1014 l 232 1014 l 232 269 q 280 122 232 175 q 418 68 328 68 q 554 122 507 68 q 601 269 601 175 l 601 1014 l 693 1014 l 693 269 q 620 63 693 139 q 418 -14 547 -14 m 569 1142 q 512 1163 533 1142 q 490 1222 490 1185 q 512 1282 490 1260 q 569 1304 533 1304 q 626 1282 606 1304 q 647 1222 647 1260 q 626 1163 647 1185 q 569 1142 606 1142 m 267 1142 q 210 1163 232 1142 q 189 1222 189 1185 q 210 1282 189 1260 q 267 1304 232 1304 q 324 1282 303 1304 q 346 1222 346 1260 q 324 1163 346 1185 q 267 1142 303 1142 z "},"Ụ":{"ha":833,"x_min":140,"x_max":693,"o":"m 418 -14 q 214 63 288 -14 q 140 269 140 140 l 140 1014 l 232 1014 l 232 269 q 280 122 232 175 q 418 68 328 68 q 554 122 507 68 q 601 269 601 175 l 601 1014 l 693 1014 l 693 269 q 620 63 693 139 q 418 -14 547 -14 m 417 -289 q 353 -267 376 -289 q 329 -208 329 -246 q 353 -149 329 -171 q 417 -126 376 -126 q 481 -149 457 -126 q 504 -208 504 -171 q 481 -267 504 -246 q 417 -289 457 -289 z "},"Ù":{"ha":833,"x_min":140,"x_max":693,"o":"m 418 -14 q 214 63 288 -14 q 140 269 140 140 l 140 1014 l 232 1014 l 232 269 q 280 122 232 175 q 418 68 328 68 q 554 122 507 68 q 601 269 601 175 l 601 1014 l 693 1014 l 693 269 q 620 63 693 139 q 418 -14 547 -14 m 385 1125 l 226 1319 l 333 1319 l 483 1125 l 385 1125 z "},"Ủ":{"ha":833,"x_min":140,"x_max":693,"o":"m 418 -14 q 214 63 288 -14 q 140 269 140 140 l 140 1014 l 232 1014 l 232 269 q 280 122 232 175 q 418 68 328 68 q 554 122 507 68 q 601 269 601 175 l 601 1014 l 693 1014 l 693 269 q 620 63 693 139 q 418 -14 547 -14 m 372 1111 l 443 1210 q 465 1257 465 1240 q 417 1292 465 1292 l 301 1292 l 301 1357 l 419 1357 q 508 1332 475 1357 q 542 1267 542 1307 q 517 1193 542 1229 l 460 1111 l 372 1111 z "},"Ư":{"ha":833,"x_min":140,"x_max":815,"o":"m 418 -14 q 214 63 288 -14 q 140 269 140 140 l 140 1014 l 232 1014 l 232 269 q 280 122 232 175 q 418 68 328 68 q 554 122 507 68 q 601 269 601 175 l 601 1014 l 683 1014 q 725 1031 710 1014 q 740 1075 740 1047 l 740 1167 l 815 1167 l 815 1072 q 781 983 815 1017 q 693 949 747 949 l 693 269 q 620 63 693 139 q 418 -14 547 -14 z "},"Ứ":{"ha":833,"x_min":140,"x_max":815,"o":"m 418 -14 q 214 63 288 -14 q 140 269 140 140 l 140 1014 l 232 1014 l 232 269 q 280 122 232 175 q 418 68 328 68 q 554 122 507 68 q 601 269 601 175 l 601 1014 l 683 1014 q 725 1031 710 1014 q 740 1075 740 1047 l 740 1167 l 815 1167 l 815 1072 q 781 983 815 1017 q 693 949 747 949 l 693 269 q 620 63 693 139 q 418 -14 547 -14 m 354 1125 l 501 1319 l 604 1319 l 450 1125 l 354 1125 z "},"Ự":{"ha":833,"x_min":140,"x_max":815,"o":"m 418 -14 q 214 63 288 -14 q 140 269 140 140 l 140 1014 l 232 1014 l 232 269 q 280 122 232 175 q 418 68 328 68 q 554 122 507 68 q 601 269 601 175 l 601 1014 l 683 1014 q 725 1031 710 1014 q 740 1075 740 1047 l 740 1167 l 815 1167 l 815 1072 q 781 983 815 1017 q 693 949 747 949 l 693 269 q 620 63 693 139 q 418 -14 547 -14 m 417 -289 q 353 -267 376 -289 q 329 -208 329 -246 q 353 -149 329 -171 q 417 -126 376 -126 q 481 -149 457 -126 q 504 -208 504 -171 q 481 -267 504 -246 q 417 -289 457 -289 z "},"Ừ":{"ha":833,"x_min":140,"x_max":815,"o":"m 418 -14 q 214 63 288 -14 q 140 269 140 140 l 140 1014 l 232 1014 l 232 269 q 280 122 232 175 q 418 68 328 68 q 554 122 507 68 q 601 269 601 175 l 601 1014 l 683 1014 q 725 1031 710 1014 q 740 1075 740 1047 l 740 1167 l 815 1167 l 815 1072 q 781 983 815 1017 q 693 949 747 949 l 693 269 q 620 63 693 139 q 418 -14 547 -14 m 385 1125 l 226 1319 l 333 1319 l 483 1125 l 385 1125 z "},"Ử":{"ha":833,"x_min":140,"x_max":815,"o":"m 418 -14 q 214 63 288 -14 q 140 269 140 140 l 140 1014 l 232 1014 l 232 269 q 280 122 232 175 q 418 68 328 68 q 554 122 507 68 q 601 269 601 175 l 601 1014 l 683 1014 q 725 1031 710 1014 q 740 1075 740 1047 l 740 1167 l 815 1167 l 815 1072 q 781 983 815 1017 q 693 949 747 949 l 693 269 q 620 63 693 139 q 418 -14 547 -14 m 372 1111 l 443 1210 q 465 1257 465 1240 q 417 1292 465 1292 l 301 1292 l 301 1357 l 419 1357 q 508 1332 475 1357 q 542 1267 542 1307 q 517 1193 542 1229 l 460 1111 l 372 1111 z "},"Ữ":{"ha":833,"x_min":140,"x_max":815,"o":"m 418 -14 q 214 63 288 -14 q 140 269 140 140 l 140 1014 l 232 1014 l 232 269 q 280 122 232 175 q 418 68 328 68 q 554 122 507 68 q 601 269 601 175 l 601 1014 l 683 1014 q 725 1031 710 1014 q 740 1075 740 1047 l 740 1167 l 815 1167 l 815 1072 q 781 983 815 1017 q 693 949 747 949 l 693 269 q 620 63 693 139 q 418 -14 547 -14 m 518 1132 q 451 1149 478 1132 q 405 1190 425 1167 q 366 1230 385 1213 q 322 1247 347 1247 q 280 1231 296 1247 q 264 1185 264 1214 l 264 1139 l 194 1139 l 194 1185 q 228 1278 194 1244 q 319 1313 263 1313 q 386 1295 360 1313 q 433 1255 413 1278 q 472 1215 453 1232 q 515 1197 490 1197 q 569 1260 569 1197 l 569 1306 l 639 1306 l 639 1260 q 606 1166 639 1200 q 518 1132 574 1132 z "},"Ű":{"ha":833,"x_min":140,"x_max":710,"o":"m 418 -14 q 214 63 288 -14 q 140 269 140 140 l 140 1014 l 232 1014 l 232 269 q 280 122 232 175 q 418 68 328 68 q 554 122 507 68 q 601 269 601 175 l 601 1014 l 693 1014 l 693 269 q 620 63 693 139 q 418 -14 547 -14 m 460 1125 l 610 1319 l 710 1319 l 551 1125 l 460 1125 m 228 1125 l 378 1319 l 478 1319 l 319 1125 l 228 1125 z "},"Ū":{"ha":833,"x_min":140,"x_max":693,"o":"m 418 -14 q 214 63 288 -14 q 140 269 140 140 l 140 1014 l 232 1014 l 232 269 q 280 122 232 175 q 418 68 328 68 q 554 122 507 68 q 601 269 601 175 l 601 1014 l 693 1014 l 693 269 q 620 63 693 139 q 418 -14 547 -14 m 211 1178 l 211 1256 l 622 1256 l 622 1178 l 211 1178 z "},"Ų":{"ha":833,"x_min":140,"x_max":693,"o":"m 518 -275 q 415 -243 453 -275 q 376 -157 376 -211 q 457 -11 376 -85 q 437 -13 449 -12 q 417 -14 425 -14 q 215 63 289 -14 q 140 269 140 139 l 140 1014 l 232 1014 l 232 269 q 279 121 232 174 q 417 68 326 68 q 554 121 507 68 q 601 269 601 174 l 601 1014 l 693 1014 l 693 269 q 569 22 693 97 l 546 3 q 483 -72 503 -35 q 463 -137 463 -108 q 482 -188 463 -169 q 536 -207 501 -207 l 622 -207 l 622 -275 l 518 -275 z "},"Ů":{"ha":833,"x_min":140,"x_max":693,"o":"m 418 -14 q 214 63 288 -14 q 140 269 140 140 l 140 1014 l 232 1014 l 232 269 q 280 122 232 175 q 418 68 328 68 q 554 122 507 68 q 601 269 601 175 l 601 1014 l 693 1014 l 693 269 q 620 63 693 139 q 418 -14 547 -14 m 418 1075 q 306 1116 349 1075 q 263 1222 263 1157 q 306 1328 263 1288 q 418 1369 349 1369 q 528 1328 486 1369 q 571 1222 571 1288 q 528 1116 571 1157 q 418 1075 486 1075 m 417 1135 q 480 1158 456 1135 q 504 1222 504 1182 q 480 1287 504 1263 q 417 1311 456 1311 q 353 1287 378 1311 q 329 1222 329 1263 q 353 1158 329 1182 q 417 1135 378 1135 z "},"Ũ":{"ha":833,"x_min":140,"x_max":693,"o":"m 418 -14 q 214 63 288 -14 q 140 269 140 140 l 140 1014 l 232 1014 l 232 269 q 280 122 232 175 q 418 68 328 68 q 554 122 507 68 q 601 269 601 175 l 601 1014 l 693 1014 l 693 269 q 620 63 693 139 q 418 -14 547 -14 m 518 1132 q 451 1149 478 1132 q 405 1190 425 1167 q 366 1230 385 1213 q 322 1247 347 1247 q 280 1231 296 1247 q 264 1185 264 1214 l 264 1139 l 194 1139 l 194 1185 q 228 1278 194 1244 q 319 1313 263 1313 q 386 1295 360 1313 q 433 1255 413 1278 q 472 1215 453 1232 q 515 1197 490 1197 q 569 1260 569 1197 l 569 1306 l 639 1306 l 639 1260 q 606 1166 639 1200 q 518 1132 574 1132 z "},"V":{"ha":833,"x_min":85,"x_max":749,"o":"m 356 0 l 85 1014 l 179 1014 l 372 279 q 401 158 390 214 q 418 72 413 101 q 436 158 424 101 q 465 281 449 215 l 657 1014 l 749 1014 l 478 0 l 356 0 z "},"W":{"ha":833,"x_min":44,"x_max":789,"o":"m 168 0 l 44 1014 l 129 1014 l 217 264 q 228 165 222 224 q 236 65 233 106 q 248 165 242 106 q 260 264 254 224 l 367 1014 l 474 1014 l 575 264 q 587 165 581 224 q 599 65 593 106 q 606 128 601 92 q 614 200 610 164 q 621 264 618 236 l 706 1014 l 789 1014 l 664 0 l 540 0 l 442 747 q 429 854 435 797 q 421 946 424 911 q 410 855 415 911 q 397 747 404 799 l 289 0 l 168 0 z "},"Ẃ":{"ha":833,"x_min":44,"x_max":789,"o":"m 168 0 l 44 1014 l 129 1014 l 217 264 q 228 165 222 224 q 236 65 233 106 q 248 165 242 106 q 260 264 254 224 l 367 1014 l 474 1014 l 575 264 q 587 165 581 224 q 599 65 593 106 q 606 128 601 92 q 614 200 610 164 q 621 264 618 236 l 706 1014 l 789 1014 l 664 0 l 540 0 l 442 747 q 429 854 435 797 q 421 946 424 911 q 410 855 415 911 q 397 747 404 799 l 289 0 l 168 0 m 354 1125 l 501 1319 l 604 1319 l 450 1125 l 354 1125 z "},"Ŵ":{"ha":833,"x_min":44,"x_max":789,"o":"m 168 0 l 44 1014 l 129 1014 l 217 264 q 228 165 222 224 q 236 65 233 106 q 248 165 242 106 q 260 264 254 224 l 367 1014 l 474 1014 l 575 264 q 587 165 581 224 q 599 65 593 106 q 606 128 601 92 q 614 200 610 164 q 621 264 618 236 l 706 1014 l 789 1014 l 664 0 l 540 0 l 442 747 q 429 854 435 797 q 421 946 424 911 q 410 855 415 911 q 397 747 404 799 l 289 0 l 168 0 m 192 1125 l 368 1319 l 464 1319 l 642 1125 l 546 1125 l 417 1260 l 290 1125 l 192 1125 z "},"Ẅ":{"ha":833,"x_min":44,"x_max":789,"o":"m 168 0 l 44 1014 l 129 1014 l 217 264 q 228 165 222 224 q 236 65 233 106 q 248 165 242 106 q 260 264 254 224 l 367 1014 l 474 1014 l 575 264 q 587 165 581 224 q 599 65 593 106 q 606 128 601 92 q 614 200 610 164 q 621 264 618 236 l 706 1014 l 789 1014 l 664 0 l 540 0 l 442 747 q 429 854 435 797 q 421 946 424 911 q 410 855 415 911 q 397 747 404 799 l 289 0 l 168 0 m 569 1142 q 512 1163 533 1142 q 490 1222 490 1185 q 512 1282 490 1260 q 569 1304 533 1304 q 626 1282 606 1304 q 647 1222 647 1260 q 626 1163 647 1185 q 569 1142 606 1142 m 267 1142 q 210 1163 232 1142 q 189 1222 189 1185 q 210 1282 189 1260 q 267 1304 232 1304 q 324 1282 303 1304 q 346 1222 346 1260 q 324 1163 346 1185 q 267 1142 303 1142 z "},"Ẁ":{"ha":833,"x_min":44,"x_max":789,"o":"m 168 0 l 44 1014 l 129 1014 l 217 264 q 228 165 222 224 q 236 65 233 106 q 248 165 242 106 q 260 264 254 224 l 367 1014 l 474 1014 l 575 264 q 587 165 581 224 q 599 65 593 106 q 606 128 601 92 q 614 200 610 164 q 621 264 618 236 l 706 1014 l 789 1014 l 664 0 l 540 0 l 442 747 q 429 854 435 797 q 421 946 424 911 q 410 855 415 911 q 397 747 404 799 l 289 0 l 168 0 m 385 1125 l 226 1319 l 333 1319 l 483 1125 l 385 1125 z "},"X":{"ha":833,"x_min":67,"x_max":767,"o":"m 67 0 l 364 522 l 85 1014 l 189 1014 l 354 708 q 385 651 367 685 q 418 594 404 617 q 449 651 431 617 q 481 708 468 685 l 649 1014 l 749 1014 l 469 528 l 767 0 l 663 0 l 481 339 q 449 396 468 361 q 417 454 431 431 q 385 396 404 431 q 354 339 367 361 l 168 0 l 67 0 z "},"Y":{"ha":833,"x_min":61,"x_max":772,"o":"m 371 0 l 371 385 l 61 1014 l 158 1014 l 375 572 q 401 515 390 540 q 418 476 413 489 q 434 514 424 488 q 461 572 444 540 l 678 1014 l 772 1014 l 463 385 l 463 0 l 371 0 z "},"Ý":{"ha":833,"x_min":61,"x_max":772,"o":"m 371 0 l 371 385 l 61 1014 l 158 1014 l 375 572 q 401 515 390 540 q 418 476 413 489 q 434 514 424 488 q 461 572 444 540 l 678 1014 l 772 1014 l 463 385 l 463 0 l 371 0 m 354 1125 l 501 1319 l 604 1319 l 450 1125 l 354 1125 z "},"Ŷ":{"ha":833,"x_min":61,"x_max":772,"o":"m 371 0 l 371 385 l 61 1014 l 158 1014 l 375 572 q 401 515 390 540 q 418 476 413 489 q 434 514 424 488 q 461 572 444 540 l 678 1014 l 772 1014 l 463 385 l 463 0 l 371 0 m 192 1125 l 368 1319 l 464 1319 l 642 1125 l 546 1125 l 417 1260 l 290 1125 l 192 1125 z "},"Ÿ":{"ha":833,"x_min":61,"x_max":772,"o":"m 371 0 l 371 385 l 61 1014 l 158 1014 l 375 572 q 401 515 390 540 q 418 476 413 489 q 434 514 424 488 q 461 572 444 540 l 678 1014 l 772 1014 l 463 385 l 463 0 l 371 0 m 569 1142 q 512 1163 533 1142 q 490 1222 490 1185 q 512 1282 490 1260 q 569 1304 533 1304 q 626 1282 606 1304 q 647 1222 647 1260 q 626 1163 647 1185 q 569 1142 606 1142 m 267 1142 q 210 1163 232 1142 q 189 1222 189 1185 q 210 1282 189 1260 q 267 1304 232 1304 q 324 1282 303 1304 q 346 1222 346 1260 q 324 1163 346 1185 q 267 1142 303 1142 z "},"Ỵ":{"ha":833,"x_min":61,"x_max":772,"o":"m 371 0 l 371 385 l 61 1014 l 158 1014 l 375 572 q 401 515 390 540 q 418 476 413 489 q 434 514 424 488 q 461 572 444 540 l 678 1014 l 772 1014 l 463 385 l 463 0 l 371 0 m 417 -289 q 353 -267 376 -289 q 329 -208 329 -246 q 353 -149 329 -171 q 417 -126 376 -126 q 481 -149 457 -126 q 504 -208 504 -171 q 481 -267 504 -246 q 417 -289 457 -289 z "},"Ỳ":{"ha":833,"x_min":61,"x_max":772,"o":"m 371 0 l 371 385 l 61 1014 l 158 1014 l 375 572 q 401 515 390 540 q 418 476 413 489 q 434 514 424 488 q 461 572 444 540 l 678 1014 l 772 1014 l 463 385 l 463 0 l 371 0 m 385 1125 l 226 1319 l 333 1319 l 483 1125 l 385 1125 z "},"Ỷ":{"ha":833,"x_min":61,"x_max":772,"o":"m 371 0 l 371 385 l 61 1014 l 158 1014 l 375 572 q 401 515 390 540 q 418 476 413 489 q 434 514 424 488 q 461 572 444 540 l 678 1014 l 772 1014 l 463 385 l 463 0 l 371 0 m 372 1111 l 443 1210 q 465 1257 465 1240 q 417 1292 465 1292 l 301 1292 l 301 1357 l 419 1357 q 508 1332 475 1357 q 542 1267 542 1307 q 517 1193 542 1229 l 460 1111 l 372 1111 z "},"Ȳ":{"ha":833,"x_min":61,"x_max":772,"o":"m 371 0 l 371 385 l 61 1014 l 158 1014 l 375 572 q 401 515 390 540 q 418 476 413 489 q 434 514 424 488 q 461 572 444 540 l 678 1014 l 772 1014 l 463 385 l 463 0 l 371 0 m 211 1178 l 211 1256 l 622 1256 l 622 1178 l 211 1178 z "},"Ỹ":{"ha":833,"x_min":61,"x_max":772,"o":"m 371 0 l 371 385 l 61 1014 l 158 1014 l 375 572 q 401 515 390 540 q 418 476 413 489 q 434 514 424 488 q 461 572 444 540 l 678 1014 l 772 1014 l 463 385 l 463 0 l 371 0 m 518 1132 q 451 1149 478 1132 q 405 1190 425 1167 q 366 1230 385 1213 q 322 1247 347 1247 q 280 1231 296 1247 q 264 1185 264 1214 l 264 1139 l 194 1139 l 194 1185 q 228 1278 194 1244 q 319 1313 263 1313 q 386 1295 360 1313 q 433 1255 413 1278 q 472 1215 453 1232 q 515 1197 490 1197 q 569 1260 569 1197 l 569 1306 l 639 1306 l 639 1260 q 606 1166 639 1200 q 518 1132 574 1132 z "},"Z":{"ha":833,"x_min":122,"x_max":711,"o":"m 122 0 l 122 92 l 604 931 l 128 931 l 128 1014 l 694 1014 l 694 917 l 215 83 l 711 83 l 711 0 l 122 0 z "},"Ź":{"ha":833,"x_min":122,"x_max":711,"o":"m 122 0 l 122 92 l 604 931 l 128 931 l 128 1014 l 694 1014 l 694 917 l 215 83 l 711 83 l 711 0 l 122 0 m 354 1125 l 501 1319 l 604 1319 l 450 1125 l 354 1125 z "},"Ž":{"ha":833,"x_min":122,"x_max":711,"o":"m 122 0 l 122 92 l 604 931 l 128 931 l 128 1014 l 694 1014 l 694 917 l 215 83 l 711 83 l 711 0 l 122 0 m 369 1125 l 192 1319 l 289 1319 l 418 1185 l 546 1319 l 642 1319 l 465 1125 l 369 1125 z "},"Ż":{"ha":833,"x_min":122,"x_max":711,"o":"m 122 0 l 122 92 l 604 931 l 128 931 l 128 1014 l 694 1014 l 694 917 l 215 83 l 711 83 l 711 0 l 122 0 m 417 1140 q 353 1163 376 1140 q 329 1222 329 1185 q 353 1282 329 1260 q 417 1304 376 1304 q 481 1282 457 1304 q 504 1222 504 1260 q 481 1163 504 1185 q 417 1140 457 1140 z "},"a":{"ha":833,"x_min":107,"x_max":690,"o":"m 361 -14 q 175 52 243 -14 q 107 222 107 118 q 174 388 107 324 q 349 451 240 451 l 599 451 l 599 521 q 421 697 599 697 q 290 663 339 697 q 236 569 240 628 l 144 569 q 224 719 150 661 q 421 778 299 778 q 621 711 551 778 q 690 522 690 644 l 690 0 l 600 0 l 600 132 q 517 26 581 65 q 361 -14 454 -14 m 386 65 q 541 115 483 65 q 599 250 599 165 l 599 375 l 353 375 q 242 333 285 375 q 200 228 200 292 q 250 110 200 154 q 386 65 300 65 z "},"á":{"ha":833,"x_min":107,"x_max":690,"o":"m 361 -14 q 175 52 243 -14 q 107 222 107 118 q 174 388 107 324 q 349 451 240 451 l 599 451 l 599 521 q 421 697 599 697 q 290 663 339 697 q 236 569 240 628 l 144 569 q 224 719 150 661 q 421 778 299 778 q 621 711 551 778 q 690 522 690 644 l 690 0 l 600 0 l 600 132 q 517 26 581 65 q 361 -14 454 -14 m 386 65 q 541 115 483 65 q 599 250 599 165 l 599 375 l 353 375 q 242 333 285 375 q 200 228 200 292 q 250 110 200 154 q 386 65 300 65 m 369 896 l 517 1090 l 619 1090 l 465 896 l 369 896 z "},"ă":{"ha":833,"x_min":107,"x_max":690,"o":"m 361 -14 q 175 52 243 -14 q 107 222 107 118 q 174 388 107 324 q 349 451 240 451 l 599 451 l 599 521 q 421 697 599 697 q 290 663 339 697 q 236 569 240 628 l 144 569 q 224 719 150 661 q 421 778 299 778 q 621 711 551 778 q 690 522 690 644 l 690 0 l 600 0 l 600 132 q 517 26 581 65 q 361 -14 454 -14 m 386 65 q 541 115 483 65 q 599 250 599 165 l 599 375 l 353 375 q 242 333 285 375 q 200 228 200 292 q 250 110 200 154 q 386 65 300 65 m 424 892 q 271 946 328 892 q 214 1090 214 1000 l 290 1090 q 326 993 290 1029 q 422 957 363 957 q 520 993 483 957 q 557 1090 557 1029 l 633 1090 q 576 946 633 1000 q 424 892 519 892 z "},"ắ":{"ha":833,"x_min":107,"x_max":690,"o":"m 361 -14 q 175 52 243 -14 q 107 222 107 118 q 174 388 107 324 q 349 451 240 451 l 599 451 l 599 521 q 421 697 599 697 q 290 663 339 697 q 236 569 240 628 l 144 569 q 224 719 150 661 q 421 778 299 778 q 621 711 551 778 q 690 522 690 644 l 690 0 l 600 0 l 600 132 q 517 26 581 65 q 361 -14 454 -14 m 386 65 q 541 115 483 65 q 599 250 599 165 l 599 375 l 353 375 q 242 333 285 375 q 200 228 200 292 q 250 110 200 154 q 386 65 300 65 m 354 1056 l 510 1236 l 613 1236 l 446 1056 l 354 1056 m 424 893 q 265 942 325 893 q 204 1069 204 990 l 281 1069 q 320 990 281 1019 q 424 960 360 960 q 527 990 488 960 q 567 1069 567 1019 l 643 1069 q 583 942 643 990 q 424 893 522 893 z "},"ặ":{"ha":833,"x_min":107,"x_max":690,"o":"m 361 -14 q 175 52 243 -14 q 107 222 107 118 q 174 388 107 324 q 349 451 240 451 l 599 451 l 599 521 q 421 697 599 697 q 290 663 339 697 q 236 569 240 628 l 144 569 q 224 719 150 661 q 421 778 299 778 q 621 711 551 778 q 690 522 690 644 l 690 0 l 600 0 l 600 132 q 517 26 581 65 q 361 -14 454 -14 m 386 65 q 541 115 483 65 q 599 250 599 165 l 599 375 l 353 375 q 242 333 285 375 q 200 228 200 292 q 250 110 200 154 q 386 65 300 65 m 424 -289 q 360 -267 383 -289 q 336 -208 336 -246 q 360 -149 336 -171 q 424 -126 383 -126 q 488 -149 464 -126 q 511 -208 511 -171 q 488 -267 511 -246 q 424 -289 464 -289 m 424 892 q 271 946 328 892 q 214 1090 214 1000 l 290 1090 q 326 993 290 1029 q 422 957 363 957 q 520 993 483 957 q 557 1090 557 1029 l 633 1090 q 576 946 633 1000 q 424 892 519 892 z "},"ằ":{"ha":833,"x_min":107,"x_max":690,"o":"m 361 -14 q 175 52 243 -14 q 107 222 107 118 q 174 388 107 324 q 349 451 240 451 l 599 451 l 599 521 q 421 697 599 697 q 290 663 339 697 q 236 569 240 628 l 144 569 q 224 719 150 661 q 421 778 299 778 q 621 711 551 778 q 690 522 690 644 l 690 0 l 600 0 l 600 132 q 517 26 581 65 q 361 -14 454 -14 m 386 65 q 541 115 483 65 q 599 250 599 165 l 599 375 l 353 375 q 242 333 285 375 q 200 228 200 292 q 250 110 200 154 q 386 65 300 65 m 403 1056 l 236 1236 l 339 1236 l 494 1056 l 403 1056 m 424 893 q 265 942 325 893 q 204 1069 204 990 l 281 1069 q 320 990 281 1019 q 424 960 360 960 q 527 990 488 960 q 567 1069 567 1019 l 643 1069 q 583 942 643 990 q 424 893 522 893 z "},"ẳ":{"ha":833,"x_min":107,"x_max":690,"o":"m 361 -14 q 175 52 243 -14 q 107 222 107 118 q 174 388 107 324 q 349 451 240 451 l 599 451 l 599 521 q 421 697 599 697 q 290 663 339 697 q 236 569 240 628 l 144 569 q 224 719 150 661 q 421 778 299 778 q 621 711 551 778 q 690 522 690 644 l 690 0 l 600 0 l 600 132 q 517 26 581 65 q 361 -14 454 -14 m 386 65 q 541 115 483 65 q 599 250 599 165 l 599 375 l 353 375 q 242 333 285 375 q 200 228 200 292 q 250 110 200 154 q 386 65 300 65 m 372 1056 l 439 1143 q 460 1190 460 1169 q 414 1226 460 1226 l 322 1226 l 322 1289 l 419 1289 q 503 1264 472 1289 q 535 1201 535 1239 q 526 1162 535 1182 q 503 1122 517 1142 l 454 1056 l 372 1056 m 424 893 q 265 942 325 893 q 204 1069 204 990 l 281 1069 q 320 990 281 1019 q 424 960 360 960 q 527 990 488 960 q 567 1069 567 1019 l 643 1069 q 583 942 643 990 q 424 893 522 893 z "},"ẵ":{"ha":833,"x_min":107,"x_max":690,"o":"m 361 -14 q 175 52 243 -14 q 107 222 107 118 q 174 388 107 324 q 349 451 240 451 l 599 451 l 599 521 q 421 697 599 697 q 290 663 339 697 q 236 569 240 628 l 144 569 q 224 719 150 661 q 421 778 299 778 q 621 711 551 778 q 690 522 690 644 l 690 0 l 600 0 l 600 132 q 517 26 581 65 q 361 -14 454 -14 m 386 65 q 541 115 483 65 q 599 250 599 165 l 599 375 l 353 375 q 242 333 285 375 q 200 228 200 292 q 250 110 200 154 q 386 65 300 65 m 518 1131 q 453 1144 478 1131 q 410 1177 428 1158 q 376 1210 393 1196 q 333 1224 358 1224 q 283 1174 283 1224 l 283 1139 l 214 1139 l 214 1171 q 245 1256 214 1225 q 333 1286 276 1286 q 399 1272 374 1286 q 441 1240 424 1258 q 476 1207 458 1221 q 518 1193 493 1193 q 564 1243 564 1193 l 564 1278 l 633 1278 l 633 1246 q 603 1161 633 1192 q 518 1131 572 1131 m 424 896 q 269 944 328 896 q 210 1072 210 993 l 283 1072 q 322 992 283 1022 q 424 963 360 963 q 525 992 486 963 q 564 1072 564 1022 l 638 1072 q 578 944 638 993 q 424 896 519 896 z "},"ǎ":{"ha":833,"x_min":107,"x_max":690,"o":"m 361 -14 q 175 52 243 -14 q 107 222 107 118 q 174 388 107 324 q 349 451 240 451 l 599 451 l 599 521 q 421 697 599 697 q 290 663 339 697 q 236 569 240 628 l 144 569 q 224 719 150 661 q 421 778 299 778 q 621 711 551 778 q 690 522 690 644 l 690 0 l 600 0 l 600 132 q 517 26 581 65 q 361 -14 454 -14 m 386 65 q 541 115 483 65 q 599 250 599 165 l 599 375 l 353 375 q 242 333 285 375 q 200 228 200 292 q 250 110 200 154 q 386 65 300 65 m 376 896 l 199 1090 l 296 1090 l 425 956 l 553 1090 l 649 1090 l 472 896 l 376 896 z "},"â":{"ha":833,"x_min":107,"x_max":690,"o":"m 361 -14 q 175 52 243 -14 q 107 222 107 118 q 174 388 107 324 q 349 451 240 451 l 599 451 l 599 521 q 421 697 599 697 q 290 663 339 697 q 236 569 240 628 l 144 569 q 224 719 150 661 q 421 778 299 778 q 621 711 551 778 q 690 522 690 644 l 690 0 l 600 0 l 600 132 q 517 26 581 65 q 361 -14 454 -14 m 386 65 q 541 115 483 65 q 599 250 599 165 l 599 375 l 353 375 q 242 333 285 375 q 200 228 200 292 q 250 110 200 154 q 386 65 300 65 m 199 896 l 375 1090 l 471 1090 l 649 896 l 553 896 l 424 1031 l 297 896 l 199 896 z "},"ấ":{"ha":833,"x_min":107,"x_max":838,"o":"m 361 -14 q 175 52 243 -14 q 107 222 107 118 q 174 388 107 324 q 349 451 240 451 l 599 451 l 599 521 q 421 697 599 697 q 290 663 339 697 q 236 569 240 628 l 144 569 q 224 719 150 661 q 421 778 299 778 q 621 711 551 778 q 690 522 690 644 l 690 0 l 600 0 l 600 132 q 517 26 581 65 q 361 -14 454 -14 m 386 65 q 541 115 483 65 q 599 250 599 165 l 599 375 l 353 375 q 242 333 285 375 q 200 228 200 292 q 250 110 200 154 q 386 65 300 65 m 572 1056 l 732 1250 l 838 1250 l 667 1056 l 572 1056 m 199 896 l 375 1090 l 472 1090 l 649 896 l 553 896 l 424 1031 l 296 896 l 199 896 z "},"ậ":{"ha":833,"x_min":107,"x_max":690,"o":"m 361 -14 q 175 52 243 -14 q 107 222 107 118 q 174 388 107 324 q 349 451 240 451 l 599 451 l 599 521 q 421 697 599 697 q 290 663 339 697 q 236 569 240 628 l 144 569 q 224 719 150 661 q 421 778 299 778 q 621 711 551 778 q 690 522 690 644 l 690 0 l 600 0 l 600 132 q 517 26 581 65 q 361 -14 454 -14 m 386 65 q 541 115 483 65 q 599 250 599 165 l 599 375 l 353 375 q 242 333 285 375 q 200 228 200 292 q 250 110 200 154 q 386 65 300 65 m 424 -289 q 360 -267 383 -289 q 336 -208 336 -246 q 360 -149 336 -171 q 424 -126 383 -126 q 488 -149 464 -126 q 511 -208 511 -171 q 488 -267 511 -246 q 424 -289 464 -289 m 199 896 l 375 1090 l 471 1090 l 649 896 l 553 896 l 424 1031 l 297 896 l 199 896 z "},"ầ":{"ha":833,"x_min":107,"x_max":731,"o":"m 361 -14 q 175 52 243 -14 q 107 222 107 118 q 174 388 107 324 q 349 451 240 451 l 599 451 l 599 521 q 421 697 599 697 q 290 663 339 697 q 236 569 240 628 l 144 569 q 224 719 150 661 q 421 778 299 778 q 621 711 551 778 q 690 522 690 644 l 690 0 l 600 0 l 600 132 q 517 26 581 65 q 361 -14 454 -14 m 386 65 q 541 115 483 65 q 599 250 599 165 l 599 375 l 353 375 q 242 333 285 375 q 200 228 200 292 q 250 110 200 154 q 386 65 300 65 m 636 1056 l 457 1250 l 563 1250 l 731 1056 l 636 1056 m 199 896 l 375 1090 l 472 1090 l 649 896 l 553 896 l 424 1031 l 296 896 l 199 896 z "},"ẩ":{"ha":833,"x_min":107,"x_max":754,"o":"m 361 -14 q 175 52 243 -14 q 107 222 107 118 q 174 388 107 324 q 349 451 240 451 l 599 451 l 599 521 q 421 697 599 697 q 290 663 339 697 q 236 569 240 628 l 144 569 q 224 719 150 661 q 421 778 299 778 q 621 711 551 778 q 690 522 690 644 l 690 0 l 600 0 l 600 132 q 517 26 581 65 q 361 -14 454 -14 m 386 65 q 541 115 483 65 q 599 250 599 165 l 599 375 l 353 375 q 242 333 285 375 q 200 228 200 292 q 250 110 200 154 q 386 65 300 65 m 593 1056 l 660 1143 q 681 1190 681 1171 q 633 1226 681 1226 l 544 1226 l 544 1289 l 636 1289 q 722 1264 690 1289 q 754 1199 754 1239 q 746 1161 754 1181 q 724 1122 738 1142 l 674 1056 l 593 1056 m 199 896 l 375 1090 l 472 1090 l 649 896 l 553 896 l 424 1031 l 296 896 l 199 896 z "},"ẫ":{"ha":833,"x_min":107,"x_max":690,"o":"m 361 -14 q 175 52 243 -14 q 107 222 107 118 q 174 388 107 324 q 349 451 240 451 l 599 451 l 599 521 q 421 697 599 697 q 290 663 339 697 q 236 569 240 628 l 144 569 q 224 719 150 661 q 421 778 299 778 q 621 711 551 778 q 690 522 690 644 l 690 0 l 600 0 l 600 132 q 517 26 581 65 q 361 -14 454 -14 m 386 65 q 541 115 483 65 q 599 250 599 165 l 599 375 l 353 375 q 242 333 285 375 q 200 228 200 292 q 250 110 200 154 q 386 65 300 65 m 518 1131 q 453 1144 478 1131 q 410 1177 428 1158 q 376 1210 393 1196 q 333 1224 358 1224 q 283 1174 283 1224 l 283 1139 l 214 1139 l 214 1171 q 245 1256 214 1225 q 333 1286 276 1286 q 399 1272 374 1286 q 441 1240 424 1258 q 476 1207 458 1221 q 518 1193 493 1193 q 564 1243 564 1193 l 564 1278 l 633 1278 l 633 1246 q 603 1161 633 1192 q 518 1131 572 1131 m 199 896 l 375 1090 l 472 1090 l 649 896 l 553 896 l 424 1031 l 296 896 l 199 896 z "},"ä":{"ha":833,"x_min":107,"x_max":690,"o":"m 361 -14 q 175 52 243 -14 q 107 222 107 118 q 174 388 107 324 q 349 451 240 451 l 599 451 l 599 521 q 421 697 599 697 q 290 663 339 697 q 236 569 240 628 l 144 569 q 224 719 150 661 q 421 778 299 778 q 621 711 551 778 q 690 522 690 644 l 690 0 l 600 0 l 600 132 q 517 26 581 65 q 361 -14 454 -14 m 386 65 q 541 115 483 65 q 599 250 599 165 l 599 375 l 353 375 q 242 333 285 375 q 200 228 200 292 q 250 110 200 154 q 386 65 300 65 m 575 907 q 517 928 539 907 q 496 988 496 950 q 517 1047 496 1025 q 575 1069 539 1069 q 632 1047 611 1069 q 653 988 653 1025 q 632 928 653 950 q 575 907 611 907 m 272 907 q 216 928 238 907 q 194 988 194 950 q 216 1047 194 1025 q 272 1069 238 1069 q 330 1047 308 1069 q 351 988 351 1025 q 330 928 351 950 q 272 907 308 907 z "},"ạ":{"ha":833,"x_min":107,"x_max":690,"o":"m 361 -14 q 175 52 243 -14 q 107 222 107 118 q 174 388 107 324 q 349 451 240 451 l 599 451 l 599 521 q 421 697 599 697 q 290 663 339 697 q 236 569 240 628 l 144 569 q 224 719 150 661 q 421 778 299 778 q 621 711 551 778 q 690 522 690 644 l 690 0 l 600 0 l 600 132 q 517 26 581 65 q 361 -14 454 -14 m 386 65 q 541 115 483 65 q 599 250 599 165 l 599 375 l 353 375 q 242 333 285 375 q 200 228 200 292 q 250 110 200 154 q 386 65 300 65 m 424 -289 q 360 -267 383 -289 q 336 -208 336 -246 q 360 -149 336 -171 q 424 -126 383 -126 q 488 -149 464 -126 q 511 -208 511 -171 q 488 -267 511 -246 q 424 -289 464 -289 z "},"à":{"ha":833,"x_min":107,"x_max":690,"o":"m 361 -14 q 175 52 243 -14 q 107 222 107 118 q 174 388 107 324 q 349 451 240 451 l 599 451 l 599 521 q 421 697 599 697 q 290 663 339 697 q 236 569 240 628 l 144 569 q 224 719 150 661 q 421 778 299 778 q 621 711 551 778 q 690 522 690 644 l 690 0 l 600 0 l 600 132 q 517 26 581 65 q 361 -14 454 -14 m 386 65 q 541 115 483 65 q 599 250 599 165 l 599 375 l 353 375 q 242 333 285 375 q 200 228 200 292 q 250 110 200 154 q 386 65 300 65 m 392 896 l 233 1090 l 340 1090 l 490 896 l 392 896 z "},"ả":{"ha":833,"x_min":107,"x_max":690,"o":"m 361 -14 q 175 52 243 -14 q 107 222 107 118 q 174 388 107 324 q 349 451 240 451 l 599 451 l 599 521 q 421 697 599 697 q 290 663 339 697 q 236 569 240 628 l 144 569 q 224 719 150 661 q 421 778 299 778 q 621 711 551 778 q 690 522 690 644 l 690 0 l 600 0 l 600 132 q 517 26 581 65 q 361 -14 454 -14 m 386 65 q 541 115 483 65 q 599 250 599 165 l 599 375 l 353 375 q 242 333 285 375 q 200 228 200 292 q 250 110 200 154 q 386 65 300 65 m 379 896 l 453 994 q 475 1042 475 1025 q 426 1076 475 1076 l 308 1076 l 308 1142 l 440 1142 q 521 1117 490 1142 q 551 1051 551 1093 q 526 978 551 1011 l 467 896 l 379 896 z "},"ā":{"ha":833,"x_min":107,"x_max":690,"o":"m 361 -14 q 175 52 243 -14 q 107 222 107 118 q 174 388 107 324 q 349 451 240 451 l 599 451 l 599 521 q 421 697 599 697 q 290 663 339 697 q 236 569 240 628 l 144 569 q 224 719 150 661 q 421 778 299 778 q 621 711 551 778 q 690 522 690 644 l 690 0 l 600 0 l 600 132 q 517 26 581 65 q 361 -14 454 -14 m 386 65 q 541 115 483 65 q 599 250 599 165 l 599 375 l 353 375 q 242 333 285 375 q 200 228 200 292 q 250 110 200 154 q 386 65 300 65 m 218 942 l 218 1019 l 629 1019 l 629 942 l 218 942 z "},"ą":{"ha":833,"x_min":107,"x_max":767,"o":"m 361 -14 q 175 52 243 -14 q 107 222 107 118 q 174 388 107 324 q 349 451 240 451 l 599 451 l 599 521 q 421 697 599 697 q 290 663 339 697 q 236 569 240 628 l 144 569 q 224 719 150 661 q 421 778 299 778 q 621 711 551 778 q 690 522 690 644 l 690 0 l 693 0 q 607 -137 607 -76 q 626 -188 607 -169 q 681 -207 646 -207 l 767 -207 l 767 -275 l 663 -275 q 559 -243 597 -275 q 521 -157 521 -211 q 618 0 521 -76 l 600 0 l 600 132 q 517 26 581 65 q 361 -14 454 -14 m 386 65 q 541 115 483 65 q 599 250 599 165 l 599 375 l 353 375 q 242 333 285 375 q 200 228 200 292 q 250 110 200 154 q 386 65 300 65 z "},"å":{"ha":833,"x_min":107,"x_max":690,"o":"m 361 -14 q 175 52 243 -14 q 107 222 107 118 q 174 388 107 324 q 349 451 240 451 l 599 451 l 599 521 q 421 697 599 697 q 290 663 339 697 q 236 569 240 628 l 144 569 q 224 719 150 661 q 421 778 299 778 q 621 711 551 778 q 690 522 690 644 l 690 0 l 600 0 l 600 132 q 517 26 581 65 q 361 -14 454 -14 m 386 65 q 541 115 483 65 q 599 250 599 165 l 599 375 l 353 375 q 242 333 285 375 q 200 228 200 292 q 250 110 200 154 q 386 65 300 65 m 425 850 q 313 890 356 850 q 269 997 269 931 q 313 1103 269 1063 q 425 1143 356 1143 q 535 1103 493 1143 q 578 997 578 1063 q 535 890 578 931 q 425 850 493 850 m 424 908 q 487 933 463 908 q 511 997 511 957 q 487 1061 511 1036 q 424 1086 463 1086 q 360 1061 385 1086 q 336 997 336 1036 q 360 933 336 957 q 424 908 385 908 z "},"ã":{"ha":833,"x_min":107,"x_max":690,"o":"m 361 -14 q 175 52 243 -14 q 107 222 107 118 q 174 388 107 324 q 349 451 240 451 l 599 451 l 599 521 q 421 697 599 697 q 290 663 339 697 q 236 569 240 628 l 144 569 q 224 719 150 661 q 421 778 299 778 q 621 711 551 778 q 690 522 690 644 l 690 0 l 600 0 l 600 132 q 517 26 581 65 q 361 -14 454 -14 m 386 65 q 541 115 483 65 q 599 250 599 165 l 599 375 l 353 375 q 242 333 285 375 q 200 228 200 292 q 250 110 200 154 q 386 65 300 65 m 525 903 q 458 920 485 903 q 412 960 432 938 q 373 1001 392 983 q 329 1018 354 1018 q 287 1001 303 1018 q 271 956 271 985 l 271 910 l 201 910 l 201 956 q 235 1049 201 1015 q 326 1083 269 1083 q 393 1066 367 1083 q 440 1026 419 1049 q 478 985 460 1003 q 522 968 497 968 q 576 1031 576 968 l 576 1076 l 646 1076 l 646 1031 q 613 937 646 971 q 525 903 581 903 z "},"æ":{"ha":833,"x_min":50,"x_max":782,"o":"m 244 -14 q 104 50 158 -14 q 50 218 50 114 q 103 378 50 317 q 243 440 157 440 l 379 440 l 379 564 q 349 663 379 625 q 269 700 319 700 q 190 665 221 700 q 158 575 158 631 l 75 575 q 126 722 75 665 q 257 778 176 778 q 368 744 322 778 q 421 657 414 711 q 476 744 431 711 q 585 778 522 778 q 726 719 672 778 q 781 564 781 660 l 781 367 l 463 367 l 463 200 q 495 101 463 138 q 582 64 528 64 q 663 99 632 64 q 694 190 694 135 l 782 190 q 728 43 782 100 q 589 -14 674 -14 q 479 20 525 -14 q 421 107 433 54 q 362 20 411 54 q 244 -14 313 -14 m 463 440 l 694 440 l 694 564 q 663 663 694 625 q 578 700 631 700 q 494 663 526 700 q 463 564 463 625 l 463 440 m 258 63 q 346 100 313 63 q 379 200 379 138 l 379 367 l 244 367 q 167 326 196 367 q 138 218 138 285 q 171 105 138 147 q 258 63 204 63 z "},"ǽ":{"ha":833,"x_min":50,"x_max":782,"o":"m 244 -14 q 104 50 158 -14 q 50 218 50 114 q 103 378 50 317 q 243 440 157 440 l 379 440 l 379 564 q 349 663 379 625 q 269 700 319 700 q 190 665 221 700 q 158 575 158 631 l 75 575 q 126 722 75 665 q 257 778 176 778 q 368 744 322 778 q 421 657 414 711 q 476 744 431 711 q 585 778 522 778 q 726 719 672 778 q 781 564 781 660 l 781 367 l 463 367 l 463 200 q 495 101 463 138 q 582 64 528 64 q 663 99 632 64 q 694 190 694 135 l 782 190 q 728 43 782 100 q 589 -14 674 -14 q 479 20 525 -14 q 421 107 433 54 q 362 20 411 54 q 244 -14 313 -14 m 463 440 l 694 440 l 694 564 q 663 663 694 625 q 578 700 631 700 q 494 663 526 700 q 463 564 463 625 l 463 440 m 258 63 q 346 100 313 63 q 379 200 379 138 l 379 367 l 244 367 q 167 326 196 367 q 138 218 138 285 q 171 105 138 147 q 258 63 204 63 m 363 896 l 510 1090 l 613 1090 l 458 896 l 363 896 z "},"b":{"ha":833,"x_min":143,"x_max":697,"o":"m 446 -14 q 309 23 365 -14 q 235 125 253 60 l 235 0 l 143 0 l 143 1014 l 235 1014 l 235 800 l 233 639 q 309 740 253 703 q 446 778 365 778 q 628 701 560 778 q 697 497 697 625 l 697 265 q 628 62 697 138 q 446 -14 560 -14 m 421 65 q 556 116 507 65 q 606 265 606 167 l 606 497 q 556 647 606 596 q 421 699 507 699 q 283 644 332 699 q 235 494 235 590 l 235 268 q 284 119 235 172 q 421 65 333 65 z "},"c":{"ha":833,"x_min":142,"x_max":713,"o":"m 429 -14 q 219 63 297 -14 q 142 269 142 139 l 142 494 q 220 701 142 625 q 429 778 299 778 q 634 706 557 778 q 713 514 711 635 l 621 514 q 568 647 619 600 q 429 694 517 694 q 286 642 339 694 q 233 494 233 590 l 233 269 q 286 122 233 175 q 429 69 339 69 q 568 117 517 69 q 621 250 619 165 l 713 250 q 634 58 711 129 q 429 -14 557 -14 z "},"ć":{"ha":833,"x_min":142,"x_max":713,"o":"m 429 -14 q 219 63 297 -14 q 142 269 142 139 l 142 494 q 220 701 142 625 q 429 778 299 778 q 634 706 557 778 q 713 514 711 635 l 621 514 q 568 647 619 600 q 429 694 517 694 q 286 642 339 694 q 233 494 233 590 l 233 269 q 286 122 233 175 q 429 69 339 69 q 568 117 517 69 q 621 250 619 165 l 713 250 q 634 58 711 129 q 429 -14 557 -14 m 375 896 l 522 1090 l 625 1090 l 471 896 l 375 896 z "},"č":{"ha":833,"x_min":142,"x_max":713,"o":"m 429 -14 q 219 63 297 -14 q 142 269 142 139 l 142 494 q 220 701 142 625 q 429 778 299 778 q 634 706 557 778 q 713 514 711 635 l 621 514 q 568 647 619 600 q 429 694 517 694 q 286 642 339 694 q 233 494 233 590 l 233 269 q 286 122 233 175 q 429 69 339 69 q 568 117 517 69 q 621 250 619 165 l 713 250 q 634 58 711 129 q 429 -14 557 -14 m 382 896 l 204 1090 l 301 1090 l 431 956 l 558 1090 l 654 1090 l 478 896 l 382 896 z "},"ç":{"ha":833,"x_min":142,"x_max":713,"o":"m 293 -275 l 293 -215 l 399 -215 q 451 -199 431 -215 q 471 -161 471 -182 q 428 -111 471 -131 q 314 -92 386 -92 l 347 -6 q 197 88 251 17 q 142 269 142 160 l 142 494 q 220 701 142 625 q 429 778 299 778 q 634 706 557 778 q 713 514 711 635 l 621 514 q 568 647 619 600 q 429 694 517 694 q 286 642 339 694 q 233 494 233 590 l 233 269 q 286 122 233 175 q 429 69 339 69 q 568 117 517 69 q 621 250 619 165 l 713 250 q 634 58 711 129 q 429 -14 557 -14 q 411 -14 419 -14 l 399 -47 q 469 -64 432 -51 q 531 -101 506 -76 q 557 -165 557 -126 q 515 -243 557 -211 q 407 -275 474 -275 l 293 -275 z "},"ĉ":{"ha":833,"x_min":142,"x_max":713,"o":"m 429 -14 q 219 63 297 -14 q 142 269 142 139 l 142 494 q 220 701 142 625 q 429 778 299 778 q 634 706 557 778 q 713 514 711 635 l 621 514 q 568 647 619 600 q 429 694 517 694 q 286 642 339 694 q 233 494 233 590 l 233 269 q 286 122 233 175 q 429 69 339 69 q 568 117 517 69 q 621 250 619 165 l 713 250 q 634 58 711 129 q 429 -14 557 -14 m 204 896 l 381 1090 l 476 1090 l 654 896 l 558 896 l 429 1031 l 303 896 l 204 896 z "},"ċ":{"ha":833,"x_min":142,"x_max":713,"o":"m 429 -14 q 219 63 297 -14 q 142 269 142 139 l 142 494 q 220 701 142 625 q 429 778 299 778 q 634 706 557 778 q 713 514 711 635 l 621 514 q 568 647 619 600 q 429 694 517 694 q 286 642 339 694 q 233 494 233 590 l 233 269 q 286 122 233 175 q 429 69 339 69 q 568 117 517 69 q 621 250 619 165 l 713 250 q 634 58 711 129 q 429 -14 557 -14 m 429 907 q 365 928 389 907 q 342 988 342 950 q 365 1047 342 1025 q 429 1069 389 1069 q 493 1047 469 1069 q 517 988 517 1025 q 493 928 517 950 q 429 907 469 907 z "},"d":{"ha":833,"x_min":136,"x_max":690,"o":"m 388 -14 q 205 62 274 -14 q 136 265 136 138 l 136 497 q 205 701 136 625 q 388 778 274 778 q 524 740 468 778 q 600 639 581 703 l 599 800 l 599 1014 l 690 1014 l 690 0 l 599 0 l 599 125 q 524 23 581 60 q 388 -14 468 -14 m 413 65 q 549 119 500 65 q 599 268 599 172 l 599 494 q 550 644 599 590 q 413 699 501 699 q 277 647 326 699 q 228 497 228 596 l 228 265 q 277 116 228 167 q 413 65 326 65 z "},"ð":{"ha":833,"x_min":106,"x_max":728,"o":"m 417 -14 q 253 25 322 -14 q 144 134 183 64 q 106 299 106 204 q 185 522 106 439 q 397 606 264 606 q 483 589 444 606 q 548 547 521 572 q 588 500 575 522 l 599 500 q 565 564 592 518 q 490 676 539 610 l 392 811 l 163 704 l 163 782 l 350 869 l 244 1014 l 358 1014 l 432 907 l 640 1004 l 640 926 l 474 849 l 575 704 q 728 301 728 488 q 689 135 728 207 q 581 25 650 64 q 417 -14 511 -14 m 417 72 q 573 134 514 72 q 632 300 632 196 q 572 463 632 400 q 417 525 511 525 q 260 463 318 525 q 201 299 201 401 q 260 134 201 196 q 417 72 318 72 z "},"ď":{"ha":833,"x_min":110,"x_max":833,"o":"m 344 -14 q 174 61 238 -14 q 110 263 110 136 l 110 500 q 174 703 110 628 q 344 778 238 778 q 471 742 421 778 q 539 643 521 706 l 540 643 l 539 800 l 539 1014 l 631 1014 l 631 0 l 539 0 l 539 121 l 539 121 q 471 22 521 58 q 344 -14 421 -14 m 714 764 l 743 1014 l 833 1014 l 790 764 l 714 764 m 369 65 q 494 119 449 65 q 539 265 539 172 l 539 497 q 494 644 539 590 q 369 699 449 699 q 247 644 292 699 q 201 497 201 590 l 201 265 q 247 119 201 172 q 369 65 292 65 z "},"đ":{"ha":833,"x_min":138,"x_max":825,"o":"m 388 -14 q 206 62 274 -14 q 138 265 138 138 l 138 414 q 206 618 138 542 q 388 694 274 694 q 522 658 467 694 q 596 560 576 622 l 599 560 l 597 717 l 597 806 l 356 806 l 356 885 l 597 885 l 597 1014 l 689 1014 l 689 885 l 825 885 l 825 806 l 689 806 l 689 0 l 597 0 l 597 121 l 597 121 q 522 22 578 58 q 388 -14 467 -14 m 413 65 q 549 119 500 65 q 597 268 597 172 l 597 411 q 549 561 597 507 q 413 615 501 615 q 278 562 326 615 q 229 411 229 508 l 229 268 q 278 119 229 172 q 413 65 326 65 z "},"e":{"ha":833,"x_min":135,"x_max":699,"o":"m 418 -14 q 210 64 286 -14 q 135 275 135 142 l 135 489 q 211 700 135 622 q 418 778 288 778 q 623 701 547 778 q 699 494 699 624 l 699 361 l 225 361 l 225 269 q 276 122 225 176 q 418 67 326 67 q 542 99 492 67 q 601 190 592 132 l 693 190 q 605 41 679 96 q 418 -14 531 -14 m 225 436 l 608 436 l 608 494 q 558 645 608 590 q 418 700 508 700 q 275 646 325 700 q 225 494 225 592 l 225 436 z "},"é":{"ha":833,"x_min":135,"x_max":699,"o":"m 418 -14 q 210 64 286 -14 q 135 275 135 142 l 135 489 q 211 700 135 622 q 418 778 288 778 q 623 701 547 778 q 699 494 699 624 l 699 361 l 225 361 l 225 269 q 276 122 225 176 q 418 67 326 67 q 542 99 492 67 q 601 190 592 132 l 693 190 q 605 41 679 96 q 418 -14 531 -14 m 225 436 l 608 436 l 608 494 q 558 645 608 590 q 418 700 508 700 q 275 646 325 700 q 225 494 225 592 l 225 436 m 363 896 l 510 1090 l 613 1090 l 458 896 l 363 896 z "},"ĕ":{"ha":833,"x_min":135,"x_max":699,"o":"m 418 -14 q 210 64 286 -14 q 135 275 135 142 l 135 489 q 211 700 135 622 q 418 778 288 778 q 623 701 547 778 q 699 494 699 624 l 699 361 l 225 361 l 225 269 q 276 122 225 176 q 418 67 326 67 q 542 99 492 67 q 601 190 592 132 l 693 190 q 605 41 679 96 q 418 -14 531 -14 m 225 436 l 608 436 l 608 494 q 558 645 608 590 q 418 700 508 700 q 275 646 325 700 q 225 494 225 592 l 225 436 m 417 892 q 264 946 321 892 q 207 1090 207 1000 l 283 1090 q 319 993 283 1029 q 415 957 356 957 q 513 993 476 957 q 550 1090 550 1029 l 626 1090 q 569 946 626 1000 q 417 892 513 892 z "},"ě":{"ha":833,"x_min":135,"x_max":699,"o":"m 418 -14 q 210 64 286 -14 q 135 275 135 142 l 135 489 q 211 700 135 622 q 418 778 288 778 q 623 701 547 778 q 699 494 699 624 l 699 361 l 225 361 l 225 269 q 276 122 225 176 q 418 67 326 67 q 542 99 492 67 q 601 190 592 132 l 693 190 q 605 41 679 96 q 418 -14 531 -14 m 225 436 l 608 436 l 608 494 q 558 645 608 590 q 418 700 508 700 q 275 646 325 700 q 225 494 225 592 l 225 436 m 369 896 l 192 1090 l 289 1090 l 418 956 l 546 1090 l 642 1090 l 465 896 l 369 896 z "},"ê":{"ha":833,"x_min":135,"x_max":699,"o":"m 418 -14 q 210 64 286 -14 q 135 275 135 142 l 135 489 q 211 700 135 622 q 418 778 288 778 q 623 701 547 778 q 699 494 699 624 l 699 361 l 225 361 l 225 269 q 276 122 225 176 q 418 67 326 67 q 542 99 492 67 q 601 190 592 132 l 693 190 q 605 41 679 96 q 418 -14 531 -14 m 225 436 l 608 436 l 608 494 q 558 645 608 590 q 418 700 508 700 q 275 646 325 700 q 225 494 225 592 l 225 436 m 192 896 l 368 1090 l 464 1090 l 642 896 l 546 896 l 417 1031 l 290 896 l 192 896 z "},"ế":{"ha":833,"x_min":135,"x_max":831,"o":"m 418 -14 q 210 64 286 -14 q 135 275 135 142 l 135 489 q 211 700 135 622 q 418 778 288 778 q 623 701 547 778 q 699 494 699 624 l 699 361 l 225 361 l 225 269 q 276 122 225 176 q 418 67 326 67 q 542 99 492 67 q 601 190 592 132 l 693 190 q 605 41 679 96 q 418 -14 531 -14 m 225 436 l 608 436 l 608 494 q 558 645 608 590 q 418 700 508 700 q 275 646 325 700 q 225 494 225 592 l 225 436 m 565 1056 l 725 1250 l 831 1250 l 660 1056 l 565 1056 m 192 896 l 368 1090 l 465 1090 l 642 896 l 546 896 l 417 1031 l 289 896 l 192 896 z "},"ệ":{"ha":833,"x_min":135,"x_max":699,"o":"m 418 -14 q 210 64 286 -14 q 135 275 135 142 l 135 489 q 211 700 135 622 q 418 778 288 778 q 623 701 547 778 q 699 494 699 624 l 699 361 l 225 361 l 225 269 q 276 122 225 176 q 418 67 326 67 q 542 99 492 67 q 601 190 592 132 l 693 190 q 605 41 679 96 q 418 -14 531 -14 m 225 436 l 608 436 l 608 494 q 558 645 608 590 q 418 700 508 700 q 275 646 325 700 q 225 494 225 592 l 225 436 m 417 -289 q 353 -267 376 -289 q 329 -208 329 -246 q 353 -149 329 -171 q 417 -126 376 -126 q 481 -149 457 -126 q 504 -208 504 -171 q 481 -267 504 -246 q 417 -289 457 -289 m 192 896 l 368 1090 l 464 1090 l 642 896 l 546 896 l 417 1031 l 290 896 l 192 896 z "},"ề":{"ha":833,"x_min":135,"x_max":724,"o":"m 418 -14 q 210 64 286 -14 q 135 275 135 142 l 135 489 q 211 700 135 622 q 418 778 288 778 q 623 701 547 778 q 699 494 699 624 l 699 361 l 225 361 l 225 269 q 276 122 225 176 q 418 67 326 67 q 542 99 492 67 q 601 190 592 132 l 693 190 q 605 41 679 96 q 418 -14 531 -14 m 225 436 l 608 436 l 608 494 q 558 645 608 590 q 418 700 508 700 q 275 646 325 700 q 225 494 225 592 l 225 436 m 629 1056 l 450 1250 l 556 1250 l 724 1056 l 629 1056 m 192 896 l 368 1090 l 465 1090 l 642 896 l 546 896 l 417 1031 l 289 896 l 192 896 z "},"ể":{"ha":833,"x_min":135,"x_max":747,"o":"m 418 -14 q 210 64 286 -14 q 135 275 135 142 l 135 489 q 211 700 135 622 q 418 778 288 778 q 623 701 547 778 q 699 494 699 624 l 699 361 l 225 361 l 225 269 q 276 122 225 176 q 418 67 326 67 q 542 99 492 67 q 601 190 592 132 l 693 190 q 605 41 679 96 q 418 -14 531 -14 m 225 436 l 608 436 l 608 494 q 558 645 608 590 q 418 700 508 700 q 275 646 325 700 q 225 494 225 592 l 225 436 m 586 1056 l 653 1143 q 674 1190 674 1171 q 626 1226 674 1226 l 538 1226 l 538 1289 l 629 1289 q 715 1264 683 1289 q 747 1199 747 1239 q 739 1161 747 1181 q 717 1122 731 1142 l 667 1056 l 586 1056 m 192 896 l 368 1090 l 465 1090 l 642 896 l 546 896 l 417 1031 l 289 896 l 192 896 z "},"ễ":{"ha":833,"x_min":135,"x_max":699,"o":"m 418 -14 q 210 64 286 -14 q 135 275 135 142 l 135 489 q 211 700 135 622 q 418 778 288 778 q 623 701 547 778 q 699 494 699 624 l 699 361 l 225 361 l 225 269 q 276 122 225 176 q 418 67 326 67 q 542 99 492 67 q 601 190 592 132 l 693 190 q 605 41 679 96 q 418 -14 531 -14 m 225 436 l 608 436 l 608 494 q 558 645 608 590 q 418 700 508 700 q 275 646 325 700 q 225 494 225 592 l 225 436 m 511 1131 q 446 1144 471 1131 q 403 1177 421 1158 q 369 1210 386 1196 q 326 1224 351 1224 q 276 1174 276 1224 l 276 1139 l 207 1139 l 207 1171 q 238 1256 207 1225 q 326 1286 269 1286 q 392 1272 367 1286 q 434 1240 417 1258 q 469 1207 451 1221 q 511 1193 486 1193 q 557 1243 557 1193 l 557 1278 l 626 1278 l 626 1246 q 596 1161 626 1192 q 511 1131 565 1131 m 192 896 l 368 1090 l 465 1090 l 642 896 l 546 896 l 417 1031 l 289 896 l 192 896 z "},"ë":{"ha":833,"x_min":135,"x_max":699,"o":"m 418 -14 q 210 64 286 -14 q 135 275 135 142 l 135 489 q 211 700 135 622 q 418 778 288 778 q 623 701 547 778 q 699 494 699 624 l 699 361 l 225 361 l 225 269 q 276 122 225 176 q 418 67 326 67 q 542 99 492 67 q 601 190 592 132 l 693 190 q 605 41 679 96 q 418 -14 531 -14 m 225 436 l 608 436 l 608 494 q 558 645 608 590 q 418 700 508 700 q 275 646 325 700 q 225 494 225 592 l 225 436 m 568 907 q 510 928 532 907 q 489 988 489 950 q 510 1047 489 1025 q 568 1069 532 1069 q 625 1047 604 1069 q 646 988 646 1025 q 625 928 646 950 q 568 907 604 907 m 265 907 q 209 928 231 907 q 188 988 188 950 q 209 1047 188 1025 q 265 1069 231 1069 q 323 1047 301 1069 q 344 988 344 1025 q 323 928 344 950 q 265 907 301 907 z "},"ė":{"ha":833,"x_min":135,"x_max":699,"o":"m 418 -14 q 210 64 286 -14 q 135 275 135 142 l 135 489 q 211 700 135 622 q 418 778 288 778 q 623 701 547 778 q 699 494 699 624 l 699 361 l 225 361 l 225 269 q 276 122 225 176 q 418 67 326 67 q 542 99 492 67 q 601 190 592 132 l 693 190 q 605 41 679 96 q 418 -14 531 -14 m 225 436 l 608 436 l 608 494 q 558 645 608 590 q 418 700 508 700 q 275 646 325 700 q 225 494 225 592 l 225 436 m 417 907 q 353 928 376 907 q 329 988 329 950 q 353 1047 329 1025 q 417 1069 376 1069 q 481 1047 457 1069 q 504 988 504 1025 q 481 928 504 950 q 417 907 457 907 z "},"ẹ":{"ha":833,"x_min":135,"x_max":699,"o":"m 418 -14 q 210 64 286 -14 q 135 275 135 142 l 135 489 q 211 700 135 622 q 418 778 288 778 q 623 701 547 778 q 699 494 699 624 l 699 361 l 225 361 l 225 269 q 276 122 225 176 q 418 67 326 67 q 542 99 492 67 q 601 190 592 132 l 693 190 q 605 41 679 96 q 418 -14 531 -14 m 225 436 l 608 436 l 608 494 q 558 645 608 590 q 418 700 508 700 q 275 646 325 700 q 225 494 225 592 l 225 436 m 417 -289 q 353 -267 376 -289 q 329 -208 329 -246 q 353 -149 329 -171 q 417 -126 376 -126 q 481 -149 457 -126 q 504 -208 504 -171 q 481 -267 504 -246 q 417 -289 457 -289 z "},"è":{"ha":833,"x_min":135,"x_max":699,"o":"m 418 -14 q 210 64 286 -14 q 135 275 135 142 l 135 489 q 211 700 135 622 q 418 778 288 778 q 623 701 547 778 q 699 494 699 624 l 699 361 l 225 361 l 225 269 q 276 122 225 176 q 418 67 326 67 q 542 99 492 67 q 601 190 592 132 l 693 190 q 605 41 679 96 q 418 -14 531 -14 m 225 436 l 608 436 l 608 494 q 558 645 608 590 q 418 700 508 700 q 275 646 325 700 q 225 494 225 592 l 225 436 m 385 896 l 226 1090 l 333 1090 l 483 896 l 385 896 z "},"ẻ":{"ha":833,"x_min":135,"x_max":699,"o":"m 418 -14 q 210 64 286 -14 q 135 275 135 142 l 135 489 q 211 700 135 622 q 418 778 288 778 q 623 701 547 778 q 699 494 699 624 l 699 361 l 225 361 l 225 269 q 276 122 225 176 q 418 67 326 67 q 542 99 492 67 q 601 190 592 132 l 693 190 q 605 41 679 96 q 418 -14 531 -14 m 225 436 l 608 436 l 608 494 q 558 645 608 590 q 418 700 508 700 q 275 646 325 700 q 225 494 225 592 l 225 436 m 372 896 l 446 994 q 468 1042 468 1025 q 419 1076 468 1076 l 301 1076 l 301 1142 l 433 1142 q 514 1117 483 1142 q 544 1051 544 1093 q 519 978 544 1011 l 460 896 l 372 896 z "},"ē":{"ha":833,"x_min":135,"x_max":699,"o":"m 418 -14 q 210 64 286 -14 q 135 275 135 142 l 135 489 q 211 700 135 622 q 418 778 288 778 q 623 701 547 778 q 699 494 699 624 l 699 361 l 225 361 l 225 269 q 276 122 225 176 q 418 67 326 67 q 542 99 492 67 q 601 190 592 132 l 693 190 q 605 41 679 96 q 418 -14 531 -14 m 225 436 l 608 436 l 608 494 q 558 645 608 590 q 418 700 508 700 q 275 646 325 700 q 225 494 225 592 l 225 436 m 211 942 l 211 1019 l 622 1019 l 622 942 l 211 942 z "},"ę":{"ha":833,"x_min":136,"x_max":697,"o":"m 521 -275 q 417 -243 456 -275 q 379 -157 379 -211 q 399 -88 379 -125 q 464 -10 419 -51 q 418 -14 440 -14 q 211 63 286 -14 q 136 269 136 140 l 136 494 q 212 701 136 624 q 418 778 288 778 q 622 701 547 778 q 697 494 697 624 l 697 361 l 226 361 l 226 269 q 276 119 226 174 q 418 65 325 65 q 540 98 493 65 q 603 190 588 131 l 694 190 q 583 28 675 83 l 551 0 q 465 -137 465 -76 q 485 -188 465 -169 q 538 -207 504 -207 l 625 -207 l 625 -275 l 521 -275 m 226 435 l 607 435 l 607 494 q 558 645 607 590 q 418 700 510 700 q 276 646 325 700 q 226 494 226 592 l 226 435 z "},"ẽ":{"ha":833,"x_min":135,"x_max":699,"o":"m 418 -14 q 210 64 286 -14 q 135 275 135 142 l 135 489 q 211 700 135 622 q 418 778 288 778 q 623 701 547 778 q 699 494 699 624 l 699 361 l 225 361 l 225 269 q 276 122 225 176 q 418 67 326 67 q 542 99 492 67 q 601 190 592 132 l 693 190 q 605 41 679 96 q 418 -14 531 -14 m 225 436 l 608 436 l 608 494 q 558 645 608 590 q 418 700 508 700 q 275 646 325 700 q 225 494 225 592 l 225 436 m 518 903 q 451 920 478 903 q 405 960 425 938 q 366 1001 385 983 q 322 1018 347 1018 q 280 1001 296 1018 q 264 956 264 985 l 264 910 l 194 910 l 194 956 q 228 1049 194 1015 q 319 1083 263 1083 q 386 1066 360 1083 q 433 1026 413 1049 q 472 985 453 1003 q 515 968 490 968 q 569 1031 569 968 l 569 1076 l 639 1076 l 639 1031 q 606 937 639 971 q 518 903 574 903 z "},"ə":{"ha":833,"x_min":138,"x_max":696,"o":"m 415 -14 q 212 63 286 -14 q 138 269 138 140 l 138 403 l 606 403 l 606 494 q 557 644 606 590 q 415 699 508 699 q 294 666 340 699 q 231 574 247 633 l 139 574 q 230 723 157 668 q 415 778 303 778 q 622 701 547 778 q 696 494 696 624 l 696 269 q 621 63 696 140 q 415 -14 546 -14 m 415 64 q 557 118 508 64 q 606 269 606 172 l 606 329 l 228 329 l 228 269 q 276 119 228 174 q 415 64 324 64 z "},"f":{"ha":833,"x_min":85,"x_max":726,"o":"m 315 0 l 315 576 l 85 576 l 85 658 l 315 658 l 315 832 q 367 965 315 917 q 510 1014 418 1014 l 726 1014 l 726 931 l 510 931 q 433 905 460 931 q 407 832 407 879 l 407 658 l 726 658 l 726 576 l 407 576 l 407 0 l 315 0 z "},"g":{"ha":833,"x_min":136,"x_max":690,"o":"m 235 -250 l 235 -167 l 442 -167 q 558 -127 517 -167 q 599 -12 599 -87 l 599 53 l 600 199 l 599 199 q 528 92 583 131 q 390 54 472 54 q 205 130 274 54 q 136 332 136 206 l 136 497 q 205 701 136 625 q 390 778 274 778 q 528 739 472 778 q 599 632 583 700 l 599 764 l 690 764 l 690 -12 q 625 -188 690 -126 q 440 -250 560 -250 l 235 -250 m 413 132 q 549 185 500 132 q 599 335 599 239 l 599 494 q 550 644 599 590 q 413 699 501 699 q 277 646 326 699 q 228 500 228 593 l 228 329 q 277 185 228 238 q 413 132 326 132 z "},"ǵ":{"ha":833,"x_min":136,"x_max":690,"o":"m 235 -250 l 235 -167 l 442 -167 q 558 -127 517 -167 q 599 -12 599 -87 l 599 53 l 600 199 l 599 199 q 528 92 583 131 q 390 54 472 54 q 205 130 274 54 q 136 332 136 206 l 136 497 q 205 701 136 625 q 390 778 274 778 q 528 739 472 778 q 599 632 583 700 l 599 764 l 690 764 l 690 -12 q 625 -188 690 -126 q 440 -250 560 -250 l 235 -250 m 413 132 q 549 185 500 132 q 599 335 599 239 l 599 494 q 550 644 599 590 q 413 699 501 699 q 277 646 326 699 q 228 500 228 593 l 228 329 q 277 185 228 238 q 413 132 326 132 m 358 896 l 506 1090 l 608 1090 l 454 896 l 358 896 z "},"ğ":{"ha":833,"x_min":136,"x_max":690,"o":"m 235 -250 l 235 -167 l 442 -167 q 558 -127 517 -167 q 599 -12 599 -87 l 599 53 l 600 199 l 599 199 q 528 92 583 131 q 390 54 472 54 q 205 130 274 54 q 136 332 136 206 l 136 497 q 205 701 136 625 q 390 778 274 778 q 528 739 472 778 q 599 632 583 700 l 599 764 l 690 764 l 690 -12 q 625 -188 690 -126 q 440 -250 560 -250 l 235 -250 m 413 132 q 549 185 500 132 q 599 335 599 239 l 599 494 q 550 644 599 590 q 413 699 501 699 q 277 646 326 699 q 228 500 228 593 l 228 329 q 277 185 228 238 q 413 132 326 132 m 413 892 q 260 946 317 892 q 203 1090 203 1000 l 279 1090 q 315 993 279 1029 q 411 957 351 957 q 509 993 472 957 q 546 1090 546 1029 l 622 1090 q 565 946 622 1000 q 413 892 508 892 z "},"ǧ":{"ha":833,"x_min":136,"x_max":690,"o":"m 235 -250 l 235 -167 l 442 -167 q 558 -127 517 -167 q 599 -12 599 -87 l 599 53 l 600 199 l 599 199 q 528 92 583 131 q 390 54 472 54 q 205 130 274 54 q 136 332 136 206 l 136 497 q 205 701 136 625 q 390 778 274 778 q 528 739 472 778 q 599 632 583 700 l 599 764 l 690 764 l 690 -12 q 625 -188 690 -126 q 440 -250 560 -250 l 235 -250 m 413 132 q 549 185 500 132 q 599 335 599 239 l 599 494 q 550 644 599 590 q 413 699 501 699 q 277 646 326 699 q 228 500 228 593 l 228 329 q 277 185 228 238 q 413 132 326 132 m 365 896 l 188 1090 l 285 1090 l 414 956 l 542 1090 l 638 1090 l 461 896 l 365 896 z "},"ĝ":{"ha":833,"x_min":136,"x_max":690,"o":"m 235 -250 l 235 -167 l 442 -167 q 558 -127 517 -167 q 599 -12 599 -87 l 599 53 l 600 199 l 599 199 q 528 92 583 131 q 390 54 472 54 q 205 130 274 54 q 136 332 136 206 l 136 497 q 205 701 136 625 q 390 778 274 778 q 528 739 472 778 q 599 632 583 700 l 599 764 l 690 764 l 690 -12 q 625 -188 690 -126 q 440 -250 560 -250 l 235 -250 m 413 132 q 549 185 500 132 q 599 335 599 239 l 599 494 q 550 644 599 590 q 413 699 501 699 q 277 646 326 699 q 228 500 228 593 l 228 329 q 277 185 228 238 q 413 132 326 132 m 188 896 l 364 1090 l 460 1090 l 638 896 l 542 896 l 413 1031 l 286 896 l 188 896 z "},"ģ":{"ha":833,"x_min":136,"x_max":690,"o":"m 235 -250 l 235 -167 l 442 -167 q 558 -127 517 -167 q 599 -12 599 -87 l 599 53 l 600 199 l 599 199 q 528 92 583 131 q 390 54 472 54 q 205 130 274 54 q 136 332 136 206 l 136 497 q 205 701 136 625 q 390 778 274 778 q 528 739 472 778 q 599 632 583 700 l 599 764 l 690 764 l 690 -12 q 625 -188 690 -126 q 440 -250 560 -250 l 235 -250 m 413 132 q 549 185 500 132 q 599 335 599 239 l 599 494 q 550 644 599 590 q 413 699 501 699 q 277 646 326 699 q 228 500 228 593 l 228 329 q 277 185 228 238 q 413 132 326 132 m 560 1222 l 436 896 l 313 896 l 481 1222 l 560 1222 z "},"ġ":{"ha":833,"x_min":136,"x_max":690,"o":"m 235 -250 l 235 -167 l 442 -167 q 558 -127 517 -167 q 599 -12 599 -87 l 599 53 l 600 199 l 599 199 q 528 92 583 131 q 390 54 472 54 q 205 130 274 54 q 136 332 136 206 l 136 497 q 205 701 136 625 q 390 778 274 778 q 528 739 472 778 q 599 632 583 700 l 599 764 l 690 764 l 690 -12 q 625 -188 690 -126 q 440 -250 560 -250 l 235 -250 m 413 132 q 549 185 500 132 q 599 335 599 239 l 599 494 q 550 644 599 590 q 413 699 501 699 q 277 646 326 699 q 228 500 228 593 l 228 329 q 277 185 228 238 q 413 132 326 132 m 413 907 q 349 928 372 907 q 325 988 325 950 q 349 1047 325 1025 q 413 1069 372 1069 q 476 1047 453 1069 q 500 988 500 1025 q 476 928 500 950 q 413 907 453 907 z "},"h":{"ha":833,"x_min":143,"x_max":693,"o":"m 143 0 l 143 1014 l 235 1014 l 235 631 q 306 739 250 700 q 443 778 361 778 q 625 706 557 778 q 693 511 693 633 l 693 0 l 601 0 l 601 497 q 553 647 601 593 q 421 700 504 700 q 285 645 335 700 q 235 494 235 590 l 235 0 l 143 0 z "},"ħ":{"ha":833,"x_min":7,"x_max":693,"o":"m 7 806 l 7 885 l 143 885 l 143 1014 l 235 1014 l 235 885 l 476 885 l 476 806 l 235 806 l 235 556 l 239 556 q 309 658 256 621 q 443 694 363 694 q 625 622 557 694 q 693 428 693 550 l 693 0 l 601 0 l 601 417 q 553 564 601 511 q 421 617 504 617 q 285 562 335 617 q 235 411 235 507 l 235 0 l 143 0 l 143 806 l 7 806 z "},"ĥ":{"ha":833,"x_min":-36,"x_max":693,"o":"m 143 0 l 143 1014 l 235 1014 l 235 631 q 306 739 250 700 q 443 778 361 778 q 625 706 557 778 q 693 511 693 633 l 693 0 l 601 0 l 601 497 q 553 647 601 593 q 421 700 504 700 q 285 645 335 700 q 235 494 235 590 l 235 0 l 143 0 m -36 1146 l 140 1340 l 236 1340 l 414 1146 l 318 1146 l 189 1281 l 63 1146 l -36 1146 z "},"i":{"ha":833,"x_min":126,"x_max":754,"o":"m 126 0 l 126 83 l 403 83 l 403 681 l 158 681 l 158 764 l 494 764 l 494 83 l 754 83 l 754 0 l 126 0 m 438 907 q 374 928 397 907 q 350 988 350 950 q 374 1047 350 1025 q 438 1069 397 1069 q 501 1047 478 1069 q 525 988 525 1025 q 501 928 525 950 q 438 907 478 907 z "},"ı":{"ha":833,"x_min":126,"x_max":754,"o":"m 126 0 l 126 83 l 403 83 l 403 681 l 158 681 l 158 764 l 494 764 l 494 83 l 754 83 l 754 0 l 126 0 z "},"í":{"ha":833,"x_min":126,"x_max":754,"o":"m 126 0 l 126 83 l 403 83 l 403 681 l 158 681 l 158 764 l 494 764 l 494 83 l 754 83 l 754 0 l 126 0 m 383 896 l 531 1090 l 633 1090 l 479 896 l 383 896 z "},"ĭ":{"ha":833,"x_min":126,"x_max":754,"o":"m 126 0 l 126 83 l 403 83 l 403 681 l 158 681 l 158 764 l 494 764 l 494 83 l 754 83 l 754 0 l 126 0 m 438 892 q 285 946 342 892 q 228 1090 228 1000 l 304 1090 q 340 993 304 1029 q 436 957 376 957 q 534 993 497 957 q 571 1090 571 1029 l 647 1090 q 590 946 647 1000 q 438 892 533 892 z "},"ǐ":{"ha":833,"x_min":126,"x_max":754,"o":"m 126 0 l 126 83 l 403 83 l 403 681 l 158 681 l 158 764 l 494 764 l 494 83 l 754 83 l 754 0 l 126 0 m 390 896 l 213 1090 l 310 1090 l 439 956 l 567 1090 l 663 1090 l 486 896 l 390 896 z "},"î":{"ha":833,"x_min":126,"x_max":754,"o":"m 126 0 l 126 83 l 403 83 l 403 681 l 158 681 l 158 764 l 494 764 l 494 83 l 754 83 l 754 0 l 126 0 m 213 896 l 389 1090 l 485 1090 l 663 896 l 567 896 l 438 1031 l 311 896 l 213 896 z "},"ï":{"ha":833,"x_min":126,"x_max":754,"o":"m 126 0 l 126 83 l 403 83 l 403 681 l 158 681 l 158 764 l 494 764 l 494 83 l 754 83 l 754 0 l 126 0 m 589 907 q 531 928 553 907 q 510 988 510 950 q 531 1047 510 1025 q 589 1069 553 1069 q 646 1047 625 1069 q 667 988 667 1025 q 646 928 667 950 q 589 907 625 907 m 286 907 q 230 928 251 907 q 208 988 208 950 q 230 1047 208 1025 q 286 1069 251 1069 q 344 1047 322 1069 q 365 988 365 1025 q 344 928 365 950 q 286 907 322 907 z "},"ị":{"ha":833,"x_min":126,"x_max":754,"o":"m 126 0 l 126 83 l 403 83 l 403 681 l 158 681 l 158 764 l 494 764 l 494 83 l 754 83 l 754 0 l 126 0 m 438 907 q 374 928 397 907 q 350 988 350 950 q 374 1047 350 1025 q 438 1069 397 1069 q 501 1047 478 1069 q 525 988 525 1025 q 501 928 525 950 q 438 907 478 907 m 438 -289 q 374 -267 397 -289 q 350 -208 350 -246 q 374 -149 350 -171 q 438 -126 397 -126 q 501 -149 478 -126 q 525 -208 525 -171 q 501 -267 525 -246 q 438 -289 478 -289 z "},"ì":{"ha":833,"x_min":126,"x_max":754,"o":"m 126 0 l 126 83 l 403 83 l 403 681 l 158 681 l 158 764 l 494 764 l 494 83 l 754 83 l 754 0 l 126 0 m 406 896 l 247 1090 l 354 1090 l 504 896 l 406 896 z "},"ỉ":{"ha":833,"x_min":126,"x_max":754,"o":"m 126 0 l 126 83 l 403 83 l 403 681 l 158 681 l 158 764 l 494 764 l 494 83 l 754 83 l 754 0 l 126 0 m 393 896 l 467 994 q 489 1042 489 1025 q 440 1076 489 1076 l 322 1076 l 322 1142 l 454 1142 q 535 1117 504 1142 q 565 1051 565 1093 q 540 978 565 1011 l 481 896 l 393 896 z "},"ī":{"ha":833,"x_min":126,"x_max":754,"o":"m 126 0 l 126 83 l 403 83 l 403 681 l 158 681 l 158 764 l 494 764 l 494 83 l 754 83 l 754 0 l 126 0 m 232 942 l 232 1019 l 643 1019 l 643 942 l 232 942 z "},"į":{"ha":833,"x_min":126,"x_max":754,"o":"m 438 907 q 374 928 397 907 q 350 988 350 950 q 374 1047 350 1025 q 438 1069 397 1069 q 501 1047 478 1069 q 525 988 525 1025 q 501 928 525 950 q 438 907 478 907 m 126 0 l 126 83 l 403 83 l 403 681 l 158 681 l 158 764 l 494 764 l 494 83 l 754 83 l 754 0 l 474 0 q 388 -137 388 -76 q 407 -188 388 -169 q 461 -207 426 -207 l 547 -207 l 547 -275 l 443 -275 q 340 -243 378 -275 q 301 -157 301 -211 q 399 0 301 -76 l 126 0 z "},"ĩ":{"ha":833,"x_min":126,"x_max":754,"o":"m 126 0 l 126 83 l 403 83 l 403 681 l 158 681 l 158 764 l 494 764 l 494 83 l 754 83 l 754 0 l 126 0 m 539 903 q 472 920 499 903 q 426 960 446 938 q 387 1001 406 983 q 343 1018 368 1018 q 301 1001 317 1018 q 285 956 285 985 l 285 910 l 215 910 l 215 956 q 249 1049 215 1015 q 340 1083 283 1083 q 407 1066 381 1083 q 453 1026 433 1049 q 492 985 474 1003 q 536 968 511 968 q 590 1031 590 968 l 590 1076 l 660 1076 l 660 1031 q 627 937 660 971 q 539 903 594 903 z "},"j":{"ha":833,"x_min":135,"x_max":615,"o":"m 142 -250 l 142 -167 l 307 -167 q 450 -117 400 -167 q 500 25 500 -67 l 500 681 l 135 681 l 135 764 l 592 764 l 592 25 q 516 -176 592 -103 q 307 -250 440 -250 l 142 -250 m 528 907 q 464 928 488 907 q 440 988 440 950 q 464 1047 440 1025 q 528 1069 488 1069 q 592 1047 568 1069 q 615 988 615 1025 q 592 928 615 950 q 528 907 568 907 z "},"ȷ":{"ha":833,"x_min":135,"x_max":592,"o":"m 142 -250 l 142 -167 l 307 -167 q 450 -117 400 -167 q 500 25 500 -67 l 500 681 l 135 681 l 135 764 l 592 764 l 592 25 q 516 -176 592 -103 q 307 -250 440 -250 l 142 -250 z "},"ĵ":{"ha":833,"x_min":135,"x_max":753,"o":"m 142 -250 l 142 -167 l 307 -167 q 450 -117 400 -167 q 500 25 500 -67 l 500 681 l 135 681 l 135 764 l 592 764 l 592 25 q 516 -176 592 -103 q 307 -250 440 -250 l 142 -250 m 303 896 l 479 1090 l 575 1090 l 753 896 l 657 896 l 528 1031 l 401 896 l 303 896 z "},"k":{"ha":833,"x_min":150,"x_max":754,"o":"m 150 0 l 150 1014 l 242 1014 l 242 438 l 407 438 l 635 764 l 740 764 l 489 400 l 754 0 l 647 0 l 410 356 l 242 356 l 242 0 l 150 0 z "},"ķ":{"ha":833,"x_min":150,"x_max":754,"o":"m 150 0 l 150 1014 l 242 1014 l 242 438 l 407 438 l 635 764 l 740 764 l 489 400 l 754 0 l 647 0 l 410 356 l 242 356 l 242 0 l 150 0 m 285 -333 l 413 -132 l 525 -132 l 379 -333 l 285 -333 z "},"ĸ":{"ha":833,"x_min":153,"x_max":758,"o":"m 153 0 l 153 764 l 244 764 l 244 438 l 414 438 l 638 764 l 744 764 l 496 400 l 758 0 l 650 0 l 415 354 l 244 354 l 244 0 l 153 0 z "},"l":{"ha":833,"x_min":58,"x_max":756,"o":"m 519 0 q 368 53 422 0 q 314 199 314 106 l 314 931 l 58 931 l 58 1014 l 406 1014 l 406 199 q 435 113 406 143 q 519 83 465 83 l 756 83 l 756 0 l 519 0 z "},"ĺ":{"ha":833,"x_min":58,"x_max":756,"o":"m 519 0 q 368 53 422 0 q 314 199 314 106 l 314 931 l 58 931 l 58 1014 l 406 1014 l 406 199 q 435 113 406 143 q 519 83 465 83 l 756 83 l 756 0 l 519 0 m 263 1125 l 410 1319 l 513 1319 l 358 1125 l 263 1125 z "},"ƛ":{"ha":833,"x_min":85,"x_max":749,"o":"m 85 0 l 378 750 l 360 797 l 125 679 l 125 764 l 332 867 l 274 1014 l 375 1014 l 414 908 l 653 1028 l 653 943 l 440 838 l 749 0 l 650 0 l 471 496 q 441 588 454 543 q 419 658 428 633 q 401 588 414 633 q 371 496 388 543 l 186 0 l 85 0 z "},"ľ":{"ha":833,"x_min":58,"x_max":756,"o":"m 519 0 q 368 53 422 0 q 314 199 314 106 l 314 931 l 58 931 l 58 1014 l 406 1014 l 406 199 q 435 113 406 143 q 519 83 465 83 l 756 83 l 756 0 l 519 0 m 569 764 l 599 1014 l 689 1014 l 646 764 l 569 764 z "},"ļ":{"ha":833,"x_min":58,"x_max":756,"o":"m 519 0 q 368 53 422 0 q 314 199 314 106 l 314 931 l 58 931 l 58 1014 l 406 1014 l 406 199 q 435 113 406 143 q 519 83 465 83 l 756 83 l 756 0 l 519 0 m 313 -333 l 440 -132 l 553 -132 l 407 -333 l 313 -333 z "},"ŀ":{"ha":833,"x_min":31,"x_max":871,"o":"m 492 0 q 340 53 394 0 q 286 199 286 106 l 286 931 l 31 931 l 31 1014 l 378 1014 l 378 199 q 408 113 378 143 q 492 83 438 83 l 728 83 l 728 0 l 492 0 m 764 368 q 687 398 717 368 q 657 475 657 428 q 687 552 657 522 q 764 582 717 582 q 841 552 811 582 q 871 475 871 522 q 841 398 871 428 q 764 368 811 368 z "},"ł":{"ha":833,"x_min":58,"x_max":756,"o":"m 139 328 l 139 418 l 314 538 l 314 931 l 58 931 l 58 1014 l 406 1014 l 406 600 l 653 769 l 653 679 l 406 510 l 406 199 q 435 113 406 143 q 519 83 465 83 l 756 83 l 756 0 l 519 0 q 368 53 422 0 q 314 199 314 106 l 314 447 l 139 328 z "},"m":{"ha":833,"x_min":96,"x_max":738,"o":"m 96 0 l 96 764 l 176 764 l 176 661 l 179 661 q 219 747 185 715 q 308 778 254 778 q 398 747 361 778 q 449 665 435 717 q 491 748 456 718 q 582 778 526 778 q 695 727 653 778 q 738 592 738 676 l 738 0 l 650 0 l 650 588 q 624 672 650 640 q 554 704 599 704 q 483 673 510 704 q 457 588 457 642 l 457 0 l 376 0 l 376 588 q 351 672 376 640 q 281 704 325 704 q 210 673 236 704 q 183 588 183 642 l 183 0 l 96 0 z "},"n":{"ha":833,"x_min":143,"x_max":693,"o":"m 143 0 l 143 764 l 235 764 l 235 632 q 306 739 251 700 q 443 778 360 778 q 625 706 557 778 q 693 511 693 633 l 693 0 l 601 0 l 601 497 q 553 647 601 593 q 421 700 504 700 q 285 645 335 700 q 235 494 235 590 l 235 0 l 143 0 z "},"ń":{"ha":833,"x_min":143,"x_max":693,"o":"m 143 0 l 143 764 l 235 764 l 235 632 q 306 739 251 700 q 443 778 360 778 q 625 706 557 778 q 693 511 693 633 l 693 0 l 601 0 l 601 497 q 553 647 601 593 q 421 700 504 700 q 285 645 335 700 q 235 494 235 590 l 235 0 l 143 0 m 369 896 l 517 1090 l 619 1090 l 465 896 l 369 896 z "},"ŉ":{"ha":833,"x_min":7,"x_max":693,"o":"m 143 0 l 143 764 l 235 764 l 235 632 q 306 739 251 700 q 443 778 360 778 q 625 706 557 778 q 693 511 693 633 l 693 0 l 601 0 l 601 497 q 553 647 601 593 q 421 700 504 700 q 285 645 335 700 q 235 494 235 590 l 235 0 l 143 0 m 7 896 l 135 1097 l 247 1097 l 101 896 l 7 896 z "},"ň":{"ha":833,"x_min":143,"x_max":693,"o":"m 143 0 l 143 764 l 235 764 l 235 632 q 306 739 251 700 q 443 778 360 778 q 625 706 557 778 q 693 511 693 633 l 693 0 l 601 0 l 601 497 q 553 647 601 593 q 421 700 504 700 q 285 645 335 700 q 235 494 235 590 l 235 0 l 143 0 m 376 896 l 199 1090 l 296 1090 l 425 956 l 553 1090 l 649 1090 l 472 896 l 376 896 z "},"ņ":{"ha":833,"x_min":143,"x_max":693,"o":"m 143 0 l 143 764 l 235 764 l 235 632 q 306 739 251 700 q 443 778 360 778 q 625 706 557 778 q 693 511 693 633 l 693 0 l 601 0 l 601 497 q 553 647 601 593 q 421 700 504 700 q 285 645 335 700 q 235 494 235 590 l 235 0 l 143 0 m 285 -333 l 413 -132 l 525 -132 l 379 -333 l 285 -333 z "},"ŋ":{"ha":833,"x_min":144,"x_max":692,"o":"m 338 -250 l 338 -167 l 407 -167 q 548 -117 496 -167 q 600 21 600 -67 l 600 500 q 552 647 600 594 q 421 700 504 700 q 285 645 335 700 q 236 494 236 590 l 236 0 l 144 0 l 144 764 l 236 764 l 236 628 q 306 738 251 699 q 443 778 360 778 q 624 706 557 778 q 692 511 692 633 l 692 21 q 614 -176 692 -103 q 407 -250 536 -250 l 338 -250 z "},"ñ":{"ha":833,"x_min":143,"x_max":693,"o":"m 143 0 l 143 764 l 235 764 l 235 632 q 306 739 251 700 q 443 778 360 778 q 625 706 557 778 q 693 511 693 633 l 693 0 l 601 0 l 601 497 q 553 647 601 593 q 421 700 504 700 q 285 645 335 700 q 235 494 235 590 l 235 0 l 143 0 m 525 903 q 458 920 485 903 q 412 960 432 938 q 373 1001 392 983 q 329 1018 354 1018 q 287 1001 303 1018 q 271 956 271 985 l 271 910 l 201 910 l 201 956 q 235 1049 201 1015 q 326 1083 269 1083 q 393 1066 367 1083 q 440 1026 419 1049 q 478 985 460 1003 q 522 968 497 968 q 576 1031 576 968 l 576 1076 l 646 1076 l 646 1031 q 613 937 646 971 q 525 903 581 903 z "},"o":{"ha":833,"x_min":135,"x_max":699,"o":"m 417 -12 q 211 65 288 -12 q 135 276 135 142 l 135 488 q 211 699 135 622 q 417 776 288 776 q 622 699 546 776 q 699 488 699 622 l 699 276 q 622 65 699 142 q 417 -12 546 -12 m 417 68 q 557 121 507 68 q 607 271 607 174 l 607 493 q 556 643 607 590 q 417 696 506 696 q 277 643 328 696 q 226 493 226 590 l 226 271 q 276 121 226 174 q 417 68 326 68 z "},"ó":{"ha":833,"x_min":135,"x_max":699,"o":"m 417 -12 q 211 65 288 -12 q 135 276 135 142 l 135 488 q 211 699 135 622 q 417 776 288 776 q 622 699 546 776 q 699 488 699 622 l 699 276 q 622 65 699 142 q 417 -12 546 -12 m 417 68 q 557 121 507 68 q 607 271 607 174 l 607 493 q 556 643 607 590 q 417 696 506 696 q 277 643 328 696 q 226 493 226 590 l 226 271 q 276 121 226 174 q 417 68 326 68 m 363 896 l 510 1090 l 613 1090 l 458 896 l 363 896 z "},"ŏ":{"ha":833,"x_min":135,"x_max":699,"o":"m 417 -12 q 211 65 288 -12 q 135 276 135 142 l 135 488 q 211 699 135 622 q 417 776 288 776 q 622 699 546 776 q 699 488 699 622 l 699 276 q 622 65 699 142 q 417 -12 546 -12 m 417 68 q 557 121 507 68 q 607 271 607 174 l 607 493 q 556 643 607 590 q 417 696 506 696 q 277 643 328 696 q 226 493 226 590 l 226 271 q 276 121 226 174 q 417 68 326 68 m 417 892 q 264 946 321 892 q 207 1090 207 1000 l 283 1090 q 319 993 283 1029 q 415 957 356 957 q 513 993 476 957 q 550 1090 550 1029 l 626 1090 q 569 946 626 1000 q 417 892 513 892 z "},"ǒ":{"ha":833,"x_min":135,"x_max":699,"o":"m 417 -12 q 211 65 288 -12 q 135 276 135 142 l 135 488 q 211 699 135 622 q 417 776 288 776 q 622 699 546 776 q 699 488 699 622 l 699 276 q 622 65 699 142 q 417 -12 546 -12 m 417 68 q 557 121 507 68 q 607 271 607 174 l 607 493 q 556 643 607 590 q 417 696 506 696 q 277 643 328 696 q 226 493 226 590 l 226 271 q 276 121 226 174 q 417 68 326 68 m 369 896 l 192 1090 l 289 1090 l 418 956 l 546 1090 l 642 1090 l 465 896 l 369 896 z "},"ô":{"ha":833,"x_min":135,"x_max":699,"o":"m 417 -12 q 211 65 288 -12 q 135 276 135 142 l 135 488 q 211 699 135 622 q 417 776 288 776 q 622 699 546 776 q 699 488 699 622 l 699 276 q 622 65 699 142 q 417 -12 546 -12 m 417 68 q 557 121 507 68 q 607 271 607 174 l 607 493 q 556 643 607 590 q 417 696 506 696 q 277 643 328 696 q 226 493 226 590 l 226 271 q 276 121 226 174 q 417 68 326 68 m 192 896 l 368 1090 l 464 1090 l 642 896 l 546 896 l 417 1031 l 290 896 l 192 896 z "},"ố":{"ha":833,"x_min":135,"x_max":831,"o":"m 417 -12 q 211 65 288 -12 q 135 276 135 142 l 135 488 q 211 699 135 622 q 417 776 288 776 q 622 699 546 776 q 699 488 699 622 l 699 276 q 622 65 699 142 q 417 -12 546 -12 m 417 68 q 557 121 507 68 q 607 271 607 174 l 607 493 q 556 643 607 590 q 417 696 506 696 q 277 643 328 696 q 226 493 226 590 l 226 271 q 276 121 226 174 q 417 68 326 68 m 565 1056 l 725 1250 l 831 1250 l 660 1056 l 565 1056 m 192 896 l 368 1090 l 465 1090 l 642 896 l 546 896 l 417 1031 l 289 896 l 192 896 z "},"ộ":{"ha":833,"x_min":135,"x_max":699,"o":"m 417 -12 q 211 65 288 -12 q 135 276 135 142 l 135 488 q 211 699 135 622 q 417 776 288 776 q 622 699 546 776 q 699 488 699 622 l 699 276 q 622 65 699 142 q 417 -12 546 -12 m 417 68 q 557 121 507 68 q 607 271 607 174 l 607 493 q 556 643 607 590 q 417 696 506 696 q 277 643 328 696 q 226 493 226 590 l 226 271 q 276 121 226 174 q 417 68 326 68 m 417 -289 q 353 -267 376 -289 q 329 -208 329 -246 q 353 -149 329 -171 q 417 -126 376 -126 q 481 -149 457 -126 q 504 -208 504 -171 q 481 -267 504 -246 q 417 -289 457 -289 m 192 896 l 368 1090 l 464 1090 l 642 896 l 546 896 l 417 1031 l 290 896 l 192 896 z "},"ồ":{"ha":833,"x_min":135,"x_max":724,"o":"m 417 -12 q 211 65 288 -12 q 135 276 135 142 l 135 488 q 211 699 135 622 q 417 776 288 776 q 622 699 546 776 q 699 488 699 622 l 699 276 q 622 65 699 142 q 417 -12 546 -12 m 417 68 q 557 121 507 68 q 607 271 607 174 l 607 493 q 556 643 607 590 q 417 696 506 696 q 277 643 328 696 q 226 493 226 590 l 226 271 q 276 121 226 174 q 417 68 326 68 m 629 1056 l 450 1250 l 556 1250 l 724 1056 l 629 1056 m 192 896 l 368 1090 l 465 1090 l 642 896 l 546 896 l 417 1031 l 289 896 l 192 896 z "},"ổ":{"ha":833,"x_min":135,"x_max":747,"o":"m 417 -12 q 211 65 288 -12 q 135 276 135 142 l 135 488 q 211 699 135 622 q 417 776 288 776 q 622 699 546 776 q 699 488 699 622 l 699 276 q 622 65 699 142 q 417 -12 546 -12 m 417 68 q 557 121 507 68 q 607 271 607 174 l 607 493 q 556 643 607 590 q 417 696 506 696 q 277 643 328 696 q 226 493 226 590 l 226 271 q 276 121 226 174 q 417 68 326 68 m 586 1056 l 653 1143 q 674 1190 674 1171 q 626 1226 674 1226 l 538 1226 l 538 1289 l 629 1289 q 715 1264 683 1289 q 747 1199 747 1239 q 739 1161 747 1181 q 717 1122 731 1142 l 667 1056 l 586 1056 m 192 896 l 368 1090 l 465 1090 l 642 896 l 546 896 l 417 1031 l 289 896 l 192 896 z "},"ỗ":{"ha":833,"x_min":135,"x_max":699,"o":"m 417 -12 q 211 65 288 -12 q 135 276 135 142 l 135 488 q 211 699 135 622 q 417 776 288 776 q 622 699 546 776 q 699 488 699 622 l 699 276 q 622 65 699 142 q 417 -12 546 -12 m 417 68 q 557 121 507 68 q 607 271 607 174 l 607 493 q 556 643 607 590 q 417 696 506 696 q 277 643 328 696 q 226 493 226 590 l 226 271 q 276 121 226 174 q 417 68 326 68 m 511 1131 q 446 1144 471 1131 q 403 1177 421 1158 q 369 1210 386 1196 q 326 1224 351 1224 q 276 1174 276 1224 l 276 1139 l 207 1139 l 207 1171 q 238 1256 207 1225 q 326 1286 269 1286 q 392 1272 367 1286 q 434 1240 417 1258 q 469 1207 451 1221 q 511 1193 486 1193 q 557 1243 557 1193 l 557 1278 l 626 1278 l 626 1246 q 596 1161 626 1192 q 511 1131 565 1131 m 192 896 l 368 1090 l 465 1090 l 642 896 l 546 896 l 417 1031 l 289 896 l 192 896 z "},"ö":{"ha":833,"x_min":135,"x_max":699,"o":"m 417 -12 q 211 65 288 -12 q 135 276 135 142 l 135 488 q 211 699 135 622 q 417 776 288 776 q 622 699 546 776 q 699 488 699 622 l 699 276 q 622 65 699 142 q 417 -12 546 -12 m 417 68 q 557 121 507 68 q 607 271 607 174 l 607 493 q 556 643 607 590 q 417 696 506 696 q 277 643 328 696 q 226 493 226 590 l 226 271 q 276 121 226 174 q 417 68 326 68 m 568 907 q 510 928 532 907 q 489 988 489 950 q 510 1047 489 1025 q 568 1069 532 1069 q 625 1047 604 1069 q 646 988 646 1025 q 625 928 646 950 q 568 907 604 907 m 265 907 q 209 928 231 907 q 188 988 188 950 q 209 1047 188 1025 q 265 1069 231 1069 q 323 1047 301 1069 q 344 988 344 1025 q 323 928 344 950 q 265 907 301 907 z "},"ọ":{"ha":833,"x_min":135,"x_max":699,"o":"m 417 -12 q 211 65 288 -12 q 135 276 135 142 l 135 488 q 211 699 135 622 q 417 776 288 776 q 622 699 546 776 q 699 488 699 622 l 699 276 q 622 65 699 142 q 417 -12 546 -12 m 417 68 q 557 121 507 68 q 607 271 607 174 l 607 493 q 556 643 607 590 q 417 696 506 696 q 277 643 328 696 q 226 493 226 590 l 226 271 q 276 121 226 174 q 417 68 326 68 m 417 -289 q 353 -267 376 -289 q 329 -208 329 -246 q 353 -149 329 -171 q 417 -126 376 -126 q 481 -149 457 -126 q 504 -208 504 -171 q 481 -267 504 -246 q 417 -289 457 -289 z "},"ò":{"ha":833,"x_min":135,"x_max":699,"o":"m 417 -12 q 211 65 288 -12 q 135 276 135 142 l 135 488 q 211 699 135 622 q 417 776 288 776 q 622 699 546 776 q 699 488 699 622 l 699 276 q 622 65 699 142 q 417 -12 546 -12 m 417 68 q 557 121 507 68 q 607 271 607 174 l 607 493 q 556 643 607 590 q 417 696 506 696 q 277 643 328 696 q 226 493 226 590 l 226 271 q 276 121 226 174 q 417 68 326 68 m 385 896 l 226 1090 l 333 1090 l 483 896 l 385 896 z "},"ỏ":{"ha":833,"x_min":135,"x_max":699,"o":"m 417 -12 q 211 65 288 -12 q 135 276 135 142 l 135 488 q 211 699 135 622 q 417 776 288 776 q 622 699 546 776 q 699 488 699 622 l 699 276 q 622 65 699 142 q 417 -12 546 -12 m 417 68 q 557 121 507 68 q 607 271 607 174 l 607 493 q 556 643 607 590 q 417 696 506 696 q 277 643 328 696 q 226 493 226 590 l 226 271 q 276 121 226 174 q 417 68 326 68 m 372 896 l 446 994 q 468 1042 468 1025 q 419 1076 468 1076 l 301 1076 l 301 1142 l 433 1142 q 514 1117 483 1142 q 544 1051 544 1093 q 519 978 544 1011 l 460 896 l 372 896 z "},"ơ":{"ha":833,"x_min":135,"x_max":725,"o":"m 417 -12 q 211 65 288 -12 q 135 276 135 142 l 135 488 q 211 699 135 622 q 417 776 288 776 q 576 736 508 776 l 593 736 q 635 753 619 736 q 650 797 650 769 l 650 889 l 725 889 l 725 794 q 703 719 725 750 q 642 678 681 689 q 699 488 699 603 l 699 276 q 622 65 699 142 q 417 -12 546 -12 m 417 68 q 557 121 507 68 q 607 271 607 174 l 607 493 q 556 643 607 590 q 417 696 506 696 q 277 643 328 696 q 226 493 226 590 l 226 271 q 276 121 226 174 q 417 68 326 68 z "},"ớ":{"ha":833,"x_min":135,"x_max":725,"o":"m 417 -12 q 211 65 288 -12 q 135 276 135 142 l 135 488 q 211 699 135 622 q 417 776 288 776 q 576 736 508 776 l 593 736 q 635 753 619 736 q 650 797 650 769 l 650 889 l 725 889 l 725 794 q 703 719 725 750 q 642 678 681 689 q 699 488 699 603 l 699 276 q 622 65 699 142 q 417 -12 546 -12 m 417 68 q 557 121 507 68 q 607 271 607 174 l 607 493 q 556 643 607 590 q 417 696 506 696 q 277 643 328 696 q 226 493 226 590 l 226 271 q 276 121 226 174 q 417 68 326 68 m 349 896 l 496 1090 l 599 1090 l 444 896 l 349 896 z "},"ợ":{"ha":833,"x_min":135,"x_max":725,"o":"m 417 -12 q 211 65 288 -12 q 135 276 135 142 l 135 488 q 211 699 135 622 q 417 776 288 776 q 576 736 508 776 l 593 736 q 635 753 619 736 q 650 797 650 769 l 650 889 l 725 889 l 725 794 q 703 719 725 750 q 642 678 681 689 q 699 488 699 603 l 699 276 q 622 65 699 142 q 417 -12 546 -12 m 417 68 q 557 121 507 68 q 607 271 607 174 l 607 493 q 556 643 607 590 q 417 696 506 696 q 277 643 328 696 q 226 493 226 590 l 226 271 q 276 121 226 174 q 417 68 326 68 m 417 -289 q 353 -267 376 -289 q 329 -208 329 -246 q 353 -149 329 -171 q 417 -126 376 -126 q 481 -149 457 -126 q 504 -208 504 -171 q 481 -267 504 -246 q 417 -289 457 -289 z "},"ờ":{"ha":833,"x_min":135,"x_max":725,"o":"m 417 -12 q 211 65 288 -12 q 135 276 135 142 l 135 488 q 211 699 135 622 q 417 776 288 776 q 576 736 508 776 l 593 736 q 635 753 619 736 q 650 797 650 769 l 650 889 l 725 889 l 725 794 q 703 719 725 750 q 642 678 681 689 q 699 488 699 603 l 699 276 q 622 65 699 142 q 417 -12 546 -12 m 417 68 q 557 121 507 68 q 607 271 607 174 l 607 493 q 556 643 607 590 q 417 696 506 696 q 277 643 328 696 q 226 493 226 590 l 226 271 q 276 121 226 174 q 417 68 326 68 m 371 896 l 213 1090 l 319 1090 l 469 896 l 371 896 z "},"ở":{"ha":833,"x_min":135,"x_max":725,"o":"m 417 -12 q 211 65 288 -12 q 135 276 135 142 l 135 488 q 211 699 135 622 q 417 776 288 776 q 576 736 508 776 l 593 736 q 635 753 619 736 q 650 797 650 769 l 650 889 l 725 889 l 725 794 q 703 719 725 750 q 642 678 681 689 q 699 488 699 603 l 699 276 q 622 65 699 142 q 417 -12 546 -12 m 417 68 q 557 121 507 68 q 607 271 607 174 l 607 493 q 556 643 607 590 q 417 696 506 696 q 277 643 328 696 q 226 493 226 590 l 226 271 q 276 121 226 174 q 417 68 326 68 m 358 896 l 432 994 q 454 1042 454 1025 q 406 1076 454 1076 l 288 1076 l 288 1142 l 419 1142 q 500 1117 469 1142 q 531 1051 531 1093 q 506 978 531 1011 l 446 896 l 358 896 z "},"ỡ":{"ha":833,"x_min":135,"x_max":725,"o":"m 417 -12 q 211 65 288 -12 q 135 276 135 142 l 135 488 q 211 699 135 622 q 417 776 288 776 q 576 736 508 776 l 593 736 q 635 753 619 736 q 650 797 650 769 l 650 889 l 725 889 l 725 794 q 703 719 725 750 q 642 678 681 689 q 699 488 699 603 l 699 276 q 622 65 699 142 q 417 -12 546 -12 m 417 68 q 557 121 507 68 q 607 271 607 174 l 607 493 q 556 643 607 590 q 417 696 506 696 q 277 643 328 696 q 226 493 226 590 l 226 271 q 276 121 226 174 q 417 68 326 68 m 504 903 q 438 920 464 903 q 391 960 411 938 q 352 1001 371 983 q 308 1018 333 1018 q 266 1001 282 1018 q 250 956 250 985 l 250 910 l 181 910 l 181 956 q 215 1049 181 1015 q 306 1083 249 1083 q 372 1066 346 1083 q 419 1026 399 1049 q 458 985 439 1003 q 501 968 476 968 q 556 1031 556 968 l 556 1076 l 625 1076 l 625 1031 q 592 937 625 971 q 504 903 560 903 z "},"ő":{"ha":833,"x_min":135,"x_max":710,"o":"m 417 -12 q 211 65 288 -12 q 135 276 135 142 l 135 488 q 211 699 135 622 q 417 776 288 776 q 622 699 546 776 q 699 488 699 622 l 699 276 q 622 65 699 142 q 417 -12 546 -12 m 417 68 q 557 121 507 68 q 607 271 607 174 l 607 493 q 556 643 607 590 q 417 696 506 696 q 277 643 328 696 q 226 493 226 590 l 226 271 q 276 121 226 174 q 417 68 326 68 m 460 896 l 610 1090 l 710 1090 l 551 896 l 460 896 m 228 896 l 378 1090 l 478 1090 l 319 896 l 228 896 z "},"ō":{"ha":833,"x_min":135,"x_max":699,"o":"m 417 -12 q 211 65 288 -12 q 135 276 135 142 l 135 488 q 211 699 135 622 q 417 776 288 776 q 622 699 546 776 q 699 488 699 622 l 699 276 q 622 65 699 142 q 417 -12 546 -12 m 417 68 q 557 121 507 68 q 607 271 607 174 l 607 493 q 556 643 607 590 q 417 696 506 696 q 277 643 328 696 q 226 493 226 590 l 226 271 q 276 121 226 174 q 417 68 326 68 m 211 942 l 211 1019 l 622 1019 l 622 942 l 211 942 z "},"ǫ":{"ha":833,"x_min":136,"x_max":697,"o":"m 518 -275 q 414 -243 453 -275 q 375 -157 375 -211 q 394 -89 375 -125 q 460 -11 414 -53 q 417 -14 442 -14 q 213 63 289 -14 q 136 269 136 139 l 136 494 q 213 701 136 625 q 417 778 289 778 q 621 701 544 778 q 697 494 697 625 l 697 269 q 667 128 697 189 q 585 32 638 68 l 549 0 q 463 -137 463 -76 q 482 -188 463 -169 q 535 -207 501 -207 l 622 -207 l 622 -275 l 518 -275 m 417 67 q 556 119 507 67 q 606 269 606 172 l 606 494 q 556 644 606 592 q 417 697 506 697 q 278 644 328 697 q 228 494 228 592 l 228 269 q 277 119 228 172 q 417 67 326 67 z "},"ø":{"ha":833,"x_min":68,"x_max":765,"o":"m 68 -42 l 175 111 q 136 269 136 178 l 136 494 q 213 701 136 625 q 417 778 289 778 q 603 718 529 778 l 674 819 l 765 819 l 653 661 q 697 494 697 592 l 697 269 q 622 63 697 139 q 417 -14 546 -14 q 225 51 299 -14 l 160 -42 l 68 -42 m 225 269 q 235 194 225 229 l 553 647 q 417 697 503 697 q 276 644 326 697 q 225 494 225 590 l 225 269 m 417 67 q 558 120 507 67 q 608 269 608 174 l 608 494 q 596 579 608 542 l 274 122 q 417 67 325 67 z "},"ǿ":{"ha":833,"x_min":68,"x_max":765,"o":"m 68 -42 l 175 111 q 136 269 136 178 l 136 494 q 213 701 136 625 q 417 778 289 778 q 603 718 529 778 l 674 819 l 765 819 l 653 661 q 697 494 697 592 l 697 269 q 622 63 697 139 q 417 -14 546 -14 q 225 51 299 -14 l 160 -42 l 68 -42 m 225 269 q 235 194 225 229 l 553 647 q 417 697 503 697 q 276 644 326 697 q 225 494 225 590 l 225 269 m 417 67 q 558 120 507 67 q 608 269 608 174 l 608 494 q 596 579 608 542 l 274 122 q 417 67 325 67 m 363 896 l 510 1090 l 613 1090 l 458 896 l 363 896 z "},"õ":{"ha":833,"x_min":135,"x_max":699,"o":"m 417 -12 q 211 65 288 -12 q 135 276 135 142 l 135 488 q 211 699 135 622 q 417 776 288 776 q 622 699 546 776 q 699 488 699 622 l 699 276 q 622 65 699 142 q 417 -12 546 -12 m 417 68 q 557 121 507 68 q 607 271 607 174 l 607 493 q 556 643 607 590 q 417 696 506 696 q 277 643 328 696 q 226 493 226 590 l 226 271 q 276 121 226 174 q 417 68 326 68 m 518 903 q 451 920 478 903 q 405 960 425 938 q 366 1001 385 983 q 322 1018 347 1018 q 280 1001 296 1018 q 264 956 264 985 l 264 910 l 194 910 l 194 956 q 228 1049 194 1015 q 319 1083 263 1083 q 386 1066 360 1083 q 433 1026 413 1049 q 472 985 453 1003 q 515 968 490 968 q 569 1031 569 968 l 569 1076 l 639 1076 l 639 1031 q 606 937 639 971 q 518 903 574 903 z "},"œ":{"ha":833,"x_min":49,"x_max":788,"o":"m 244 -14 q 101 44 154 -14 q 49 199 49 101 l 49 563 q 103 719 49 661 q 250 778 158 778 q 340 759 304 778 q 395 713 376 740 q 417 661 414 686 l 421 661 q 445 713 426 686 q 499 759 464 740 q 586 778 535 778 q 731 719 678 778 q 785 564 785 661 l 785 356 l 463 356 l 463 200 q 495 102 463 139 q 581 65 528 65 q 660 95 628 65 q 699 174 693 125 l 788 174 q 724 37 778 88 q 589 -14 669 -14 q 498 5 533 -14 q 444 50 463 24 q 421 101 425 76 l 417 101 q 393 50 413 76 q 338 5 374 24 q 244 -14 301 -14 m 258 65 q 343 102 311 65 q 375 200 375 139 l 375 564 q 343 662 375 625 q 258 699 311 699 q 172 661 204 699 q 139 563 139 624 l 139 199 q 172 102 139 139 q 258 65 204 65 m 463 438 l 696 438 l 696 564 q 664 662 696 625 q 578 699 632 699 q 494 662 526 699 q 463 564 463 625 l 463 438 z "},"p":{"ha":833,"x_min":143,"x_max":697,"o":"m 143 -250 l 143 764 l 235 764 l 235 639 q 308 740 253 703 q 446 778 364 778 q 628 702 560 778 q 697 499 697 626 l 697 267 q 628 63 697 139 q 446 -14 560 -14 q 308 24 364 -14 q 233 129 251 63 l 235 -11 l 235 -250 l 143 -250 m 421 65 q 556 116 507 65 q 606 267 606 167 l 606 499 q 556 648 606 597 q 421 699 507 699 q 284 645 333 699 q 235 496 235 592 l 235 269 q 284 119 235 174 q 421 65 333 65 z "},"þ":{"ha":833,"x_min":140,"x_max":694,"o":"m 140 -244 l 140 1014 l 232 1014 l 232 800 l 231 639 q 306 740 250 703 q 443 778 363 778 q 626 701 557 778 q 694 497 694 625 l 694 265 q 626 62 694 138 q 443 -14 557 -14 q 306 23 363 -14 q 232 125 250 60 l 232 -244 l 140 -244 m 418 65 q 553 116 504 65 q 603 265 603 167 l 603 497 q 553 647 603 596 q 418 699 504 699 q 281 644 329 699 q 232 494 232 590 l 232 268 q 281 119 232 172 q 418 65 331 65 z "},"q":{"ha":833,"x_min":136,"x_max":690,"o":"m 599 -250 l 599 -36 l 600 121 l 597 121 q 522 22 578 58 q 388 -14 467 -14 q 205 63 274 -14 q 136 267 136 139 l 136 499 q 205 702 136 626 q 388 778 274 778 q 522 742 467 778 q 597 643 578 706 l 599 643 l 599 764 l 690 764 l 690 -250 l 599 -250 m 413 65 q 550 119 501 65 q 599 269 599 174 l 599 496 q 549 645 599 592 q 413 699 500 699 q 277 648 326 699 q 228 501 228 597 l 228 264 q 277 116 228 167 q 413 65 326 65 z "},"r":{"ha":833,"x_min":172,"x_max":718,"o":"m 172 0 l 172 764 l 264 764 l 264 635 q 335 740 282 701 q 468 778 388 778 q 655 706 592 778 q 718 506 718 635 l 718 438 l 626 438 l 626 506 q 446 699 626 699 q 310 646 357 699 q 264 494 264 593 l 264 0 l 172 0 z "},"ŕ":{"ha":833,"x_min":172,"x_max":718,"o":"m 172 0 l 172 764 l 264 764 l 264 635 q 335 740 282 701 q 468 778 388 778 q 655 706 592 778 q 718 506 718 635 l 718 438 l 626 438 l 626 506 q 446 699 626 699 q 310 646 357 699 q 264 494 264 593 l 264 0 l 172 0 m 390 896 l 538 1090 l 640 1090 l 486 896 l 390 896 z "},"ř":{"ha":833,"x_min":172,"x_max":718,"o":"m 172 0 l 172 764 l 264 764 l 264 635 q 335 740 282 701 q 468 778 388 778 q 655 706 592 778 q 718 506 718 635 l 718 438 l 626 438 l 626 506 q 446 699 626 699 q 310 646 357 699 q 264 494 264 593 l 264 0 l 172 0 m 397 896 l 219 1090 l 317 1090 l 446 956 l 574 1090 l 669 1090 l 493 896 l 397 896 z "},"ŗ":{"ha":833,"x_min":61,"x_max":718,"o":"m 172 0 l 172 764 l 264 764 l 264 635 q 335 740 282 701 q 468 778 388 778 q 655 706 592 778 q 718 506 718 635 l 718 438 l 626 438 l 626 506 q 446 699 626 699 q 310 646 357 699 q 264 494 264 593 l 264 0 l 172 0 m 61 -333 l 189 -132 l 301 -132 l 156 -333 l 61 -333 z "},"s":{"ha":833,"x_min":122,"x_max":711,"o":"m 379 -12 q 197 44 265 -12 q 122 196 128 101 l 214 196 q 265 103 221 139 q 379 68 308 68 l 464 68 q 579 104 538 68 q 621 203 621 140 q 591 297 621 258 q 506 342 561 335 l 321 367 q 181 430 231 379 q 132 567 132 481 q 199 720 132 664 q 381 776 265 776 l 450 776 q 624 724 557 776 q 700 585 692 671 l 608 585 q 559 665 601 633 q 450 697 517 697 l 381 697 q 265 663 307 697 q 224 568 224 628 q 340 453 224 468 l 518 429 q 660 358 610 417 q 711 208 711 299 q 645 47 711 106 q 464 -12 579 -12 l 379 -12 z "},"ś":{"ha":833,"x_min":122,"x_max":711,"o":"m 379 -12 q 197 44 265 -12 q 122 196 128 101 l 214 196 q 265 103 221 139 q 379 68 308 68 l 464 68 q 579 104 538 68 q 621 203 621 140 q 591 297 621 258 q 506 342 561 335 l 321 367 q 181 430 231 379 q 132 567 132 481 q 199 720 132 664 q 381 776 265 776 l 450 776 q 624 724 557 776 q 700 585 692 671 l 608 585 q 559 665 601 633 q 450 697 517 697 l 381 697 q 265 663 307 697 q 224 568 224 628 q 340 453 224 468 l 518 429 q 660 358 610 417 q 711 208 711 299 q 645 47 711 106 q 464 -12 579 -12 l 379 -12 m 363 896 l 510 1090 l 613 1090 l 458 896 l 363 896 z "},"š":{"ha":833,"x_min":122,"x_max":711,"o":"m 379 -12 q 197 44 265 -12 q 122 196 128 101 l 214 196 q 265 103 221 139 q 379 68 308 68 l 464 68 q 579 104 538 68 q 621 203 621 140 q 591 297 621 258 q 506 342 561 335 l 321 367 q 181 430 231 379 q 132 567 132 481 q 199 720 132 664 q 381 776 265 776 l 450 776 q 624 724 557 776 q 700 585 692 671 l 608 585 q 559 665 601 633 q 450 697 517 697 l 381 697 q 265 663 307 697 q 224 568 224 628 q 340 453 224 468 l 518 429 q 660 358 610 417 q 711 208 711 299 q 645 47 711 106 q 464 -12 579 -12 l 379 -12 m 369 896 l 192 1090 l 289 1090 l 418 956 l 546 1090 l 642 1090 l 465 896 l 369 896 z "},"ş":{"ha":833,"x_min":122,"x_max":711,"o":"m 303 -275 l 303 -215 l 408 -215 q 460 -199 440 -215 q 481 -161 481 -182 q 438 -111 481 -131 q 324 -92 396 -92 l 354 -12 q 190 50 251 -6 q 122 196 128 106 l 214 196 q 265 103 221 139 q 379 68 308 68 l 464 68 q 579 104 538 68 q 621 203 621 140 q 591 297 621 258 q 506 342 561 335 l 321 367 q 181 430 231 379 q 132 567 132 481 q 199 720 132 664 q 381 776 265 776 l 450 776 q 624 724 557 776 q 700 585 692 671 l 608 585 q 559 665 601 633 q 450 697 517 697 l 381 697 q 265 663 307 697 q 224 568 224 628 q 340 453 224 468 l 518 429 q 660 358 610 417 q 711 208 711 299 q 645 47 711 106 q 464 -12 579 -12 l 421 -12 l 408 -47 q 479 -64 443 -51 q 541 -101 515 -76 q 567 -165 567 -126 q 526 -243 567 -211 q 417 -275 485 -275 l 303 -275 z "},"ŝ":{"ha":833,"x_min":122,"x_max":711,"o":"m 379 -12 q 197 44 265 -12 q 122 196 128 101 l 214 196 q 265 103 221 139 q 379 68 308 68 l 464 68 q 579 104 538 68 q 621 203 621 140 q 591 297 621 258 q 506 342 561 335 l 321 367 q 181 430 231 379 q 132 567 132 481 q 199 720 132 664 q 381 776 265 776 l 450 776 q 624 724 557 776 q 700 585 692 671 l 608 585 q 559 665 601 633 q 450 697 517 697 l 381 697 q 265 663 307 697 q 224 568 224 628 q 340 453 224 468 l 518 429 q 660 358 610 417 q 711 208 711 299 q 645 47 711 106 q 464 -12 579 -12 l 379 -12 m 192 896 l 368 1090 l 464 1090 l 642 896 l 546 896 l 417 1031 l 290 896 l 192 896 z "},"ș":{"ha":833,"x_min":122,"x_max":711,"o":"m 379 -12 q 197 44 265 -12 q 122 196 128 101 l 214 196 q 265 103 221 139 q 379 68 308 68 l 464 68 q 579 104 538 68 q 621 203 621 140 q 591 297 621 258 q 506 342 561 335 l 321 367 q 181 430 231 379 q 132 567 132 481 q 199 720 132 664 q 381 776 265 776 l 450 776 q 624 724 557 776 q 700 585 692 671 l 608 585 q 559 665 601 633 q 450 697 517 697 l 381 697 q 265 663 307 697 q 224 568 224 628 q 340 453 224 468 l 518 429 q 660 358 610 417 q 711 208 711 299 q 645 47 711 106 q 464 -12 579 -12 l 379 -12 m 285 -333 l 413 -132 l 525 -132 l 379 -333 l 285 -333 z "},"ß":{"ha":833,"x_min":143,"x_max":733,"o":"m 143 0 l 143 749 q 178 894 143 832 q 277 992 214 957 q 424 1028 340 1028 q 570 995 507 1028 q 668 903 633 963 q 703 767 703 844 q 657 620 703 683 q 539 540 611 557 l 539 536 q 679 449 625 521 q 733 278 733 378 q 694 133 733 196 q 588 35 656 71 q 431 0 521 0 l 364 0 l 364 83 l 425 83 q 579 140 519 83 q 639 286 639 196 q 581 433 639 376 q 431 489 524 489 l 364 489 l 364 571 l 424 571 q 559 623 507 571 q 611 758 611 675 q 559 894 611 842 q 424 946 507 946 q 288 891 340 946 q 235 749 235 836 l 235 0 l 143 0 z "},"ſ":{"ha":833,"x_min":242,"x_max":696,"o":"m 242 0 l 242 813 q 299 959 242 904 q 449 1014 356 1014 l 696 1014 l 696 932 l 449 932 q 365 899 397 932 q 333 813 333 865 l 333 0 l 242 0 z "},"t":{"ha":833,"x_min":78,"x_max":710,"o":"m 493 0 q 352 49 403 0 q 301 185 301 97 l 301 681 l 78 681 l 78 764 l 301 764 l 301 979 l 393 979 l 393 764 l 710 764 l 710 681 l 393 681 l 393 185 q 419 110 393 136 q 493 83 446 83 l 703 83 l 703 0 l 493 0 z "},"ŧ":{"ha":833,"x_min":78,"x_max":710,"o":"m 125 350 l 125 428 l 301 428 l 301 681 l 78 681 l 78 764 l 301 764 l 301 979 l 393 979 l 393 764 l 710 764 l 710 681 l 393 681 l 393 428 l 651 428 l 651 350 l 393 350 l 393 185 q 419 110 393 136 q 493 83 446 83 l 703 83 l 703 0 l 493 0 q 352 49 403 0 q 301 185 301 97 l 301 350 l 125 350 z "},"ť":{"ha":833,"x_min":78,"x_max":710,"o":"m 493 0 q 352 49 403 0 q 301 185 301 97 l 301 681 l 78 681 l 78 764 l 301 764 l 301 979 l 393 979 l 393 764 l 710 764 l 710 681 l 393 681 l 393 185 q 419 110 393 136 q 493 83 446 83 l 703 83 l 703 0 l 493 0 m 506 863 l 535 1113 l 625 1113 l 582 863 l 506 863 z "},"ţ":{"ha":833,"x_min":78,"x_max":710,"o":"m 372 -275 l 372 -215 l 478 -215 q 530 -199 510 -215 q 550 -161 550 -182 q 508 -111 550 -131 q 393 -92 465 -92 l 431 7 q 335 68 369 22 q 301 185 301 114 l 301 681 l 78 681 l 78 764 l 301 764 l 301 979 l 393 979 l 393 764 l 710 764 l 710 681 l 393 681 l 393 185 q 419 110 393 136 q 493 83 446 83 l 703 83 l 703 0 l 496 0 l 478 -47 q 549 -64 513 -51 q 610 -101 585 -76 q 636 -165 636 -126 q 595 -243 636 -211 q 486 -275 554 -275 l 372 -275 z "},"ț":{"ha":833,"x_min":78,"x_max":710,"o":"m 493 0 q 352 49 403 0 q 301 185 301 97 l 301 681 l 78 681 l 78 764 l 301 764 l 301 979 l 393 979 l 393 764 l 710 764 l 710 681 l 393 681 l 393 185 q 419 110 393 136 q 493 83 446 83 l 703 83 l 703 0 l 493 0 m 368 -333 l 496 -132 l 608 -132 l 463 -333 l 368 -333 z "},"u":{"ha":833,"x_min":140,"x_max":693,"o":"m 415 -14 q 214 63 288 -14 q 140 272 140 140 l 140 764 l 232 764 l 232 272 q 281 122 232 176 q 415 68 331 68 q 551 122 501 68 q 601 272 601 176 l 601 764 l 693 764 l 693 272 q 618 63 693 140 q 415 -14 543 -14 z "},"ú":{"ha":833,"x_min":140,"x_max":693,"o":"m 415 -14 q 214 63 288 -14 q 140 272 140 140 l 140 764 l 232 764 l 232 272 q 281 122 232 176 q 415 68 331 68 q 551 122 501 68 q 601 272 601 176 l 601 764 l 693 764 l 693 272 q 618 63 693 140 q 415 -14 543 -14 m 363 896 l 510 1090 l 613 1090 l 458 896 l 363 896 z "},"ŭ":{"ha":833,"x_min":140,"x_max":693,"o":"m 415 -14 q 214 63 288 -14 q 140 272 140 140 l 140 764 l 232 764 l 232 272 q 281 122 232 176 q 415 68 331 68 q 551 122 501 68 q 601 272 601 176 l 601 764 l 693 764 l 693 272 q 618 63 693 140 q 415 -14 543 -14 m 417 892 q 264 946 321 892 q 207 1090 207 1000 l 283 1090 q 319 993 283 1029 q 415 957 356 957 q 513 993 476 957 q 550 1090 550 1029 l 626 1090 q 569 946 626 1000 q 417 892 513 892 z "},"ǔ":{"ha":833,"x_min":140,"x_max":693,"o":"m 415 -14 q 214 63 288 -14 q 140 272 140 140 l 140 764 l 232 764 l 232 272 q 281 122 232 176 q 415 68 331 68 q 551 122 501 68 q 601 272 601 176 l 601 764 l 693 764 l 693 272 q 618 63 693 140 q 415 -14 543 -14 m 369 896 l 192 1090 l 289 1090 l 418 956 l 546 1090 l 642 1090 l 465 896 l 369 896 z "},"û":{"ha":833,"x_min":140,"x_max":693,"o":"m 415 -14 q 214 63 288 -14 q 140 272 140 140 l 140 764 l 232 764 l 232 272 q 281 122 232 176 q 415 68 331 68 q 551 122 501 68 q 601 272 601 176 l 601 764 l 693 764 l 693 272 q 618 63 693 140 q 415 -14 543 -14 m 192 896 l 368 1090 l 464 1090 l 642 896 l 546 896 l 417 1031 l 290 896 l 192 896 z "},"ü":{"ha":833,"x_min":140,"x_max":693,"o":"m 415 -14 q 214 63 288 -14 q 140 272 140 140 l 140 764 l 232 764 l 232 272 q 281 122 232 176 q 415 68 331 68 q 551 122 501 68 q 601 272 601 176 l 601 764 l 693 764 l 693 272 q 618 63 693 140 q 415 -14 543 -14 m 568 907 q 510 928 532 907 q 489 988 489 950 q 510 1047 489 1025 q 568 1069 532 1069 q 625 1047 604 1069 q 646 988 646 1025 q 625 928 646 950 q 568 907 604 907 m 265 907 q 209 928 231 907 q 188 988 188 950 q 209 1047 188 1025 q 265 1069 231 1069 q 323 1047 301 1069 q 344 988 344 1025 q 323 928 344 950 q 265 907 301 907 z "},"ǘ":{"ha":833,"x_min":140,"x_max":693,"o":"m 415 -14 q 214 63 288 -14 q 140 272 140 140 l 140 764 l 232 764 l 232 272 q 281 122 232 176 q 415 68 331 68 q 551 122 501 68 q 601 272 601 176 l 601 764 l 693 764 l 693 272 q 618 63 693 140 q 415 -14 543 -14 m 568 907 q 510 928 532 907 q 489 988 489 950 q 510 1047 489 1025 q 568 1069 532 1069 q 625 1047 604 1069 q 646 988 646 1025 q 625 928 646 950 q 568 907 604 907 m 265 907 q 209 928 231 907 q 188 988 188 950 q 209 1047 188 1025 q 265 1069 231 1069 q 323 1047 301 1069 q 344 988 344 1025 q 323 928 344 950 q 265 907 301 907 m 363 1201 l 510 1396 l 613 1396 l 458 1201 l 363 1201 z "},"ǚ":{"ha":833,"x_min":140,"x_max":693,"o":"m 415 -14 q 214 63 288 -14 q 140 272 140 140 l 140 764 l 232 764 l 232 272 q 281 122 232 176 q 415 68 331 68 q 551 122 501 68 q 601 272 601 176 l 601 764 l 693 764 l 693 272 q 618 63 693 140 q 415 -14 543 -14 m 568 907 q 510 928 532 907 q 489 988 489 950 q 510 1047 489 1025 q 568 1069 532 1069 q 625 1047 604 1069 q 646 988 646 1025 q 625 928 646 950 q 568 907 604 907 m 265 907 q 209 928 231 907 q 188 988 188 950 q 209 1047 188 1025 q 265 1069 231 1069 q 323 1047 301 1069 q 344 988 344 1025 q 323 928 344 950 q 265 907 301 907 m 369 1201 l 192 1396 l 289 1396 l 418 1261 l 546 1396 l 642 1396 l 465 1201 l 369 1201 z "},"ǜ":{"ha":833,"x_min":140,"x_max":693,"o":"m 415 -14 q 214 63 288 -14 q 140 272 140 140 l 140 764 l 232 764 l 232 272 q 281 122 232 176 q 415 68 331 68 q 551 122 501 68 q 601 272 601 176 l 601 764 l 693 764 l 693 272 q 618 63 693 140 q 415 -14 543 -14 m 568 907 q 510 928 532 907 q 489 988 489 950 q 510 1047 489 1025 q 568 1069 532 1069 q 625 1047 604 1069 q 646 988 646 1025 q 625 928 646 950 q 568 907 604 907 m 265 907 q 209 928 231 907 q 188 988 188 950 q 209 1047 188 1025 q 265 1069 231 1069 q 323 1047 301 1069 q 344 988 344 1025 q 323 928 344 950 q 265 907 301 907 m 385 1201 l 226 1396 l 333 1396 l 483 1201 l 385 1201 z "},"ǖ":{"ha":833,"x_min":140,"x_max":693,"o":"m 415 -14 q 214 63 288 -14 q 140 272 140 140 l 140 764 l 232 764 l 232 272 q 281 122 232 176 q 415 68 331 68 q 551 122 501 68 q 601 272 601 176 l 601 764 l 693 764 l 693 272 q 618 63 693 140 q 415 -14 543 -14 m 568 907 q 510 928 532 907 q 489 988 489 950 q 510 1047 489 1025 q 568 1069 532 1069 q 625 1047 604 1069 q 646 988 646 1025 q 625 928 646 950 q 568 907 604 907 m 265 907 q 209 928 231 907 q 188 988 188 950 q 209 1047 188 1025 q 265 1069 231 1069 q 323 1047 301 1069 q 344 988 344 1025 q 323 928 344 950 q 265 907 301 907 m 211 1247 l 211 1325 l 622 1325 l 622 1247 l 211 1247 z "},"ụ":{"ha":833,"x_min":140,"x_max":693,"o":"m 415 -14 q 214 63 288 -14 q 140 272 140 140 l 140 764 l 232 764 l 232 272 q 281 122 232 176 q 415 68 331 68 q 551 122 501 68 q 601 272 601 176 l 601 764 l 693 764 l 693 272 q 618 63 693 140 q 415 -14 543 -14 m 417 -289 q 353 -267 376 -289 q 329 -208 329 -246 q 353 -149 329 -171 q 417 -126 376 -126 q 481 -149 457 -126 q 504 -208 504 -171 q 481 -267 504 -246 q 417 -289 457 -289 z "},"ù":{"ha":833,"x_min":140,"x_max":693,"o":"m 415 -14 q 214 63 288 -14 q 140 272 140 140 l 140 764 l 232 764 l 232 272 q 281 122 232 176 q 415 68 331 68 q 551 122 501 68 q 601 272 601 176 l 601 764 l 693 764 l 693 272 q 618 63 693 140 q 415 -14 543 -14 m 385 896 l 226 1090 l 333 1090 l 483 896 l 385 896 z "},"ủ":{"ha":833,"x_min":140,"x_max":693,"o":"m 415 -14 q 214 63 288 -14 q 140 272 140 140 l 140 764 l 232 764 l 232 272 q 281 122 232 176 q 415 68 331 68 q 551 122 501 68 q 601 272 601 176 l 601 764 l 693 764 l 693 272 q 618 63 693 140 q 415 -14 543 -14 m 372 896 l 446 994 q 468 1042 468 1025 q 419 1076 468 1076 l 301 1076 l 301 1142 l 433 1142 q 514 1117 483 1142 q 544 1051 544 1093 q 519 978 544 1011 l 460 896 l 372 896 z "},"ư":{"ha":833,"x_min":140,"x_max":814,"o":"m 140 272 l 140 764 l 232 764 l 232 272 q 281 122 232 176 q 415 68 329 68 q 552 122 503 68 q 601 272 601 176 l 601 764 l 682 764 q 724 781 708 764 q 739 825 739 797 l 739 917 l 814 917 l 814 822 q 783 733 814 767 q 693 699 751 699 l 693 272 q 618 63 693 140 q 415 -14 543 -14 q 214 63 288 -14 q 140 272 140 140 z "},"ứ":{"ha":833,"x_min":140,"x_max":814,"o":"m 140 272 l 140 764 l 232 764 l 232 272 q 281 122 232 176 q 415 68 329 68 q 552 122 503 68 q 601 272 601 176 l 601 764 l 682 764 q 724 781 708 764 q 739 825 739 797 l 739 917 l 814 917 l 814 822 q 783 733 814 767 q 693 699 751 699 l 693 272 q 618 63 693 140 q 415 -14 543 -14 q 214 63 288 -14 q 140 272 140 140 m 363 896 l 510 1090 l 613 1090 l 458 896 l 363 896 z "},"ự":{"ha":833,"x_min":140,"x_max":814,"o":"m 140 272 l 140 764 l 232 764 l 232 272 q 281 122 232 176 q 415 68 329 68 q 552 122 503 68 q 601 272 601 176 l 601 764 l 682 764 q 724 781 708 764 q 739 825 739 797 l 739 917 l 814 917 l 814 822 q 783 733 814 767 q 693 699 751 699 l 693 272 q 618 63 693 140 q 415 -14 543 -14 q 214 63 288 -14 q 140 272 140 140 m 415 -289 q 351 -267 375 -289 q 328 -208 328 -246 q 351 -149 328 -171 q 415 -126 375 -126 q 479 -149 456 -126 q 503 -208 503 -171 q 479 -267 503 -246 q 415 -289 456 -289 z "},"ừ":{"ha":833,"x_min":140,"x_max":814,"o":"m 140 272 l 140 764 l 232 764 l 232 272 q 281 122 232 176 q 415 68 329 68 q 552 122 503 68 q 601 272 601 176 l 601 764 l 682 764 q 724 781 708 764 q 739 825 739 797 l 739 917 l 814 917 l 814 822 q 783 733 814 767 q 693 699 751 699 l 693 272 q 618 63 693 140 q 415 -14 543 -14 q 214 63 288 -14 q 140 272 140 140 m 385 896 l 226 1090 l 333 1090 l 483 896 l 385 896 z "},"ử":{"ha":833,"x_min":140,"x_max":814,"o":"m 140 272 l 140 764 l 232 764 l 232 272 q 281 122 232 176 q 415 68 329 68 q 552 122 503 68 q 601 272 601 176 l 601 764 l 682 764 q 724 781 708 764 q 739 825 739 797 l 739 917 l 814 917 l 814 822 q 783 733 814 767 q 693 699 751 699 l 693 272 q 618 63 693 140 q 415 -14 543 -14 q 214 63 288 -14 q 140 272 140 140 m 372 896 l 446 994 q 468 1042 468 1025 q 419 1076 468 1076 l 301 1076 l 301 1142 l 433 1142 q 514 1117 483 1142 q 544 1051 544 1093 q 519 978 544 1011 l 460 896 l 372 896 z "},"ữ":{"ha":833,"x_min":140,"x_max":814,"o":"m 140 272 l 140 764 l 232 764 l 232 272 q 281 122 232 176 q 415 68 329 68 q 552 122 503 68 q 601 272 601 176 l 601 764 l 682 764 q 724 781 708 764 q 739 825 739 797 l 739 917 l 814 917 l 814 822 q 783 733 814 767 q 693 699 751 699 l 693 272 q 618 63 693 140 q 415 -14 543 -14 q 214 63 288 -14 q 140 272 140 140 m 518 903 q 451 920 478 903 q 405 960 425 938 q 366 1001 385 983 q 322 1018 347 1018 q 280 1001 296 1018 q 264 956 264 985 l 264 910 l 194 910 l 194 956 q 228 1049 194 1015 q 319 1083 263 1083 q 386 1066 360 1083 q 433 1026 413 1049 q 472 985 453 1003 q 515 968 490 968 q 569 1031 569 968 l 569 1076 l 639 1076 l 639 1031 q 606 937 639 971 q 518 903 574 903 z "},"ű":{"ha":833,"x_min":140,"x_max":710,"o":"m 415 -14 q 214 63 288 -14 q 140 272 140 140 l 140 764 l 232 764 l 232 272 q 281 122 232 176 q 415 68 331 68 q 551 122 501 68 q 601 272 601 176 l 601 764 l 693 764 l 693 272 q 618 63 693 140 q 415 -14 543 -14 m 460 896 l 610 1090 l 710 1090 l 551 896 l 460 896 m 228 896 l 378 1090 l 478 1090 l 319 896 l 228 896 z "},"ū":{"ha":833,"x_min":140,"x_max":693,"o":"m 415 -14 q 214 63 288 -14 q 140 272 140 140 l 140 764 l 232 764 l 232 272 q 281 122 232 176 q 415 68 331 68 q 551 122 501 68 q 601 272 601 176 l 601 764 l 693 764 l 693 272 q 618 63 693 140 q 415 -14 543 -14 m 211 942 l 211 1019 l 622 1019 l 622 942 l 211 942 z "},"ų":{"ha":833,"x_min":140,"x_max":693,"o":"m 518 -275 q 414 -243 453 -275 q 375 -157 375 -211 q 394 -89 375 -125 q 460 -11 414 -53 q 417 -14 442 -14 q 215 63 289 -14 q 140 269 140 139 l 140 764 l 232 764 l 232 269 q 279 119 232 172 q 417 67 326 67 q 554 119 507 67 q 601 269 601 172 l 601 764 l 693 764 l 693 269 q 585 32 693 104 l 549 0 q 463 -137 463 -76 q 482 -188 463 -169 q 535 -207 501 -207 l 622 -207 l 622 -275 l 518 -275 z "},"ů":{"ha":833,"x_min":140,"x_max":693,"o":"m 415 -14 q 214 63 288 -14 q 140 272 140 140 l 140 764 l 232 764 l 232 272 q 281 122 232 176 q 415 68 331 68 q 551 122 501 68 q 601 272 601 176 l 601 764 l 693 764 l 693 272 q 618 63 693 140 q 415 -14 543 -14 m 418 850 q 306 890 349 850 q 263 997 263 931 q 306 1103 263 1063 q 418 1143 349 1143 q 528 1103 486 1143 q 571 997 571 1063 q 528 890 571 931 q 418 850 486 850 m 417 908 q 480 933 456 908 q 504 997 504 957 q 480 1061 504 1036 q 417 1086 456 1086 q 353 1061 378 1086 q 329 997 329 1036 q 353 933 329 957 q 417 908 378 908 z "},"ũ":{"ha":833,"x_min":140,"x_max":693,"o":"m 415 -14 q 214 63 288 -14 q 140 272 140 140 l 140 764 l 232 764 l 232 272 q 281 122 232 176 q 415 68 331 68 q 551 122 501 68 q 601 272 601 176 l 601 764 l 693 764 l 693 272 q 618 63 693 140 q 415 -14 543 -14 m 518 903 q 451 920 478 903 q 405 960 425 938 q 366 1001 385 983 q 322 1018 347 1018 q 280 1001 296 1018 q 264 956 264 985 l 264 910 l 194 910 l 194 956 q 228 1049 194 1015 q 319 1083 263 1083 q 386 1066 360 1083 q 433 1026 413 1049 q 472 985 453 1003 q 515 968 490 968 q 569 1031 569 968 l 569 1076 l 639 1076 l 639 1031 q 606 937 639 971 q 518 903 574 903 z "},"v":{"ha":833,"x_min":97,"x_max":736,"o":"m 358 0 l 97 764 l 196 764 l 378 217 q 402 135 392 176 q 418 71 413 94 q 434 135 424 94 q 458 217 444 176 l 639 764 l 736 764 l 475 0 l 358 0 z "},"w":{"ha":833,"x_min":58,"x_max":775,"o":"m 186 0 l 58 764 l 142 764 l 229 207 q 240 129 236 164 q 244 68 243 94 q 252 129 247 94 q 265 207 257 164 l 371 764 l 464 764 l 569 207 q 583 131 576 167 q 590 68 589 96 q 597 131 593 96 q 606 207 600 167 l 694 764 l 775 764 l 644 0 l 533 0 l 442 538 q 427 620 435 575 q 418 693 419 665 q 408 620 415 665 q 393 538 400 575 l 296 0 l 186 0 z "},"ẃ":{"ha":833,"x_min":58,"x_max":775,"o":"m 186 0 l 58 764 l 142 764 l 229 207 q 240 129 236 164 q 244 68 243 94 q 252 129 247 94 q 265 207 257 164 l 371 764 l 464 764 l 569 207 q 583 131 576 167 q 590 68 589 96 q 597 131 593 96 q 606 207 600 167 l 694 764 l 775 764 l 644 0 l 533 0 l 442 538 q 427 620 435 575 q 418 693 419 665 q 408 620 415 665 q 393 538 400 575 l 296 0 l 186 0 m 363 896 l 510 1090 l 613 1090 l 458 896 l 363 896 z "},"ŵ":{"ha":833,"x_min":58,"x_max":775,"o":"m 186 0 l 58 764 l 142 764 l 229 207 q 240 129 236 164 q 244 68 243 94 q 252 129 247 94 q 265 207 257 164 l 371 764 l 464 764 l 569 207 q 583 131 576 167 q 590 68 589 96 q 597 131 593 96 q 606 207 600 167 l 694 764 l 775 764 l 644 0 l 533 0 l 442 538 q 427 620 435 575 q 418 693 419 665 q 408 620 415 665 q 393 538 400 575 l 296 0 l 186 0 m 192 896 l 368 1090 l 464 1090 l 642 896 l 546 896 l 417 1031 l 290 896 l 192 896 z "},"ẅ":{"ha":833,"x_min":58,"x_max":775,"o":"m 186 0 l 58 764 l 142 764 l 229 207 q 240 129 236 164 q 244 68 243 94 q 252 129 247 94 q 265 207 257 164 l 371 764 l 464 764 l 569 207 q 583 131 576 167 q 590 68 589 96 q 597 131 593 96 q 606 207 600 167 l 694 764 l 775 764 l 644 0 l 533 0 l 442 538 q 427 620 435 575 q 418 693 419 665 q 408 620 415 665 q 393 538 400 575 l 296 0 l 186 0 m 568 907 q 510 928 532 907 q 489 988 489 950 q 510 1047 489 1025 q 568 1069 532 1069 q 625 1047 604 1069 q 646 988 646 1025 q 625 928 646 950 q 568 907 604 907 m 265 907 q 209 928 231 907 q 188 988 188 950 q 209 1047 188 1025 q 265 1069 231 1069 q 323 1047 301 1069 q 344 988 344 1025 q 323 928 344 950 q 265 907 301 907 z "},"ẁ":{"ha":833,"x_min":58,"x_max":775,"o":"m 186 0 l 58 764 l 142 764 l 229 207 q 240 129 236 164 q 244 68 243 94 q 252 129 247 94 q 265 207 257 164 l 371 764 l 464 764 l 569 207 q 583 131 576 167 q 590 68 589 96 q 597 131 593 96 q 606 207 600 167 l 694 764 l 775 764 l 644 0 l 533 0 l 442 538 q 427 620 435 575 q 418 693 419 665 q 408 620 415 665 q 393 538 400 575 l 296 0 l 186 0 m 385 896 l 226 1090 l 333 1090 l 483 896 l 385 896 z "},"x":{"ha":833,"x_min":90,"x_max":743,"o":"m 90 0 l 363 392 l 107 764 l 215 764 l 386 503 q 403 474 394 490 q 418 449 413 458 q 433 474 424 458 q 450 503 442 490 l 621 764 l 728 764 l 472 392 l 743 0 l 636 0 l 453 275 q 433 306 443 289 q 417 333 424 324 q 401 306 411 324 q 381 275 390 289 l 197 0 l 90 0 z "},"y":{"ha":833,"x_min":93,"x_max":740,"o":"m 265 -250 l 378 51 l 93 764 l 194 764 l 379 283 q 406 213 393 249 q 425 157 419 178 q 444 214 432 178 q 468 285 456 250 l 642 764 l 740 764 l 360 -250 l 265 -250 z "},"ý":{"ha":833,"x_min":93,"x_max":740,"o":"m 265 -250 l 378 51 l 93 764 l 194 764 l 379 283 q 406 213 393 249 q 425 157 419 178 q 444 214 432 178 q 468 285 456 250 l 642 764 l 740 764 l 360 -250 l 265 -250 m 363 896 l 510 1090 l 613 1090 l 458 896 l 363 896 z "},"ŷ":{"ha":833,"x_min":93,"x_max":740,"o":"m 265 -250 l 378 51 l 93 764 l 194 764 l 379 283 q 406 213 393 249 q 425 157 419 178 q 444 214 432 178 q 468 285 456 250 l 642 764 l 740 764 l 360 -250 l 265 -250 m 192 896 l 368 1090 l 464 1090 l 642 896 l 546 896 l 417 1031 l 290 896 l 192 896 z "},"ÿ":{"ha":833,"x_min":93,"x_max":740,"o":"m 265 -250 l 378 51 l 93 764 l 194 764 l 379 283 q 406 213 393 249 q 425 157 419 178 q 444 214 432 178 q 468 285 456 250 l 642 764 l 740 764 l 360 -250 l 265 -250 m 568 907 q 510 928 532 907 q 489 988 489 950 q 510 1047 489 1025 q 568 1069 532 1069 q 625 1047 604 1069 q 646 988 646 1025 q 625 928 646 950 q 568 907 604 907 m 265 907 q 209 928 231 907 q 188 988 188 950 q 209 1047 188 1025 q 265 1069 231 1069 q 323 1047 301 1069 q 344 988 344 1025 q 323 928 344 950 q 265 907 301 907 z "},"ỵ":{"ha":833,"x_min":93,"x_max":740,"o":"m 265 -250 l 378 51 l 93 764 l 194 764 l 379 283 q 406 213 393 249 q 425 157 419 178 q 444 214 432 178 q 468 285 456 250 l 642 764 l 740 764 l 360 -250 l 265 -250 m 631 -289 q 567 -267 590 -289 q 543 -208 543 -246 q 567 -149 543 -171 q 631 -126 590 -126 q 694 -149 671 -126 q 718 -208 718 -171 q 694 -267 718 -246 q 631 -289 671 -289 z "},"ỳ":{"ha":833,"x_min":93,"x_max":740,"o":"m 265 -250 l 378 51 l 93 764 l 194 764 l 379 283 q 406 213 393 249 q 425 157 419 178 q 444 214 432 178 q 468 285 456 250 l 642 764 l 740 764 l 360 -250 l 265 -250 m 385 896 l 226 1090 l 333 1090 l 483 896 l 385 896 z "},"ỷ":{"ha":833,"x_min":93,"x_max":740,"o":"m 265 -250 l 378 51 l 93 764 l 194 764 l 379 283 q 406 213 393 249 q 425 157 419 178 q 444 214 432 178 q 468 285 456 250 l 642 764 l 740 764 l 360 -250 l 265 -250 m 372 896 l 446 994 q 468 1042 468 1025 q 419 1076 468 1076 l 301 1076 l 301 1142 l 433 1142 q 514 1117 483 1142 q 544 1051 544 1093 q 519 978 544 1011 l 460 896 l 372 896 z "},"ȳ":{"ha":833,"x_min":93,"x_max":740,"o":"m 265 -250 l 378 51 l 93 764 l 194 764 l 379 283 q 406 213 393 249 q 425 157 419 178 q 444 214 432 178 q 468 285 456 250 l 642 764 l 740 764 l 360 -250 l 265 -250 m 211 942 l 211 1019 l 622 1019 l 622 942 l 211 942 z "},"ỹ":{"ha":833,"x_min":93,"x_max":740,"o":"m 265 -250 l 378 51 l 93 764 l 194 764 l 379 283 q 406 213 393 249 q 425 157 419 178 q 444 214 432 178 q 468 285 456 250 l 642 764 l 740 764 l 360 -250 l 265 -250 m 518 903 q 451 920 478 903 q 405 960 425 938 q 366 1001 385 983 q 322 1018 347 1018 q 280 1001 296 1018 q 264 956 264 985 l 264 910 l 194 910 l 194 956 q 228 1049 194 1015 q 319 1083 263 1083 q 386 1066 360 1083 q 433 1026 413 1049 q 472 985 453 1003 q 515 968 490 968 q 569 1031 569 968 l 569 1076 l 639 1076 l 639 1031 q 606 937 639 971 q 518 903 574 903 z "},"z":{"ha":833,"x_min":136,"x_max":697,"o":"m 136 0 l 136 89 l 576 681 l 147 681 l 147 764 l 681 764 l 681 675 l 235 83 l 697 83 l 697 0 l 136 0 z "},"ź":{"ha":833,"x_min":136,"x_max":697,"o":"m 136 0 l 136 89 l 576 681 l 147 681 l 147 764 l 681 764 l 681 675 l 235 83 l 697 83 l 697 0 l 136 0 m 363 896 l 510 1090 l 613 1090 l 458 896 l 363 896 z "},"ž":{"ha":833,"x_min":136,"x_max":697,"o":"m 136 0 l 136 89 l 576 681 l 147 681 l 147 764 l 681 764 l 681 675 l 235 83 l 697 83 l 697 0 l 136 0 m 369 896 l 192 1090 l 289 1090 l 418 956 l 546 1090 l 642 1090 l 465 896 l 369 896 z "},"ż":{"ha":833,"x_min":136,"x_max":697,"o":"m 136 0 l 136 89 l 576 681 l 147 681 l 147 764 l 681 764 l 681 675 l 235 83 l 697 83 l 697 0 l 136 0 m 417 907 q 353 928 376 907 q 329 988 329 950 q 353 1047 329 1025 q 417 1069 376 1069 q 481 1047 457 1069 q 504 988 504 1025 q 481 928 504 950 q 417 907 457 907 z "},"ª":{"ha":833,"x_min":247,"x_max":579,"o":"m 381 625 q 283 657 319 625 q 247 743 247 689 q 285 829 247 797 q 385 861 322 861 l 522 861 l 522 903 q 495 960 522 939 q 424 981 468 981 q 358 963 385 981 q 325 917 331 946 l 268 917 q 319 998 276 968 q 424 1028 361 1028 q 537 994 494 1028 q 579 903 579 960 l 579 632 l 526 632 l 526 708 l 522 708 q 469 648 508 671 q 381 625 431 625 m 399 669 q 489 697 456 669 q 522 771 522 724 l 522 814 l 385 814 q 326 795 347 814 q 304 743 304 776 q 330 690 304 710 q 399 669 356 669 z "},"º":{"ha":833,"x_min":263,"x_max":571,"o":"m 417 618 q 305 656 347 618 q 263 756 263 693 l 263 888 q 305 988 263 950 q 417 1025 347 1025 q 528 988 486 1025 q 571 888 571 950 l 571 756 q 528 656 571 693 q 417 618 486 618 m 417 665 q 488 690 461 665 q 515 756 515 715 l 515 888 q 488 953 515 928 q 417 978 461 978 q 345 953 372 978 q 318 888 318 928 l 318 756 q 345 690 318 715 q 417 665 372 665 z "},"А":{"ha":833,"x_min":85,"x_max":749,"o":"m 85 0 l 357 1014 l 476 1014 l 749 0 l 656 0 l 582 283 l 250 283 l 178 0 l 85 0 m 271 363 l 561 363 l 464 733 q 431 868 443 814 q 417 939 419 922 q 401 868 414 922 q 368 733 389 814 l 271 363 z "},"Б":{"ha":833,"x_min":144,"x_max":725,"o":"m 144 0 l 144 1014 l 683 1014 l 683 931 l 236 931 l 236 590 l 425 590 q 583 553 515 590 q 688 450 650 517 q 725 294 725 383 q 688 140 725 207 q 583 37 650 74 q 425 0 515 0 l 144 0 m 236 83 l 425 83 q 574 142 518 83 q 631 294 631 200 q 574 449 631 390 q 425 507 518 507 l 236 507 l 236 83 z "},"В":{"ha":833,"x_min":143,"x_max":724,"o":"m 143 0 l 143 1014 l 415 1014 q 623 943 546 1014 q 700 753 700 872 q 678 653 700 700 q 616 575 656 607 q 526 533 576 543 l 526 529 q 628 485 583 521 q 698 396 672 450 q 724 279 724 342 q 644 76 724 151 q 426 0 564 0 l 143 0 m 233 564 l 414 564 q 557 613 506 564 q 608 747 608 663 q 557 882 608 833 q 415 931 506 931 l 233 931 l 233 564 m 233 83 l 421 83 q 576 136 519 83 q 633 281 633 189 q 576 428 633 374 q 421 483 519 483 l 233 483 l 233 83 z "},"Г":{"ha":833,"x_min":189,"x_max":763,"o":"m 189 0 l 189 1014 l 763 1014 l 763 931 l 281 931 l 281 0 l 189 0 z "},"Ѓ":{"ha":833,"x_min":189,"x_max":763,"o":"m 189 0 l 189 1014 l 763 1014 l 763 931 l 281 931 l 281 0 l 189 0 m 382 1125 l 529 1319 l 632 1319 l 478 1125 l 382 1125 z "},"Ґ":{"ha":833,"x_min":189,"x_max":763,"o":"m 189 0 l 189 1014 l 674 1014 l 674 1146 l 763 1146 l 763 931 l 281 931 l 281 0 l 189 0 z "},"Д":{"ha":833,"x_min":54,"x_max":778,"o":"m 54 -194 l 54 81 l 107 81 q 145 153 125 107 q 179 263 165 200 q 194 396 193 325 l 207 1014 l 679 1014 l 679 81 l 778 81 l 778 -194 l 696 -194 l 696 0 l 136 0 l 136 -194 l 54 -194 m 204 81 l 588 81 l 588 932 l 296 932 l 285 396 q 256 201 283 285 q 204 81 229 117 z "},"Е":{"ha":833,"x_min":156,"x_max":714,"o":"m 156 0 l 156 1014 l 714 1014 l 714 931 l 247 931 l 247 571 l 665 571 l 665 489 l 247 489 l 247 83 l 714 83 l 714 0 l 156 0 z "},"Ё":{"ha":833,"x_min":156,"x_max":714,"o":"m 156 0 l 156 1014 l 714 1014 l 714 931 l 247 931 l 247 571 l 665 571 l 665 489 l 247 489 l 247 83 l 714 83 l 714 0 l 156 0 m 588 1142 q 530 1163 551 1142 q 508 1222 508 1185 q 530 1282 508 1260 q 588 1304 551 1304 q 644 1282 624 1304 q 665 1222 665 1260 q 644 1163 665 1185 q 588 1142 624 1142 m 285 1142 q 228 1163 250 1142 q 207 1222 207 1185 q 228 1282 207 1260 q 285 1304 250 1304 q 342 1282 321 1304 q 364 1222 364 1260 q 342 1163 364 1185 q 285 1142 321 1142 z "},"Ж":{"ha":833,"x_min":15,"x_max":818,"o":"m 15 0 l 214 531 l 29 1014 l 125 1014 l 292 563 l 376 563 l 376 1014 l 456 1014 l 456 563 l 542 563 l 708 1014 l 804 1014 l 618 531 l 818 0 l 722 0 l 540 489 l 456 489 l 456 0 l 376 0 l 376 489 l 290 489 l 110 0 l 15 0 z "},"З":{"ha":833,"x_min":82,"x_max":728,"o":"m 403 -14 q 236 22 308 -14 q 123 124 164 58 q 82 275 82 189 l 174 275 q 238 126 174 183 q 404 68 301 68 q 571 126 507 68 q 635 278 635 185 q 571 428 635 369 q 404 486 507 486 l 301 486 l 301 568 l 408 568 q 551 621 496 568 q 607 758 607 674 q 552 894 607 842 q 408 947 497 947 q 258 888 317 947 q 200 736 200 829 l 108 736 q 147 889 108 824 q 252 991 185 954 q 408 1028 319 1028 q 560 994 494 1028 q 662 900 625 960 q 699 763 699 840 q 652 615 699 678 q 532 535 606 551 l 532 531 q 674 440 619 513 q 728 272 728 368 q 687 123 728 188 q 573 22 646 58 q 403 -14 500 -14 z "},"И":{"ha":833,"x_min":140,"x_max":693,"o":"m 140 0 l 140 1014 l 229 1014 l 229 319 q 227 197 229 257 q 222 104 225 136 l 568 1014 l 693 1014 l 693 0 l 604 0 l 604 694 q 606 760 604 721 q 609 839 607 799 q 613 910 611 879 l 265 0 l 140 0 z "},"Й":{"ha":833,"x_min":140,"x_max":693,"o":"m 140 0 l 140 1014 l 229 1014 l 229 319 q 227 197 229 257 q 222 104 225 136 l 568 1014 l 693 1014 l 693 0 l 604 0 l 604 694 q 606 760 604 721 q 609 839 607 799 q 613 910 611 879 l 265 0 l 140 0 m 417 1121 q 264 1175 321 1121 q 207 1319 207 1229 l 283 1319 q 319 1222 283 1258 q 415 1186 356 1186 q 513 1222 476 1186 q 550 1319 550 1258 l 626 1319 q 569 1175 626 1229 q 417 1121 513 1121 z "},"К":{"ha":833,"x_min":143,"x_max":761,"o":"m 143 0 l 143 1014 l 235 1014 l 235 565 l 422 565 l 647 1014 l 747 1014 l 503 528 l 761 0 l 654 0 l 419 483 l 235 483 l 235 0 l 143 0 z "},"Ќ":{"ha":833,"x_min":143,"x_max":761,"o":"m 143 0 l 143 1014 l 235 1014 l 235 565 l 422 565 l 647 1014 l 747 1014 l 503 528 l 761 0 l 654 0 l 419 483 l 235 483 l 235 0 l 143 0 m 354 1125 l 501 1319 l 604 1319 l 450 1125 l 354 1125 z "},"Л":{"ha":833,"x_min":32,"x_max":689,"o":"m 32 -7 l 32 82 l 67 82 q 183 278 181 82 l 194 1014 l 689 1014 l 689 0 l 597 0 l 597 931 l 286 931 l 275 278 q 220 66 272 139 q 69 -7 168 -7 l 32 -7 z "},"М":{"ha":833,"x_min":117,"x_max":717,"o":"m 117 0 l 117 1014 l 250 1014 l 417 531 l 583 1014 l 717 1014 l 717 0 l 628 0 l 628 558 q 629 706 628 628 q 634 856 631 785 q 642 979 638 928 l 460 451 l 371 451 l 190 974 q 201 788 197 899 q 206 558 206 678 l 206 0 l 117 0 z "},"Н":{"ha":833,"x_min":143,"x_max":690,"o":"m 143 0 l 143 1014 l 235 1014 l 235 567 l 599 567 l 599 1014 l 690 1014 l 690 0 l 599 0 l 599 485 l 235 485 l 235 0 l 143 0 z "},"О":{"ha":833,"x_min":136,"x_max":697,"o":"m 417 -14 q 213 63 289 -14 q 136 275 136 140 l 136 739 q 213 951 136 874 q 417 1028 289 1028 q 621 951 544 1028 q 697 739 697 874 l 697 275 q 622 63 697 140 q 417 -14 546 -14 m 417 68 q 556 121 507 68 q 606 269 606 174 l 606 744 q 556 893 606 840 q 417 946 506 946 q 278 893 328 946 q 228 744 228 840 l 228 269 q 277 121 228 174 q 417 68 326 68 z "},"П":{"ha":833,"x_min":144,"x_max":689,"o":"m 144 0 l 144 1014 l 689 1014 l 689 0 l 597 0 l 597 931 l 236 931 l 236 0 l 144 0 z "},"Р":{"ha":833,"x_min":143,"x_max":751,"o":"m 143 0 l 143 1014 l 453 1014 q 670 935 589 1014 q 751 725 751 857 q 670 515 751 594 q 453 436 589 436 l 235 436 l 235 0 l 143 0 m 235 519 l 453 519 q 602 575 546 519 q 658 725 658 631 q 603 875 658 819 q 453 931 547 931 l 235 931 l 235 519 z "},"С":{"ha":833,"x_min":142,"x_max":718,"o":"m 429 -14 q 219 63 297 -14 q 142 269 142 139 l 142 744 q 219 951 142 875 q 429 1028 297 1028 q 640 949 561 1028 q 718 736 718 869 l 626 736 q 574 890 626 835 q 429 946 521 946 q 286 892 339 946 q 233 744 233 839 l 233 269 q 285 122 233 175 q 429 68 338 68 q 574 124 522 68 q 626 278 626 179 l 718 278 q 640 65 718 144 q 429 -14 561 -14 z "},"Т":{"ha":833,"x_min":81,"x_max":753,"o":"m 372 0 l 372 931 l 81 931 l 81 1014 l 753 1014 l 753 931 l 464 931 l 464 0 l 372 0 z "},"У":{"ha":833,"x_min":85,"x_max":749,"o":"m 281 0 l 383 264 l 85 1014 l 186 1014 l 374 518 q 407 424 392 471 q 429 351 422 378 q 449 424 436 378 q 479 518 463 471 l 650 1014 l 749 1014 l 381 0 l 281 0 z "},"Ў":{"ha":833,"x_min":85,"x_max":749,"o":"m 281 0 l 383 264 l 85 1014 l 186 1014 l 374 518 q 407 424 392 471 q 429 351 422 378 q 449 424 436 378 q 479 518 463 471 l 650 1014 l 749 1014 l 381 0 l 281 0 m 417 1121 q 264 1175 321 1121 q 207 1319 207 1229 l 283 1319 q 319 1222 283 1258 q 415 1186 356 1186 q 513 1222 476 1186 q 550 1319 550 1258 l 626 1319 q 569 1175 626 1229 q 417 1121 513 1121 z "},"Ф":{"ha":833,"x_min":75,"x_max":758,"o":"m 371 -35 l 371 76 q 217 111 283 76 q 113 210 150 146 q 75 360 75 274 l 75 681 q 113 832 75 768 q 217 931 150 896 q 371 965 283 965 l 371 1069 l 463 1069 l 463 965 q 617 931 550 965 q 721 832 683 896 q 758 681 758 768 l 758 360 q 721 210 758 274 q 617 111 683 146 q 463 76 550 76 l 463 -35 l 371 -35 m 374 156 l 374 886 q 224 829 283 886 q 164 681 164 772 l 164 360 q 192 253 164 300 q 267 181 219 207 q 374 156 314 156 m 460 156 q 567 181 519 156 q 642 253 614 207 q 669 360 669 300 l 669 681 q 610 829 669 772 q 460 886 550 886 l 460 156 z "},"Х":{"ha":833,"x_min":67,"x_max":767,"o":"m 67 0 l 364 522 l 85 1014 l 189 1014 l 354 708 q 385 651 367 685 q 418 594 404 617 q 449 651 431 617 q 481 708 468 685 l 649 1014 l 749 1014 l 469 528 l 767 0 l 663 0 l 481 339 q 449 396 468 361 q 417 454 431 431 q 385 396 404 431 q 354 339 367 361 l 168 0 l 67 0 z "},"Ч":{"ha":833,"x_min":117,"x_max":689,"o":"m 597 0 l 599 392 l 403 392 q 190 458 264 392 q 117 650 117 525 l 117 1014 l 208 1014 l 208 650 q 260 519 208 564 q 408 474 311 474 l 597 474 l 597 1014 l 689 1014 l 689 0 l 597 0 z "},"Ц":{"ha":833,"x_min":144,"x_max":772,"o":"m 686 -194 l 686 0 l 144 0 l 144 1014 l 236 1014 l 236 82 l 575 82 l 575 1014 l 667 1014 l 667 82 l 772 82 l 772 -194 l 686 -194 z "},"Ш":{"ha":833,"x_min":96,"x_max":738,"o":"m 97 0 l 96 1014 l 183 1014 l 183 79 l 376 79 l 376 1014 l 458 1014 l 458 79 l 651 79 l 651 1014 l 738 1014 l 738 0 l 97 0 z "},"Щ":{"ha":833,"x_min":96,"x_max":818,"o":"m 732 -194 l 732 0 l 96 0 l 96 1014 l 181 1014 l 181 79 l 372 79 l 372 1014 l 451 1014 l 451 79 l 643 79 l 643 1014 l 728 1014 l 728 79 l 818 79 l 818 -194 l 732 -194 z "},"Џ":{"ha":833,"x_min":144,"x_max":689,"o":"m 369 -174 l 369 0 l 144 0 l 144 1014 l 240 1014 l 240 88 l 593 88 l 593 1014 l 689 1014 l 689 0 l 465 0 l 465 -174 l 369 -174 z "},"Ь":{"ha":833,"x_min":144,"x_max":743,"o":"m 144 0 l 144 1014 l 236 1014 l 236 589 l 442 589 q 601 552 533 589 q 706 449 668 515 q 743 294 743 383 q 706 140 743 206 q 601 37 668 74 q 442 0 533 0 l 144 0 m 236 83 l 439 83 q 592 141 535 83 q 649 294 649 199 q 592 448 649 390 q 439 506 535 506 l 236 506 l 236 83 z "},"Ъ":{"ha":833,"x_min":6,"x_max":743,"o":"m 192 0 l 192 926 l 6 926 l 6 1014 l 283 1014 l 283 589 l 442 589 q 601 552 533 589 q 706 449 668 515 q 743 294 743 383 q 706 140 743 206 q 601 37 668 74 q 442 0 533 0 l 192 0 m 283 83 l 439 83 q 592 141 535 83 q 649 294 649 199 q 592 448 649 390 q 439 506 535 506 l 283 506 l 283 83 z "},"Ы":{"ha":833,"x_min":96,"x_max":738,"o":"m 96 0 l 96 1014 l 185 1014 l 185 589 l 264 589 q 462 517 389 589 q 535 325 535 446 l 535 264 q 462 72 535 143 q 264 0 389 0 l 96 0 m 649 0 l 649 1014 l 738 1014 l 738 0 l 649 0 m 185 82 l 264 82 q 398 131 349 82 q 447 264 447 179 l 447 325 q 398 458 447 410 q 264 507 349 507 l 185 507 l 185 82 z "},"Љ":{"ha":833,"x_min":-7,"x_max":793,"o":"m -7 -7 l -7 79 l 24 79 q 114 239 113 79 l 125 1014 l 489 1014 l 489 589 l 579 589 q 735 531 676 589 q 793 378 793 474 l 793 211 q 735 58 793 115 q 579 0 676 0 l 403 0 l 403 935 l 213 935 l 203 239 q 154 56 201 119 q 22 -7 107 -7 l -7 -7 m 489 79 l 579 79 q 671 115 638 79 q 704 211 704 150 l 704 378 q 671 474 704 439 q 579 510 638 510 l 489 510 l 489 79 z "},"Њ":{"ha":833,"x_min":81,"x_max":793,"o":"m 81 0 l 81 1014 l 167 1014 l 167 589 l 403 589 l 403 1014 l 489 1014 l 489 589 l 575 589 q 734 532 675 589 q 793 378 793 475 l 793 211 q 734 57 793 114 q 575 0 675 0 l 403 0 l 403 510 l 167 510 l 167 0 l 81 0 m 489 79 l 575 79 q 672 115 636 79 q 707 211 707 150 l 707 378 q 672 474 707 439 q 575 510 636 510 l 489 510 l 489 79 z "},"Ѕ":{"ha":833,"x_min":111,"x_max":722,"o":"m 424 -14 q 259 22 329 -14 q 150 124 189 58 q 111 278 111 189 l 201 278 q 263 126 201 183 q 424 68 324 68 q 575 122 517 68 q 633 261 633 175 q 594 388 633 333 q 486 463 556 442 l 340 506 q 192 604 246 533 q 138 768 138 675 q 173 904 138 846 q 272 995 208 963 q 418 1028 335 1028 q 565 994 501 1028 q 665 899 629 960 q 701 758 701 838 l 611 758 q 557 894 611 842 q 418 947 503 947 q 281 899 333 947 q 228 774 228 850 q 263 660 228 708 q 363 592 299 611 l 510 547 q 665 442 608 518 q 722 264 722 365 q 685 118 722 181 q 580 21 647 56 q 424 -14 513 -14 z "},"Є":{"ha":833,"x_min":142,"x_max":718,"o":"m 429 -14 q 219 63 297 -14 q 142 269 142 139 l 142 744 q 219 951 142 875 q 429 1028 297 1028 q 640 949 561 1028 q 718 736 718 869 l 626 736 q 574 890 626 835 q 429 946 521 946 q 286 892 339 946 q 233 744 233 839 l 233 568 l 550 568 l 550 485 l 233 485 l 233 269 q 285 122 233 175 q 429 68 338 68 q 574 124 522 68 q 626 278 626 179 l 718 278 q 640 65 718 144 q 429 -14 561 -14 z "},"Э":{"ha":833,"x_min":115,"x_max":692,"o":"m 115 278 l 207 278 q 259 124 207 179 q 404 68 311 68 q 548 122 496 68 q 600 269 600 175 l 600 485 l 283 485 l 283 568 l 600 568 l 600 744 q 547 892 600 839 q 404 946 494 946 q 260 890 313 946 q 207 736 207 835 l 115 736 q 194 949 115 869 q 404 1028 272 1028 q 614 951 536 1028 q 692 744 692 875 l 692 269 q 614 63 692 139 q 404 -14 536 -14 q 194 65 272 -14 q 115 278 115 144 z "},"І":{"ha":833,"x_min":158,"x_max":675,"o":"m 158 0 l 158 83 l 371 83 l 371 931 l 158 931 l 158 1014 l 675 1014 l 675 931 l 464 931 l 464 83 l 675 83 l 675 0 l 158 0 z "},"Ї":{"ha":833,"x_min":158,"x_max":675,"o":"m 158 0 l 158 83 l 371 83 l 371 931 l 158 931 l 158 1014 l 675 1014 l 675 931 l 464 931 l 464 83 l 675 83 l 675 0 l 158 0 m 569 1142 q 512 1163 533 1142 q 490 1222 490 1185 q 512 1282 490 1260 q 569 1304 533 1304 q 626 1282 606 1304 q 647 1222 647 1260 q 626 1163 647 1185 q 569 1142 606 1142 m 267 1142 q 210 1163 232 1142 q 189 1222 189 1185 q 210 1282 189 1260 q 267 1304 232 1304 q 324 1282 303 1304 q 346 1222 346 1260 q 324 1163 346 1185 q 267 1142 303 1142 z "},"Ј":{"ha":833,"x_min":83,"x_max":675,"o":"m 379 -14 q 162 65 240 -14 q 83 283 83 144 l 175 283 q 229 125 175 182 q 379 68 283 68 q 529 125 475 68 q 583 282 583 182 l 583 1014 l 675 1014 l 675 282 q 596 65 675 144 q 379 -14 517 -14 z "},"Ћ":{"ha":833,"x_min":0,"x_max":726,"o":"m 169 0 l 169 932 l 0 932 l 0 1014 l 432 1014 l 432 932 l 261 932 l 261 528 l 310 579 q 532 690 414 690 q 673 630 619 690 q 726 467 726 569 l 726 0 l 635 0 l 635 447 q 603 568 635 526 q 513 610 571 610 q 351 522 436 610 l 261 428 l 261 0 l 169 0 z "},"Ю":{"ha":833,"x_min":96,"x_max":781,"o":"m 556 -14 q 394 51 456 -14 q 333 231 333 117 l 333 486 l 182 486 l 182 0 l 96 0 l 96 1014 l 182 1014 l 182 565 l 333 565 l 333 783 q 394 963 333 897 q 556 1028 456 1028 q 719 963 658 1028 q 781 783 781 897 l 781 231 q 719 51 781 117 q 556 -14 658 -14 m 556 65 q 656 109 618 65 q 694 231 694 153 l 694 783 q 656 905 694 861 q 556 949 618 949 q 454 905 493 949 q 415 783 415 861 l 415 231 q 454 109 415 153 q 556 65 493 65 z "},"Я":{"ha":833,"x_min":92,"x_max":689,"o":"m 92 0 l 314 454 q 156 548 214 475 q 99 729 99 621 q 178 936 99 858 q 393 1014 258 1014 l 689 1014 l 689 0 l 597 0 l 597 447 l 411 447 l 197 0 l 92 0 m 393 529 l 597 529 l 597 932 l 393 932 q 247 877 303 932 q 192 731 192 822 q 247 584 192 639 q 393 529 301 529 z "},"Ђ":{"ha":833,"x_min":0,"x_max":726,"o":"m 367 -250 l 367 -167 l 440 -167 q 583 -117 532 -167 q 635 21 635 -67 l 635 447 q 603 568 635 526 q 513 610 571 610 q 351 522 436 610 l 261 428 l 261 0 l 169 0 l 169 932 l 0 932 l 0 1014 l 432 1014 l 432 932 l 261 932 l 261 529 l 310 579 q 531 690 413 690 q 673 630 619 690 q 726 467 726 569 l 726 21 q 649 -176 726 -103 q 440 -250 571 -250 l 367 -250 z "},"Ғ":{"ha":833,"x_min":50,"x_max":771,"o":"m 197 0 l 197 471 l 50 471 l 50 553 l 197 553 l 197 1014 l 771 1014 l 771 931 l 289 931 l 289 553 l 519 553 l 519 471 l 289 471 l 289 0 l 197 0 z "},"Қ":{"ha":833,"x_min":132,"x_max":792,"o":"m 132 0 l 132 1014 l 224 1014 l 224 565 l 411 565 l 636 1014 l 738 1014 l 493 528 l 711 82 l 792 82 l 792 -194 l 706 -194 l 706 0 l 644 0 l 410 483 l 224 483 l 224 0 l 132 0 z "},"Ң":{"ha":833,"x_min":139,"x_max":751,"o":"m 139 0 l 139 1014 l 231 1014 l 231 567 l 594 567 l 594 1014 l 686 1014 l 686 82 l 751 82 l 751 -194 l 665 -194 l 665 0 l 594 0 l 594 485 l 231 485 l 231 0 l 139 0 z "},"Ү":{"ha":833,"x_min":61,"x_max":772,"o":"m 371 0 l 371 385 l 61 1014 l 158 1014 l 375 572 q 401 515 390 540 q 418 476 413 489 q 434 514 424 488 q 461 572 444 540 l 678 1014 l 772 1014 l 463 385 l 463 0 l 371 0 z "},"Ұ":{"ha":833,"x_min":61,"x_max":772,"o":"m 182 306 l 182 385 l 371 385 l 61 1014 l 158 1014 l 375 572 q 401 515 390 540 q 418 476 413 489 q 434 514 424 488 q 461 572 444 540 l 678 1014 l 772 1014 l 463 385 l 651 385 l 651 306 l 463 306 l 463 0 l 371 0 l 371 306 l 182 306 z "},"Ҷ":{"ha":833,"x_min":103,"x_max":740,"o":"m 583 0 l 585 392 l 389 392 q 176 458 250 392 q 103 650 103 525 l 103 1014 l 194 1014 l 194 650 q 246 519 194 564 q 394 474 297 474 l 583 474 l 583 1014 l 675 1014 l 675 82 l 740 82 l 740 -194 l 654 -194 l 654 0 l 583 0 z "},"Һ":{"ha":833,"x_min":144,"x_max":717,"o":"m 236 1014 l 235 622 l 431 622 q 643 556 569 622 q 717 364 717 489 l 717 0 l 625 0 l 625 364 q 574 495 625 450 q 425 540 522 540 l 236 540 l 236 0 l 144 0 l 144 1014 l 236 1014 z "},"Ә":{"ha":833,"x_min":126,"x_max":700,"o":"m 414 -14 q 203 65 281 -14 q 126 278 126 143 l 126 553 l 608 553 l 608 744 q 556 892 608 838 q 414 946 504 946 q 271 890 324 946 q 218 736 218 833 l 126 736 q 203 949 126 871 q 414 1028 281 1028 q 623 951 546 1028 q 700 744 700 875 l 700 269 q 623 63 700 139 q 414 -14 546 -14 m 414 68 q 556 122 504 68 q 608 269 608 176 l 608 469 l 218 469 l 218 278 q 271 124 218 181 q 414 68 324 68 z "},"Ӝ":{"ha":833,"x_min":15,"x_max":818,"o":"m 15 0 l 214 531 l 29 1014 l 125 1014 l 292 563 l 376 563 l 376 1014 l 456 1014 l 456 563 l 542 563 l 708 1014 l 804 1014 l 618 531 l 818 0 l 722 0 l 540 489 l 456 489 l 456 0 l 376 0 l 376 489 l 290 489 l 110 0 l 15 0 m 569 1142 q 512 1163 533 1142 q 490 1222 490 1185 q 512 1282 490 1260 q 569 1304 533 1304 q 626 1282 606 1304 q 647 1222 647 1260 q 626 1163 647 1185 q 569 1142 606 1142 m 267 1142 q 210 1163 232 1142 q 189 1222 189 1185 q 210 1282 189 1260 q 267 1304 232 1304 q 324 1282 303 1304 q 346 1222 346 1260 q 324 1163 346 1185 q 267 1142 303 1142 z "},"Ӟ":{"ha":833,"x_min":82,"x_max":728,"o":"m 403 -14 q 236 22 308 -14 q 123 124 164 58 q 82 275 82 189 l 174 275 q 238 126 174 183 q 404 68 301 68 q 571 126 507 68 q 635 278 635 185 q 571 428 635 369 q 404 486 507 486 l 301 486 l 301 568 l 408 568 q 551 621 496 568 q 607 758 607 674 q 552 894 607 842 q 408 947 497 947 q 258 888 317 947 q 200 736 200 829 l 108 736 q 147 889 108 824 q 252 991 185 954 q 408 1028 319 1028 q 560 994 494 1028 q 662 900 625 960 q 699 763 699 840 q 652 615 699 678 q 532 535 606 551 l 532 531 q 674 440 619 513 q 728 272 728 368 q 687 123 728 188 q 573 22 646 58 q 403 -14 500 -14 m 569 1142 q 512 1163 533 1142 q 490 1222 490 1185 q 512 1282 490 1260 q 569 1304 533 1304 q 626 1282 606 1304 q 647 1222 647 1260 q 626 1163 647 1185 q 569 1142 606 1142 m 267 1142 q 210 1163 232 1142 q 189 1222 189 1185 q 210 1282 189 1260 q 267 1304 232 1304 q 324 1282 303 1304 q 346 1222 346 1260 q 324 1163 346 1185 q 267 1142 303 1142 z "},"Ӥ":{"ha":833,"x_min":140,"x_max":693,"o":"m 140 0 l 140 1014 l 229 1014 l 229 319 q 227 197 229 257 q 222 104 225 136 l 568 1014 l 693 1014 l 693 0 l 604 0 l 604 694 q 606 760 604 721 q 609 839 607 799 q 613 910 611 879 l 265 0 l 140 0 m 569 1142 q 512 1163 533 1142 q 490 1222 490 1185 q 512 1282 490 1260 q 569 1304 533 1304 q 626 1282 606 1304 q 647 1222 647 1260 q 626 1163 647 1185 q 569 1142 606 1142 m 267 1142 q 210 1163 232 1142 q 189 1222 189 1185 q 210 1282 189 1260 q 267 1304 232 1304 q 324 1282 303 1304 q 346 1222 346 1260 q 324 1163 346 1185 q 267 1142 303 1142 z "},"Ӧ":{"ha":833,"x_min":136,"x_max":697,"o":"m 417 -14 q 213 63 289 -14 q 136 275 136 140 l 136 739 q 213 951 136 874 q 417 1028 289 1028 q 621 951 544 1028 q 697 739 697 874 l 697 275 q 622 63 697 140 q 417 -14 546 -14 m 417 68 q 556 121 507 68 q 606 269 606 174 l 606 744 q 556 893 606 840 q 417 946 506 946 q 278 893 328 946 q 228 744 228 840 l 228 269 q 277 121 228 174 q 417 68 326 68 m 569 1142 q 512 1163 533 1142 q 490 1222 490 1185 q 512 1282 490 1260 q 569 1304 533 1304 q 626 1282 606 1304 q 647 1222 647 1260 q 626 1163 647 1185 q 569 1142 606 1142 m 267 1142 q 210 1163 232 1142 q 189 1222 189 1185 q 210 1282 189 1260 q 267 1304 232 1304 q 324 1282 303 1304 q 346 1222 346 1260 q 324 1163 346 1185 q 267 1142 303 1142 z "},"Ө":{"ha":833,"x_min":138,"x_max":696,"o":"m 417 -14 q 213 63 289 -14 q 138 269 138 139 l 138 744 q 213 951 138 875 q 417 1028 289 1028 q 620 951 544 1028 q 696 744 696 875 l 696 269 q 621 63 696 140 q 417 -14 546 -14 m 229 560 l 604 560 l 604 744 q 556 894 604 842 q 417 947 507 947 q 278 894 326 947 q 229 744 229 842 l 229 560 m 417 67 q 556 119 507 67 q 604 269 604 172 l 604 478 l 229 478 l 229 269 q 278 119 229 172 q 417 67 326 67 z "},"Ӵ":{"ha":833,"x_min":117,"x_max":689,"o":"m 597 0 l 599 392 l 403 392 q 190 458 264 392 q 117 650 117 525 l 117 1014 l 208 1014 l 208 650 q 260 519 208 564 q 408 474 311 474 l 597 474 l 597 1014 l 689 1014 l 689 0 l 597 0 m 569 1142 q 512 1163 533 1142 q 490 1222 490 1185 q 512 1282 490 1260 q 569 1304 533 1304 q 626 1282 606 1304 q 647 1222 647 1260 q 626 1163 647 1185 q 569 1142 606 1142 m 267 1142 q 210 1163 232 1142 q 189 1222 189 1185 q 210 1282 189 1260 q 267 1304 232 1304 q 324 1282 303 1304 q 346 1222 346 1260 q 324 1163 346 1185 q 267 1142 303 1142 z "},"а":{"ha":833,"x_min":107,"x_max":690,"o":"m 361 -14 q 175 52 243 -14 q 107 222 107 118 q 174 388 107 324 q 349 451 240 451 l 599 451 l 599 521 q 421 697 599 697 q 290 663 339 697 q 236 569 240 628 l 144 569 q 224 719 150 661 q 421 778 299 778 q 621 711 551 778 q 690 522 690 644 l 690 0 l 600 0 l 600 132 q 517 26 581 65 q 361 -14 454 -14 m 386 65 q 541 115 483 65 q 599 250 599 165 l 599 375 l 353 375 q 242 333 285 375 q 200 228 200 292 q 250 110 200 154 q 386 65 300 65 z "},"б":{"ha":833,"x_min":135,"x_max":699,"o":"m 418 -14 q 210 64 285 -14 q 135 281 135 142 l 135 650 q 206 892 135 804 q 414 997 276 979 l 660 1028 l 660 936 l 428 907 q 269 829 325 894 q 213 650 213 764 l 213 551 q 285 665 228 624 q 432 707 343 707 q 630 630 561 707 q 699 414 699 553 l 699 281 q 624 64 699 142 q 418 -14 550 -14 m 418 68 q 556 125 506 68 q 607 281 607 182 l 607 414 q 556 571 607 514 q 418 628 506 628 q 276 569 326 628 q 226 414 226 511 l 226 281 q 278 125 226 182 q 418 68 329 68 z "},"в":{"ha":833,"x_min":146,"x_max":717,"o":"m 146 0 l 146 764 l 458 764 q 631 713 567 764 q 696 572 696 661 q 655 463 696 508 q 549 413 614 418 l 549 407 q 671 349 625 403 q 717 214 717 296 q 649 58 717 115 q 465 0 581 0 l 146 0 m 236 435 l 458 435 q 565 468 525 435 q 604 558 604 501 q 565 649 604 615 q 458 682 525 682 l 236 682 l 236 435 m 236 82 l 465 82 q 582 119 539 82 q 625 219 625 156 q 582 318 625 281 q 465 356 539 356 l 236 356 l 236 82 z "},"г":{"ha":833,"x_min":196,"x_max":728,"o":"m 196 0 l 196 764 l 728 764 l 728 681 l 288 681 l 288 0 l 196 0 z "},"ѓ":{"ha":833,"x_min":196,"x_max":728,"o":"m 196 0 l 196 764 l 728 764 l 728 681 l 288 681 l 288 0 l 196 0 m 404 896 l 551 1090 l 654 1090 l 500 896 l 404 896 z "},"ґ":{"ha":833,"x_min":193,"x_max":725,"o":"m 193 0 l 193 764 l 636 764 l 636 910 l 725 910 l 725 681 l 285 681 l 285 0 l 193 0 z "},"д":{"ha":833,"x_min":49,"x_max":779,"o":"m 49 -194 l 49 82 l 110 82 q 163 181 142 113 q 186 367 185 249 l 193 764 l 678 764 l 678 82 l 779 82 l 779 -194 l 697 -194 l 697 0 l 131 0 l 131 -194 l 49 -194 m 206 82 l 586 82 l 586 683 l 282 683 l 276 367 q 253 174 274 242 q 206 82 232 107 z "},"е":{"ha":833,"x_min":135,"x_max":699,"o":"m 418 -14 q 210 64 286 -14 q 135 275 135 142 l 135 489 q 211 700 135 622 q 418 778 288 778 q 623 701 547 778 q 699 494 699 624 l 699 361 l 225 361 l 225 269 q 276 122 225 176 q 418 67 326 67 q 542 99 492 67 q 601 190 592 132 l 693 190 q 605 41 679 96 q 418 -14 531 -14 m 225 436 l 608 436 l 608 494 q 558 645 608 590 q 418 700 508 700 q 275 646 325 700 q 225 494 225 592 l 225 436 z "},"ё":{"ha":833,"x_min":135,"x_max":699,"o":"m 418 -14 q 210 64 286 -14 q 135 275 135 142 l 135 489 q 211 700 135 622 q 418 778 288 778 q 623 701 547 778 q 699 494 699 624 l 699 361 l 225 361 l 225 269 q 276 122 225 176 q 418 67 326 67 q 542 99 492 67 q 601 190 592 132 l 693 190 q 605 41 679 96 q 418 -14 531 -14 m 225 436 l 608 436 l 608 494 q 558 645 608 590 q 418 700 508 700 q 275 646 325 700 q 225 494 225 592 l 225 436 m 568 907 q 510 928 532 907 q 489 988 489 950 q 510 1047 489 1025 q 568 1069 532 1069 q 625 1047 604 1069 q 646 988 646 1025 q 625 928 646 950 q 568 907 604 907 m 265 907 q 209 928 231 907 q 188 988 188 950 q 209 1047 188 1025 q 265 1069 231 1069 q 323 1047 301 1069 q 344 988 344 1025 q 323 928 344 950 q 265 907 301 907 z "},"ж":{"ha":833,"x_min":38,"x_max":796,"o":"m 38 0 l 207 396 l 49 764 l 140 764 l 283 428 l 378 428 l 378 764 l 456 764 l 456 428 l 547 428 l 694 764 l 785 764 l 626 400 l 796 0 l 703 0 l 549 358 l 456 358 l 456 0 l 378 0 l 378 358 l 283 358 l 129 0 l 38 0 z "},"з":{"ha":833,"x_min":107,"x_max":708,"o":"m 364 -12 q 176 42 246 -12 q 107 188 107 96 l 199 188 q 243 103 199 135 q 364 71 288 71 l 449 71 q 569 108 525 71 q 614 210 614 146 q 571 317 614 278 q 453 356 528 356 l 279 356 l 279 436 l 450 436 q 556 470 519 436 q 592 563 592 504 q 550 659 592 624 q 436 694 508 694 l 372 694 q 261 665 303 694 q 218 585 219 635 l 126 585 q 194 724 128 672 q 372 776 260 776 l 436 776 q 619 722 551 776 q 686 572 686 668 q 649 463 686 507 q 550 414 611 419 l 550 408 q 665 348 622 403 q 708 210 708 293 q 638 48 708 108 q 449 -12 568 -12 l 364 -12 z "},"и":{"ha":833,"x_min":143,"x_max":690,"o":"m 143 0 l 143 764 l 232 764 l 232 308 q 231 189 232 251 q 222 88 229 126 l 572 764 l 690 764 l 690 0 l 601 0 l 601 457 q 603 575 601 513 q 611 678 604 638 l 261 0 l 143 0 z "},"й":{"ha":833,"x_min":143,"x_max":690,"o":"m 143 0 l 143 764 l 232 764 l 232 308 q 231 189 232 251 q 222 88 229 126 l 572 764 l 690 764 l 690 0 l 601 0 l 601 457 q 603 575 601 513 q 611 678 604 638 l 261 0 l 143 0 m 417 892 q 264 946 321 892 q 207 1090 207 1000 l 283 1090 q 319 993 283 1029 q 415 957 356 957 q 513 993 476 957 q 550 1090 550 1029 l 626 1090 q 569 946 626 1000 q 417 892 513 892 z "},"к":{"ha":833,"x_min":153,"x_max":758,"o":"m 153 0 l 153 764 l 244 764 l 244 438 l 414 438 l 638 764 l 744 764 l 496 400 l 758 0 l 650 0 l 415 354 l 244 354 l 244 0 l 153 0 z "},"ќ":{"ha":833,"x_min":153,"x_max":758,"o":"m 153 0 l 153 764 l 244 764 l 244 438 l 414 438 l 638 764 l 744 764 l 496 400 l 758 0 l 650 0 l 415 354 l 244 354 l 244 0 l 153 0 m 364 896 l 511 1090 l 614 1090 l 460 896 l 364 896 z "},"л":{"ha":833,"x_min":47,"x_max":690,"o":"m 47 -10 l 47 79 l 71 79 q 190 274 186 79 l 200 764 l 690 764 l 690 0 l 599 0 l 599 681 l 290 681 l 281 271 q 74 -10 274 -10 l 47 -10 z "},"м":{"ha":833,"x_min":117,"x_max":717,"o":"m 117 0 l 117 764 l 244 764 l 417 351 l 588 764 l 717 764 l 717 0 l 628 0 l 628 264 q 631 526 628 407 q 639 718 633 646 l 460 282 l 371 282 l 193 710 q 203 526 200 642 q 206 264 206 411 l 206 0 l 117 0 z "}}}
